<?xml version="1.0" encoding="UTF-8" standalone="no"?>
<!DOCTYPE svg PUBLIC "-//W3C//DTD SVG 1.1//EN"
 "http://www.w3.org/Graphics/SVG/1.1/DTD/svg11.dtd">
<!-- Generated by graphviz version 2.43.0 (0)
 -->
<!-- Title: inc/app_state.h Pages: 1 -->
<svg width="1302pt" height="137pt"
 viewBox="0.00 0.00 1302.00 137.00" xmlns="http://www.w3.org/2000/svg" xmlns:xlink="http://www.w3.org/1999/xlink">
<g id="graph0" class="graph" transform="scale(1 1) rotate(0) translate(4 133)">
<title>inc/app_state.h</title>
<!-- Node1 -->
<g id="Node000001" class="node">
<title>Node1</title>
<g id="a_Node000001"><a xlink:title="Global application state shared across the GUI and worker threads.">
<polygon fill="#999999" stroke="#666666" points="536.5,-129 445.5,-129 445.5,-110 536.5,-110 536.5,-129"/>
<text text-anchor="middle" x="491" y="-117" font-family="Helvetica,sans-Serif" font-size="10.00">inc/app_state.h</text>
</a>
</g>
</g>
<!-- Node2 -->
<g id="Node000002" class="node">
<title>Node2</title>
<g id="a_Node000002"><a xlink:href="main__window_8c.html" target="_top" xlink:title="Main GTK3 window: menu bar, statistics bar, toolbar, trace, TX panel.">
<polygon fill="white" stroke="#666666" points="110,-19 0,-19 0,0 110,0 110,-19"/>
<text text-anchor="middle" x="55" y="-7" font-family="Helvetica,sans-Serif" font-size="10.00">gui/main_window.c</text>
</a>
</g>
</g>
<!-- Node1&#45;&gt;Node2 -->
<g id="edge1_Node000001_Node000002" class="edge">
<title>Node1&#45;&gt;Node2</title>
<g id="a_edge1_Node000001_Node000002"><a xlink:title=" ">
<path fill="none" stroke="#63b8ff" d="M446.59,-107.5C359.51,-85.93 168.05,-38.5 89.58,-19.07"/>
<polygon fill="#63b8ff" stroke="#63b8ff" points="445.88,-110.93 456.42,-109.94 447.56,-104.13 445.88,-110.93"/>
</a>
</g>
</g>
<!-- Node3 -->
<g id="Node000003" class="node">
<title>Node3</title>
<g id="a_Node000003"><a xlink:href="message__view_8c.html" target="_top" xlink:title="CAN trace GtkTreeView, value formatting, and statistics rendering.">
<polygon fill="white" stroke="#666666" points="243.5,-19 128.5,-19 128.5,0 243.5,0 243.5,-19"/>
<text text-anchor="middle" x="186" y="-7" font-family="Helvetica,sans-Serif" font-size="10.00">gui/message_view.c</text>
</a>
</g>
</g>
<!-- Node1&#45;&gt;Node3 -->
<g id="edge2_Node000001_Node000003" class="edge">
<title>Node1&#45;&gt;Node3</title>
<g id="a_edge2_Node000001_Node000003"><a xlink:title=" ">
<path fill="none" stroke="#63b8ff" d="M457.1,-106.5C394.96,-84.49 264.25,-38.21 210.19,-19.07"/>
<polygon fill="#63b8ff" stroke="#63b8ff" points="456.22,-109.9 466.81,-109.94 458.55,-103.3 456.22,-109.9"/>
</a>
</g>
</g>
<!-- Node4 -->
<g id="Node000004" class="node">
<title>Node4</title>
<g id="a_Node000004"><a xlink:href="settings__dialog_8c.html" target="_top" xlink:title="Modal CAN connection&#45;settings dialog.">
<polygon fill="white" stroke="#666666" points="378.5,-19 261.5,-19 261.5,0 378.5,0 378.5,-19"/>
<text text-anchor="middle" x="320" y="-7" font-family="Helvetica,sans-Serif" font-size="10.00">gui/settings_dialog.c</text>
</a>
</g>
</g>
<!-- Node1&#45;&gt;Node4 -->
<g id="edge3_Node000001_Node000004" class="edge">
<title>Node1&#45;&gt;Node4</title>
<g id="a_edge3_Node000001_Node000004"><a xlink:title=" ">
<path fill="none" stroke="#63b8ff" d="M468.51,-104.3C432.57,-81.59 363.22,-37.8 333.77,-19.2"/>
<polygon fill="#63b8ff" stroke="#63b8ff" points="466.97,-107.46 477.3,-109.84 470.71,-101.55 466.97,-107.46"/>
</a>
</g>
</g>
<!-- Node5 -->
<g id="Node000005" class="node">
<title>Node5</title>
<g id="a_Node000005"><a xlink:href="signal__view_8c.html" target="_top" xlink:title="Signal Analysis tab — live DBC&#45;decoded individual&#45;signal table.">
<polygon fill="white" stroke="#666666" points="497,-19 397,-19 397,0 497,0 497,-19"/>
<text text-anchor="middle" x="447" y="-7" font-family="Helvetica,sans-Serif" font-size="10.00">gui/signal_view.c</text>
</a>
</g>
</g>
<!-- Node1&#45;&gt;Node5 -->
<g id="edge4_Node000001_Node000005" class="edge">
<title>Node1&#45;&gt;Node5</title>
<g id="a_edge4_Node000001_Node000005"><a xlink:title=" ">
<path fill="none" stroke="#63b8ff" d="M483.51,-100.12C473.91,-76.56 457.66,-36.66 450.53,-19.16"/>
<polygon fill="#63b8ff" stroke="#63b8ff" points="480.38,-101.72 487.4,-109.66 486.87,-99.08 480.38,-101.72"/>
</a>
</g>
</g>
<!-- Node6 -->
<g id="Node000006" class="node">
<title>Node6</title>
<g id="a_Node000006"><a xlink:href="threads_8c.html" target="_top" xlink:title="Background worker threads, global state, and connect/disconnect logic.">
<polygon fill="white" stroke="#666666" points="595,-19 515,-19 515,0 595,0 595,-19"/>
<text text-anchor="middle" x="555" y="-7" font-family="Helvetica,sans-Serif" font-size="10.00">gui/threads.c</text>
</a>
</g>
</g>
<!-- Node1&#45;&gt;Node6 -->
<g id="edge5_Node000001_Node000006" class="edge">
<title>Node1&#45;&gt;Node6</title>
<g id="a_edge5_Node000001_Node000006"><a xlink:title=" ">
<path fill="none" stroke="#63b8ff" d="M501.51,-100.76C515.43,-77.28 539.41,-36.81 549.87,-19.16"/>
<polygon fill="#63b8ff" stroke="#63b8ff" points="498.32,-99.27 496.24,-109.66 504.35,-102.84 498.32,-99.27"/>
</a>
</g>
</g>
<!-- Node7 -->
<g id="Node000007" class="node">
<title>Node7</title>
<g id="a_Node000007"><a xlink:href="transmit__dialog_8c.html" target="_top" xlink:title="Advanced (&quot;Transmit...&quot;) CAN/CAN FD message composer window.">
<polygon fill="white" stroke="#666666" points="1225.5,-19 1106.5,-19 1106.5,0 1225.5,0 1225.5,-19"/>
<text text-anchor="middle" x="1166" y="-7" font-family="Helvetica,sans-Serif" font-size="10.00">gui/transmit_dialog.c</text>
</a>
</g>
</g>
<!-- Node1&#45;&gt;Node7 -->
<g id="edge6_Node000001_Node000007" class="edge">
<title>Node1&#45;&gt;Node7</title>
<g id="a_edge6_Node000001_Node000007"><a xlink:title=" ">
<path fill="none" stroke="#63b8ff" d="M546.56,-109.61C674.22,-89.18 987.16,-39.11 1112.65,-19.04"/>
<polygon fill="#63b8ff" stroke="#63b8ff" points="545.92,-106.17 536.6,-111.2 547.03,-113.08 545.92,-106.17"/>
</a>
</g>
</g>
<!-- Node8 -->
<g id="Node000008" class="node">
<title>Node8</title>
<g id="a_Node000008"><a xlink:href="gui_8h.html" target="_top" xlink:title="GTK GUI widget registry and the application&#39;s GUI/thread API.">
<polygon fill="white" stroke="#666666" points="615,-74 557,-74 557,-55 615,-55 615,-74"/>
<text text-anchor="middle" x="586" y="-62" font-family="Helvetica,sans-Serif" font-size="10.00">inc/gui.h</text>
</a>
</g>
</g>
<!-- Node1&#45;&gt;Node8 -->
<g id="edge7_Node000001_Node000008" class="edge">
<title>Node1&#45;&gt;Node8</title>
<g id="a_edge7_Node000001_Node000008"><a xlink:title=" ">
<path fill="none" stroke="#63b8ff" d="M515.26,-104.97C532.63,-95.28 555.49,-82.52 570.46,-74.17"/>
<polygon fill="#63b8ff" stroke="#63b8ff" points="513.29,-102.06 506.26,-109.98 516.7,-108.17 513.29,-102.06"/>
</a>
</g>
</g>
<!-- Node13 -->
<g id="Node000013" class="node">
<title>Node13</title>
<g id="a_Node000013"><a xlink:href="main_8c.html" target="_top" xlink:title="Entry point for CANoScope — a GTK3 CAN bus monitor/analyser.">
<polygon fill="white" stroke="#666666" points="1294,-19 1244,-19 1244,0 1294,0 1294,-19"/>
<text text-anchor="middle" x="1269" y="-7" font-family="Helvetica,sans-Serif" font-size="10.00">main.c</text>
</a>
</g>
</g>
<!-- Node1&#45;&gt;Node13 -->
<g id="edge19_Node000001_Node000013" class="edge">
<title>Node1&#45;&gt;Node13</title>
<g id="a_edge19_Node000001_Node000013"><a xlink:title=" ">
<path fill="none" stroke="#63b8ff" d="M546.63,-113.34C670.85,-101.31 979.94,-68.63 1235,-19 1237.87,-18.44 1240.85,-17.79 1243.82,-17.11"/>
<polygon fill="#63b8ff" stroke="#63b8ff" points="546.22,-109.86 536.6,-114.3 546.89,-116.83 546.22,-109.86"/>
</a>
</g>
</g>
<!-- Node8&#45;&gt;Node2 -->
<g id="edge10_Node000008_Node000002" class="edge">
<title>Node8&#45;&gt;Node2</title>
<g id="a_edge10_Node000008_Node000002"><a xlink:title=" ">
<path fill="none" stroke="#63b8ff" d="M546.85,-60.26C466.54,-53.51 277.37,-37.06 119,-19 116.1,-18.67 113.14,-18.32 110.14,-17.96"/>
<polygon fill="#63b8ff" stroke="#63b8ff" points="546.74,-63.77 557,-61.11 547.32,-56.79 546.74,-63.77"/>
</a>
</g>
</g>
<!-- Node8&#45;&gt;Node3 -->
<g id="edge12_Node000008_Node000003" class="edge">
<title>Node8&#45;&gt;Node3</title>
<g id="a_edge12_Node000008_Node000003"><a xlink:title=" ">
<path fill="none" stroke="#63b8ff" d="M546.62,-58.28C475.66,-48.88 326.06,-29.06 243.58,-18.13"/>
<polygon fill="#63b8ff" stroke="#63b8ff" points="546.54,-61.8 556.91,-59.65 547.46,-54.86 546.54,-61.8"/>
</a>
</g>
</g>
<!-- Node8&#45;&gt;Node4 -->
<g id="edge13_Node000008_Node000004" class="edge">
<title>Node8&#45;&gt;Node4</title>
<g id="a_edge13_Node000008_Node000004"><a xlink:title=" ">
<path fill="none" stroke="#63b8ff" d="M546.84,-55.7C497.69,-45.9 413.69,-29.17 362.86,-19.04"/>
<polygon fill="#63b8ff" stroke="#63b8ff" points="546.28,-59.15 556.77,-57.68 547.65,-52.29 546.28,-59.15"/>
</a>
</g>
</g>
<!-- Node8&#45;&gt;Node5 -->
<g id="edge15_Node000008_Node000005" class="edge">
<title>Node8&#45;&gt;Node5</title>
<g id="a_edge15_Node000008_Node000005"><a xlink:title=" ">
<path fill="none" stroke="#63b8ff" d="M554.32,-51.42C528.53,-41.59 492.76,-27.95 469.74,-19.17"/>
<polygon fill="#63b8ff" stroke="#63b8ff" points="553.08,-54.69 563.67,-54.98 555.57,-48.15 553.08,-54.69"/>
</a>
</g>
</g>
<!-- Node8&#45;&gt;Node6 -->
<g id="edge16_Node000008_Node000006" class="edge">
<title>Node8&#45;&gt;Node6</title>
<g id="a_edge16_Node000008_Node000006"><a xlink:title=" ">
<path fill="none" stroke="#63b8ff" d="M575.82,-46.1C570.53,-37.04 564.28,-26.37 560.02,-19.09"/>
<polygon fill="#63b8ff" stroke="#63b8ff" points="572.81,-47.88 580.88,-54.75 578.85,-44.35 572.81,-47.88"/>
</a>
</g>
</g>
<!-- Node8&#45;&gt;Node7 -->
<g id="edge17_Node000008_Node000007" class="edge">
<title>Node8&#45;&gt;Node7</title>
<g id="a_edge17_Node000008_Node000007"><a xlink:title=" ">
<path fill="none" stroke="#63b8ff" d="M625.27,-60.59C711.11,-54.13 921.9,-37.65 1098,-19 1100.72,-18.71 1103.5,-18.41 1106.31,-18.09"/>
<polygon fill="#63b8ff" stroke="#63b8ff" points="624.9,-57.11 615.19,-61.35 625.42,-64.09 624.9,-57.11"/>
</a>
</g>
</g>
<!-- Node9 -->
<g id="Node000009" class="node">
<title>Node9</title>
<g id="a_Node000009"><a xlink:href="bit__analysis__view_8c.html" target="_top" xlink:title="GTK Bit Analysis tab for reverse&#45;engineering classic CAN payloads.">
<polygon fill="white" stroke="#666666" points="1088.5,-19 959.5,-19 959.5,0 1088.5,0 1088.5,-19"/>
<text text-anchor="middle" x="1024" y="-7" font-family="Helvetica,sans-Serif" font-size="10.00">gui/bit_analysis_view.c</text>
</a>
</g>
</g>
<!-- Node8&#45;&gt;Node9 -->
<g id="edge8_Node000008_Node000009" class="edge">
<title>Node8&#45;&gt;Node9</title>
<g id="a_edge8_Node000008_Node000009"><a xlink:title=" ">
<path fill="none" stroke="#63b8ff" d="M625.11,-58.77C700.66,-49.63 867.28,-29.46 959.48,-18.31"/>
<polygon fill="#63b8ff" stroke="#63b8ff" points="624.58,-55.31 615.08,-59.98 625.43,-62.25 624.58,-55.31"/>
</a>
</g>
</g>
<!-- Node10 -->
<g id="Node000010" class="node">
<title>Node10</title>
<g id="a_Node000010"><a xlink:href="db__creation_8c.html" target="_top" xlink:title="DB Creation tab for building/updating DBC files from live RX rows.">
<polygon fill="white" stroke="#666666" points="713,-19 613,-19 613,0 713,0 713,-19"/>
<text text-anchor="middle" x="663" y="-7" font-family="Helvetica,sans-Serif" font-size="10.00">gui/db_creation.c</text>
</a>
</g>
</g>
<!-- Node8&#45;&gt;Node10 -->
<g id="edge9_Node000008_Node000010" class="edge">
<title>Node8&#45;&gt;Node10</title>
<g id="a_edge9_Node000008_Node000010"><a xlink:title=" ">
<path fill="none" stroke="#63b8ff" d="M606.85,-49.15C620.76,-39.57 638.61,-27.29 650.4,-19.17"/>
<polygon fill="#63b8ff" stroke="#63b8ff" points="604.62,-46.43 598.37,-54.98 608.59,-52.2 604.62,-46.43"/>
</a>
</g>
</g>
<!-- Node11 -->
<g id="Node000011" class="node">
<title>Node11</title>
<g id="a_Node000011"><a xlink:href="math__view_8c.html" target="_top" xlink:title="Realtime two&#45;signal math analysis tab.">
<polygon fill="white" stroke="#666666" points="827,-19 731,-19 731,0 827,0 827,-19"/>
<text text-anchor="middle" x="779" y="-7" font-family="Helvetica,sans-Serif" font-size="10.00">gui/math_view.c</text>
</a>
</g>
</g>
<!-- Node8&#45;&gt;Node11 -->
<g id="edge11_Node000008_Node000011" class="edge">
<title>Node8&#45;&gt;Node11</title>
<g id="a_edge11_Node000008_Node000011"><a xlink:title=" ">
<path fill="none" stroke="#63b8ff" d="M625.04,-52.78C661.23,-42.84 714.37,-28.25 747.81,-19.07"/>
<polygon fill="#63b8ff" stroke="#63b8ff" points="624.03,-49.43 615.31,-55.45 625.88,-56.18 624.03,-49.43"/>
</a>
</g>
</g>
<!-- Node12 -->
<g id="Node000012" class="node">
<title>Node12</title>
<g id="a_Node000012"><a xlink:href="signal__plot_8c.html" target="_top" xlink:title="Signal Analysis Viewer — detachable multi&#45;window signal&#45;over&#45;time graphs.">
<polygon fill="white" stroke="#666666" points="941,-19 845,-19 845,0 941,0 941,-19"/>
<text text-anchor="middle" x="893" y="-7" font-family="Helvetica,sans-Serif" font-size="10.00">gui/signal_plot.c</text>
</a>
</g>
</g>
<!-- Node8&#45;&gt;Node12 -->
<g id="edge14_Node000008_Node000012" class="edge">
<title>Node8&#45;&gt;Node12</title>
<g id="a_edge14_Node000008_Node000012"><a xlink:title=" ">
<path fill="none" stroke="#63b8ff" d="M625.05,-56.76C681.06,-47.09 784.14,-29.29 844.82,-18.82"/>
<polygon fill="#63b8ff" stroke="#63b8ff" points="624.42,-53.32 615.16,-58.47 625.61,-60.21 624.42,-53.32"/>
</a>
</g>
</g>
<!-- Node8&#45;&gt;Node13 -->
<g id="edge18_Node000008_Node000013" class="edge">
<title>Node8&#45;&gt;Node13</title>
<g id="a_edge18_Node000008_Node000013"><a xlink:title=" ">
<path fill="none" stroke="#63b8ff" d="M625.43,-63.21C727.07,-61.95 1006.05,-55.18 1235,-19 1237.88,-18.54 1240.88,-17.96 1243.85,-17.31"/>
<polygon fill="#63b8ff" stroke="#63b8ff" points="625.27,-59.71 615.31,-63.33 625.35,-66.71 625.27,-59.71"/>
</a>
</g>
</g>
</g>
</svg>
