<?xml version="1.0" encoding="UTF-8" standalone="no"?>
<!DOCTYPE svg PUBLIC "-//W3C//DTD SVG 1.1//EN"
 "http://www.w3.org/Graphics/SVG/1.1/DTD/svg11.dtd">
<!-- Generated by graphviz version 2.43.0 (0)
 -->
<!-- Title: analysis/bit_analysis.c Pages: 1 -->
<svg width="762pt" height="192pt"
 viewBox="0.00 0.00 761.50 192.00" xmlns="http://www.w3.org/2000/svg" xmlns:xlink="http://www.w3.org/1999/xlink">
<g id="graph0" class="graph" transform="scale(1 1) rotate(0) translate(4 188)">
<title>analysis/bit_analysis.c</title>
<!-- Node1 -->
<g id="Node000001" class="node">
<title>Node1</title>
<g id="a_Node000001"><a xlink:title="GTK&#45;independent CAN payload bit analysis engine.">
<polygon fill="#999999" stroke="#666666" points="506.5,-184 379.5,-184 379.5,-165 506.5,-165 506.5,-184"/>
<text text-anchor="middle" x="443" y="-172" font-family="Helvetica,sans-Serif" font-size="10.00">analysis/bit_analysis.c</text>
</a>
</g>
</g>
<!-- Node2 -->
<g id="Node000002" class="node">
<title>Node2</title>
<g id="a_Node000002"><a xlink:href="bit__analysis_8h.html" target="_top" xlink:title="GTK&#45;independent engine for CAN payload bit analysis.">
<polygon fill="white" stroke="#666666" points="176,-129 66,-129 66,-110 176,-110 176,-129"/>
<text text-anchor="middle" x="121" y="-117" font-family="Helvetica,sans-Serif" font-size="10.00">../inc/bit_analysis.h</text>
</a>
</g>
</g>
<!-- Node1&#45;&gt;Node2 -->
<g id="edge1_Node000001_Node000002" class="edge">
<title>Node1&#45;&gt;Node2</title>
<g id="a_edge1_Node000001_Node000002"><a xlink:title=" ">
<path fill="none" stroke="#63b8ff" d="M391.27,-164.98C334.55,-155.65 243.57,-140.67 183.06,-130.71"/>
<polygon fill="#63b8ff" stroke="#63b8ff" points="183.31,-127.21 172.87,-129.04 182.17,-134.12 183.31,-127.21"/>
</a>
</g>
</g>
<!-- Node7 -->
<g id="Node000007" class="node">
<title>Node7</title>
<g id="a_Node000007"><a xlink:title=" ">
<polygon fill="#e0e0e0" stroke="#999999" points="247.5,-129 194.5,-129 194.5,-110 247.5,-110 247.5,-129"/>
<text text-anchor="middle" x="221" y="-117" font-family="Helvetica,sans-Serif" font-size="10.00">ctype.h</text>
</a>
</g>
</g>
<!-- Node1&#45;&gt;Node7 -->
<g id="edge8_Node000001_Node000007" class="edge">
<title>Node1&#45;&gt;Node7</title>
<g id="a_edge8_Node000001_Node000007"><a xlink:title=" ">
<path fill="none" stroke="#63b8ff" d="M407.33,-164.98C366.2,-155.17 298.95,-139.11 257.48,-129.21"/>
<polygon fill="#63b8ff" stroke="#63b8ff" points="258.06,-125.75 247.52,-126.83 256.44,-132.56 258.06,-125.75"/>
</a>
</g>
</g>
<!-- Node8 -->
<g id="Node000008" class="node">
<title>Node8</title>
<g id="a_Node000008"><a xlink:title=" ">
<polygon fill="#e0e0e0" stroke="#999999" points="316.5,-129 265.5,-129 265.5,-110 316.5,-110 316.5,-129"/>
<text text-anchor="middle" x="291" y="-117" font-family="Helvetica,sans-Serif" font-size="10.00">errno.h</text>
</a>
</g>
</g>
<!-- Node1&#45;&gt;Node8 -->
<g id="edge9_Node000001_Node000008" class="edge">
<title>Node1&#45;&gt;Node8</title>
<g id="a_edge9_Node000001_Node000008"><a xlink:title=" ">
<path fill="none" stroke="#63b8ff" d="M418.58,-164.98C393.28,-156.16 353.55,-142.31 325.14,-132.41"/>
<polygon fill="#63b8ff" stroke="#63b8ff" points="326.21,-129.07 315.61,-129.08 323.9,-135.68 326.21,-129.07"/>
</a>
</g>
</g>
<!-- Node9 -->
<g id="Node000009" class="node">
<title>Node9</title>
<g id="a_Node000009"><a xlink:title=" ">
<polygon fill="#e0e0e0" stroke="#999999" points="399.5,-129 334.5,-129 334.5,-110 399.5,-110 399.5,-129"/>
<text text-anchor="middle" x="367" y="-117" font-family="Helvetica,sans-Serif" font-size="10.00">inttypes.h</text>
</a>
</g>
</g>
<!-- Node1&#45;&gt;Node9 -->
<g id="edge10_Node000001_Node000009" class="edge">
<title>Node1&#45;&gt;Node9</title>
<g id="a_edge10_Node000001_Node000009"><a xlink:title=" ">
<path fill="none" stroke="#63b8ff" d="M430.79,-164.98C419.22,-156.92 401.62,-144.65 387.84,-135.03"/>
<polygon fill="#63b8ff" stroke="#63b8ff" points="389.64,-132.02 379.43,-129.17 385.63,-137.76 389.64,-132.02"/>
</a>
</g>
</g>
<!-- Node10 -->
<g id="Node000010" class="node">
<title>Node10</title>
<g id="a_Node000010"><a xlink:title=" ">
<polygon fill="#e0e0e0" stroke="#999999" points="468.5,-129 417.5,-129 417.5,-110 468.5,-110 468.5,-129"/>
<text text-anchor="middle" x="443" y="-117" font-family="Helvetica,sans-Serif" font-size="10.00">math.h</text>
</a>
</g>
</g>
<!-- Node1&#45;&gt;Node10 -->
<g id="edge11_Node000001_Node000010" class="edge">
<title>Node1&#45;&gt;Node10</title>
<g id="a_edge11_Node000001_Node000010"><a xlink:title=" ">
<path fill="none" stroke="#63b8ff" d="M443,-164.75C443,-157.8 443,-147.85 443,-139.13"/>
<polygon fill="#63b8ff" stroke="#63b8ff" points="446.5,-139.09 443,-129.09 439.5,-139.09 446.5,-139.09"/>
</a>
</g>
</g>
<!-- Node11 -->
<g id="Node000011" class="node">
<title>Node11</title>
<g id="a_Node000011"><a xlink:title=" ">
<polygon fill="#e0e0e0" stroke="#999999" points="543,-129 487,-129 487,-110 543,-110 543,-129"/>
<text text-anchor="middle" x="515" y="-117" font-family="Helvetica,sans-Serif" font-size="10.00">stdarg.h</text>
</a>
</g>
</g>
<!-- Node1&#45;&gt;Node11 -->
<g id="edge12_Node000001_Node000011" class="edge">
<title>Node1&#45;&gt;Node11</title>
<g id="a_edge12_Node000001_Node000011"><a xlink:title=" ">
<path fill="none" stroke="#63b8ff" d="M454.57,-164.98C465.42,-157 481.88,-144.88 494.88,-135.31"/>
<polygon fill="#63b8ff" stroke="#63b8ff" points="497.24,-137.92 503.22,-129.17 493.09,-132.28 497.24,-137.92"/>
</a>
</g>
</g>
<!-- Node12 -->
<g id="Node000012" class="node">
<title>Node12</title>
<g id="a_Node000012"><a xlink:title=" ">
<polygon fill="#e0e0e0" stroke="#999999" points="611,-129 561,-129 561,-110 611,-110 611,-129"/>
<text text-anchor="middle" x="586" y="-117" font-family="Helvetica,sans-Serif" font-size="10.00">stdio.h</text>
</a>
</g>
</g>
<!-- Node1&#45;&gt;Node12 -->
<g id="edge13_Node000001_Node000012" class="edge">
<title>Node1&#45;&gt;Node12</title>
<g id="a_edge13_Node000001_Node000012"><a xlink:title=" ">
<path fill="none" stroke="#63b8ff" d="M465.98,-164.98C489.5,-156.27 526.29,-142.63 552.94,-132.75"/>
<polygon fill="#63b8ff" stroke="#63b8ff" points="554.45,-135.93 562.61,-129.17 552.01,-129.36 554.45,-135.93"/>
</a>
</g>
</g>
<!-- Node13 -->
<g id="Node000013" class="node">
<title>Node13</title>
<g id="a_Node000013"><a xlink:title=" ">
<polygon fill="#e0e0e0" stroke="#999999" points="682.5,-129 629.5,-129 629.5,-110 682.5,-110 682.5,-129"/>
<text text-anchor="middle" x="656" y="-117" font-family="Helvetica,sans-Serif" font-size="10.00">stdlib.h</text>
</a>
</g>
</g>
<!-- Node1&#45;&gt;Node13 -->
<g id="edge14_Node000001_Node000013" class="edge">
<title>Node1&#45;&gt;Node13</title>
<g id="a_edge14_Node000001_Node000013"><a xlink:title=" ">
<path fill="none" stroke="#63b8ff" d="M477.22,-164.98C516.17,-155.29 579.53,-139.53 619.43,-129.6"/>
<polygon fill="#63b8ff" stroke="#63b8ff" points="620.42,-132.96 629.28,-127.15 618.73,-126.17 620.42,-132.96"/>
</a>
</g>
</g>
<!-- Node14 -->
<g id="Node000014" class="node">
<title>Node14</title>
<g id="a_Node000014"><a xlink:title=" ">
<polygon fill="#e0e0e0" stroke="#999999" points="753.5,-129 700.5,-129 700.5,-110 753.5,-110 753.5,-129"/>
<text text-anchor="middle" x="727" y="-117" font-family="Helvetica,sans-Serif" font-size="10.00">string.h</text>
</a>
</g>
</g>
<!-- Node1&#45;&gt;Node14 -->
<g id="edge15_Node000001_Node000014" class="edge">
<title>Node1&#45;&gt;Node14</title>
<g id="a_edge15_Node000001_Node000014"><a xlink:title=" ">
<path fill="none" stroke="#63b8ff" d="M496.13,-164.98C544.4,-157.01 617.79,-144.36 690.09,-129.31"/>
<polygon fill="#63b8ff" stroke="#63b8ff" points="691.22,-132.65 700.29,-127.17 689.78,-125.8 691.22,-132.65"/>
</a>
</g>
</g>
<!-- Node3 -->
<g id="Node000003" class="node">
<title>Node3</title>
<g id="a_Node000003"><a xlink:title=" ">
<polygon fill="#e0e0e0" stroke="#999999" points="56,-74 0,-74 0,-55 56,-55 56,-74"/>
<text text-anchor="middle" x="28" y="-62" font-family="Helvetica,sans-Serif" font-size="10.00">stddef.h</text>
</a>
</g>
</g>
<!-- Node2&#45;&gt;Node3 -->
<g id="edge2_Node000002_Node000003" class="edge">
<title>Node2&#45;&gt;Node3</title>
<g id="a_edge2_Node000002_Node000003"><a xlink:title=" ">
<path fill="none" stroke="#63b8ff" d="M106.06,-109.98C91.5,-101.69 69.13,-88.94 52.07,-79.22"/>
<polygon fill="#63b8ff" stroke="#63b8ff" points="53.64,-76.08 43.21,-74.17 50.17,-82.16 53.64,-76.08"/>
</a>
</g>
</g>
<!-- Node4 -->
<g id="Node000004" class="node">
<title>Node4</title>
<g id="a_Node000004"><a xlink:title=" ">
<polygon fill="#e0e0e0" stroke="#999999" points="148.5,-19 95.5,-19 95.5,0 148.5,0 148.5,-19"/>
<text text-anchor="middle" x="122" y="-7" font-family="Helvetica,sans-Serif" font-size="10.00">stdint.h</text>
</a>
</g>
</g>
<!-- Node2&#45;&gt;Node4 -->
<g id="edge3_Node000002_Node000004" class="edge">
<title>Node2&#45;&gt;Node4</title>
<g id="a_edge3_Node000002_Node000004"><a xlink:title=" ">
<path fill="none" stroke="#63b8ff" d="M115.87,-109.97C109.21,-97.88 98.91,-74.98 103,-55 104.89,-45.74 108.79,-36.03 112.57,-28.04"/>
<polygon fill="#63b8ff" stroke="#63b8ff" points="115.74,-29.53 117.12,-19.02 109.49,-26.37 115.74,-29.53"/>
</a>
</g>
</g>
<!-- Node5 -->
<g id="Node000005" class="node">
<title>Node5</title>
<g id="a_Node000005"><a xlink:title=" ">
<polygon fill="#e0e0e0" stroke="#999999" points="217,-19 169,-19 169,0 217,0 217,-19"/>
<text text-anchor="middle" x="193" y="-7" font-family="Helvetica,sans-Serif" font-size="10.00">time.h</text>
</a>
</g>
</g>
<!-- Node2&#45;&gt;Node5 -->
<g id="edge4_Node000002_Node000005" class="edge">
<title>Node2&#45;&gt;Node5</title>
<g id="a_edge4_Node000002_Node000005"><a xlink:title=" ">
<path fill="none" stroke="#63b8ff" d="M160.31,-109.92C179.71,-103.48 201.41,-92.49 213,-74 221.98,-59.68 214.17,-41 205.83,-27.61"/>
<polygon fill="#63b8ff" stroke="#63b8ff" points="208.69,-25.6 200.16,-19.31 202.91,-29.54 208.69,-25.6"/>
</a>
</g>
</g>
<!-- Node6 -->
<g id="Node000006" class="node">
<title>Node6</title>
<g id="a_Node000006"><a xlink:href="can__message_8h.html" target="_top" xlink:title="Hardware&#45;independent CAN/CAN FD message and statistics data types.">
<polygon fill="white" stroke="#666666" points="204,-74 112,-74 112,-55 204,-55 204,-74"/>
<text text-anchor="middle" x="158" y="-62" font-family="Helvetica,sans-Serif" font-size="10.00">can_message.h</text>
</a>
</g>
</g>
<!-- Node2&#45;&gt;Node6 -->
<g id="edge5_Node000002_Node000006" class="edge">
<title>Node2&#45;&gt;Node6</title>
<g id="a_edge5_Node000002_Node000006"><a xlink:title=" ">
<path fill="none" stroke="#63b8ff" d="M127.11,-109.75C132.28,-102.34 139.85,-91.5 146.19,-82.41"/>
<polygon fill="#63b8ff" stroke="#63b8ff" points="149.15,-84.29 152,-74.09 143.41,-80.29 149.15,-84.29"/>
</a>
</g>
</g>
<!-- Node6&#45;&gt;Node4 -->
<g id="edge6_Node000006_Node000004" class="edge">
<title>Node6&#45;&gt;Node4</title>
<g id="a_edge6_Node000006_Node000004"><a xlink:title=" ">
<path fill="none" stroke="#63b8ff" d="M152.06,-54.75C147.02,-47.34 139.66,-36.5 133.49,-27.41"/>
<polygon fill="#63b8ff" stroke="#63b8ff" points="136.35,-25.39 127.83,-19.09 130.56,-29.33 136.35,-25.39"/>
</a>
</g>
</g>
<!-- Node6&#45;&gt;Node5 -->
<g id="edge7_Node000006_Node000005" class="edge">
<title>Node6&#45;&gt;Node5</title>
<g id="a_edge7_Node000006_Node000005"><a xlink:title=" ">
<path fill="none" stroke="#63b8ff" d="M163.78,-54.75C168.62,-47.42 175.68,-36.73 181.64,-27.7"/>
<polygon fill="#63b8ff" stroke="#63b8ff" points="184.74,-29.36 187.33,-19.09 178.9,-25.5 184.74,-29.36"/>
</a>
</g>
</g>
</g>
</svg>
