<?xml version="1.0" encoding="UTF-8" standalone="no"?>
<!DOCTYPE svg PUBLIC "-//W3C//DTD SVG 1.1//EN"
 "http://www.w3.org/Graphics/SVG/1.1/DTD/svg11.dtd">
<!-- Generated by graphviz version 2.43.0 (0)
 -->
<!-- Title: inc/can_message.h Pages: 1 -->
<svg width="1303pt" height="247pt"
 viewBox="0.00 0.00 1303.00 247.00" xmlns="http://www.w3.org/2000/svg" xmlns:xlink="http://www.w3.org/1999/xlink">
<g id="graph0" class="graph" transform="scale(1 1) rotate(0) translate(4 243)">
<title>inc/can_message.h</title>
<!-- Node1 -->
<g id="Node000001" class="node">
<title>Node1</title>
<g id="a_Node000001"><a xlink:title="Hardware&#45;independent CAN/CAN FD message and statistics data types.">
<polygon fill="#999999" stroke="#666666" points="877,-239 767,-239 767,-220 877,-220 877,-239"/>
<text text-anchor="middle" x="822" y="-227" font-family="Helvetica,sans-Serif" font-size="10.00">inc/can_message.h</text>
</a>
</g>
</g>
<!-- Node2 -->
<g id="Node000002" class="node">
<title>Node2</title>
<g id="a_Node000002"><a xlink:href="socketcan_8c.html" target="_top" xlink:title="SocketCAN back&#45;end for CANoScope (PF_CAN / SOCK_RAW).">
<polygon fill="white" stroke="#666666" points="1109.5,-74 1004.5,-74 1004.5,-55 1109.5,-55 1109.5,-74"/>
<text text-anchor="middle" x="1057" y="-62" font-family="Helvetica,sans-Serif" font-size="10.00">driver/socketcan.c</text>
</a>
</g>
</g>
<!-- Node1&#45;&gt;Node2 -->
<g id="edge1_Node000001_Node000002" class="edge">
<title>Node1&#45;&gt;Node2</title>
<g id="a_edge1_Node000001_Node000002"><a xlink:title=" ">
<path fill="none" stroke="#63b8ff" d="M887.3,-223.29C920.83,-217.8 960.67,-206.65 990,-184 1028.35,-154.39 1048.24,-96.21 1054.65,-74.21"/>
<polygon fill="#63b8ff" stroke="#63b8ff" points="886.49,-219.87 877.12,-224.81 887.53,-226.79 886.49,-219.87"/>
</a>
</g>
</g>
<!-- Node3 -->
<g id="Node000003" class="node">
<title>Node3</title>
<g id="a_Node000003"><a xlink:href="main__window_8c.html" target="_top" xlink:title="Main GTK3 window: menu bar, statistics bar, toolbar, trace, TX panel.">
<polygon fill="white" stroke="#666666" points="110,-19 0,-19 0,0 110,0 110,-19"/>
<text text-anchor="middle" x="55" y="-7" font-family="Helvetica,sans-Serif" font-size="10.00">gui/main_window.c</text>
</a>
</g>
</g>
<!-- Node1&#45;&gt;Node3 -->
<g id="edge2_Node000001_Node000003" class="edge">
<title>Node1&#45;&gt;Node3</title>
<g id="a_edge2_Node000001_Node000003"><a xlink:title=" ">
<path fill="none" stroke="#63b8ff" d="M756.76,-228.6C673.5,-227.13 525.79,-219.16 405,-184 264.67,-143.15 112.58,-48.13 67.97,-19.09"/>
<polygon fill="#63b8ff" stroke="#63b8ff" points="756.78,-232.1 766.83,-228.75 756.89,-225.1 756.78,-232.1"/>
</a>
</g>
</g>
<!-- Node4 -->
<g id="Node000004" class="node">
<title>Node4</title>
<g id="a_Node000004"><a xlink:href="message__view_8c.html" target="_top" xlink:title="CAN trace GtkTreeView, value formatting, and statistics rendering.">
<polygon fill="white" stroke="#666666" points="243.5,-19 128.5,-19 128.5,0 243.5,0 243.5,-19"/>
<text text-anchor="middle" x="186" y="-7" font-family="Helvetica,sans-Serif" font-size="10.00">gui/message_view.c</text>
</a>
</g>
</g>
<!-- Node1&#45;&gt;Node4 -->
<g id="edge3_Node000001_Node000004" class="edge">
<title>Node1&#45;&gt;Node4</title>
<g id="a_edge3_Node000001_Node000004"><a xlink:title=" ">
<path fill="none" stroke="#63b8ff" d="M756.81,-224.2C666.24,-217.62 507.32,-203.71 453,-184 341.28,-143.45 228.89,-48.64 195.75,-19.31"/>
<polygon fill="#63b8ff" stroke="#63b8ff" points="756.75,-227.71 766.97,-224.93 757.25,-220.72 756.75,-227.71"/>
</a>
</g>
</g>
<!-- Node5 -->
<g id="Node000005" class="node">
<title>Node5</title>
<g id="a_Node000005"><a xlink:href="signal__view_8c.html" target="_top" xlink:title="Signal Analysis tab — live DBC&#45;decoded individual&#45;signal table.">
<polygon fill="white" stroke="#666666" points="362,-19 262,-19 262,0 362,0 362,-19"/>
<text text-anchor="middle" x="312" y="-7" font-family="Helvetica,sans-Serif" font-size="10.00">gui/signal_view.c</text>
</a>
</g>
</g>
<!-- Node1&#45;&gt;Node5 -->
<g id="edge4_Node000001_Node000005" class="edge">
<title>Node1&#45;&gt;Node5</title>
<g id="a_edge4_Node000001_Node000005"><a xlink:title=" ">
<path fill="none" stroke="#63b8ff" d="M756.69,-224.14C673.68,-217.85 535.57,-204.66 489,-184 404.04,-146.31 336.44,-48.7 317.39,-19.12"/>
<polygon fill="#63b8ff" stroke="#63b8ff" points="756.54,-227.64 766.77,-224.89 757.06,-220.66 756.54,-227.64"/>
</a>
</g>
</g>
<!-- Node6 -->
<g id="Node000006" class="node">
<title>Node6</title>
<g id="a_Node000006"><a xlink:href="threads_8c.html" target="_top" xlink:title="Background worker threads, global state, and connect/disconnect logic.">
<polygon fill="white" stroke="#666666" points="1295,-19 1215,-19 1215,0 1295,0 1295,-19"/>
<text text-anchor="middle" x="1255" y="-7" font-family="Helvetica,sans-Serif" font-size="10.00">gui/threads.c</text>
</a>
</g>
</g>
<!-- Node1&#45;&gt;Node6 -->
<g id="edge5_Node000001_Node000006" class="edge">
<title>Node1&#45;&gt;Node6</title>
<g id="a_edge5_Node000001_Node000006"><a xlink:title=" ">
<path fill="none" stroke="#63b8ff" d="M842.15,-213.72C853.1,-205.39 866.68,-194.56 878,-184 934.82,-131 927.8,-92.24 996,-55 1079.11,-9.61 1112.68,-35.09 1206,-19 1208.89,-18.5 1211.88,-17.98 1214.89,-17.46"/>
<polygon fill="#63b8ff" stroke="#63b8ff" points="839.93,-211.01 834.03,-219.81 844.13,-216.61 839.93,-211.01"/>
</a>
</g>
</g>
<!-- Node7 -->
<g id="Node000007" class="node">
<title>Node7</title>
<g id="a_Node000007"><a xlink:href="transmit__dialog_8c.html" target="_top" xlink:title="Advanced (&quot;Transmit...&quot;) CAN/CAN FD message composer window.">
<polygon fill="white" stroke="#666666" points="1061.5,-19 942.5,-19 942.5,0 1061.5,0 1061.5,-19"/>
<text text-anchor="middle" x="1002" y="-7" font-family="Helvetica,sans-Serif" font-size="10.00">gui/transmit_dialog.c</text>
</a>
</g>
</g>
<!-- Node1&#45;&gt;Node7 -->
<g id="edge6_Node000001_Node000007" class="edge">
<title>Node1&#45;&gt;Node7</title>
<g id="a_edge6_Node000001_Node000007"><a xlink:title=" ">
<path fill="none" stroke="#63b8ff" d="M835.17,-211.57C859.65,-180.25 914.03,-111.31 962,-55 972.78,-42.35 985.71,-28.13 993.89,-19.24"/>
<polygon fill="#63b8ff" stroke="#63b8ff" points="832.22,-209.66 828.83,-219.7 837.74,-213.97 832.22,-209.66"/>
</a>
</g>
</g>
<!-- Node8 -->
<g id="Node000008" class="node">
<title>Node8</title>
<g id="a_Node000008"><a xlink:href="app__state_8h.html" target="_top" xlink:title="Global application state shared across the GUI and worker threads.">
<polygon fill="white" stroke="#666666" points="867.5,-129 776.5,-129 776.5,-110 867.5,-110 867.5,-129"/>
<text text-anchor="middle" x="822" y="-117" font-family="Helvetica,sans-Serif" font-size="10.00">inc/app_state.h</text>
</a>
</g>
</g>
<!-- Node1&#45;&gt;Node8 -->
<g id="edge7_Node000001_Node000008" class="edge">
<title>Node1&#45;&gt;Node8</title>
<g id="a_edge7_Node000001_Node000008"><a xlink:title=" ">
<path fill="none" stroke="#63b8ff" d="M822,-209.48C822,-185.84 822,-146.5 822,-129.16"/>
<polygon fill="#63b8ff" stroke="#63b8ff" points="818.5,-209.66 822,-219.66 825.5,-209.66 818.5,-209.66"/>
</a>
</g>
</g>
<!-- Node10 -->
<g id="Node000010" class="node">
<title>Node10</title>
<g id="a_Node000010"><a xlink:href="gui_8h.html" target="_top" xlink:title="GTK GUI widget registry and the application&#39;s GUI/thread API.">
<polygon fill="white" stroke="#666666" points="689,-74 631,-74 631,-55 689,-55 689,-74"/>
<text text-anchor="middle" x="660" y="-62" font-family="Helvetica,sans-Serif" font-size="10.00">inc/gui.h</text>
</a>
</g>
</g>
<!-- Node1&#45;&gt;Node10 -->
<g id="edge40_Node000001_Node000010" class="edge">
<title>Node1&#45;&gt;Node10</title>
<g id="a_edge40_Node000001_Node000010"><a xlink:title=" ">
<path fill="none" stroke="#63b8ff" d="M756.62,-221.52C655.93,-209.27 470.37,-180.2 431,-129 425.85,-122.31 425.63,-116.52 431,-110 455.99,-79.69 574.61,-69.76 630.61,-66.73"/>
<polygon fill="#63b8ff" stroke="#63b8ff" points="756.34,-225.01 766.68,-222.72 757.17,-218.06 756.34,-225.01"/>
</a>
</g>
</g>
<!-- Node16 -->
<g id="Node000016" class="node">
<title>Node16</title>
<g id="a_Node000016"><a xlink:href="bit__analysis_8h.html" target="_top" xlink:title="GTK&#45;independent engine for CAN payload bit analysis.">
<polygon fill="white" stroke="#666666" points="748.5,-184 647.5,-184 647.5,-165 748.5,-165 748.5,-184"/>
<text text-anchor="middle" x="698" y="-172" font-family="Helvetica,sans-Serif" font-size="10.00">inc/bit_analysis.h</text>
</a>
</g>
</g>
<!-- Node1&#45;&gt;Node16 -->
<g id="edge27_Node000001_Node000016" class="edge">
<title>Node1&#45;&gt;Node16</title>
<g id="a_edge27_Node000001_Node000016"><a xlink:title=" ">
<path fill="none" stroke="#63b8ff" d="M792.82,-216.03C769.89,-206.23 738.55,-192.83 718.29,-184.17"/>
<polygon fill="#63b8ff" stroke="#63b8ff" points="791.51,-219.27 802.08,-219.98 794.26,-212.84 791.51,-219.27"/>
</a>
</g>
</g>
<!-- Node19 -->
<g id="Node000019" class="node">
<title>Node19</title>
<g id="a_Node000019"><a xlink:href="drv__can_8h.html" target="_top" xlink:title="Generic CAN driver abstraction (vtable) and thin wrapper API.">
<polygon fill="white" stroke="#666666" points="1123.5,-184 1042.5,-184 1042.5,-165 1123.5,-165 1123.5,-184"/>
<text text-anchor="middle" x="1083" y="-172" font-family="Helvetica,sans-Serif" font-size="10.00">inc/drv_can.h</text>
</a>
</g>
</g>
<!-- Node1&#45;&gt;Node19 -->
<g id="edge31_Node000001_Node000019" class="edge">
<title>Node1&#45;&gt;Node19</title>
<g id="a_edge31_Node000001_Node000019"><a xlink:title=" ">
<path fill="none" stroke="#63b8ff" d="M873.81,-217.98C923.36,-207.92 997.06,-192.95 1042.46,-183.73"/>
<polygon fill="#63b8ff" stroke="#63b8ff" points="873.04,-214.56 863.93,-219.98 874.43,-221.42 873.04,-214.56"/>
</a>
</g>
</g>
<!-- Node21 -->
<g id="Node000021" class="node">
<title>Node21</title>
<g id="a_Node000021"><a xlink:href="socketcan_8h.html" target="_top" xlink:title="SocketCAN back&#45;end interface (Linux PF_CAN / SOCK_RAW).">
<polygon fill="white" stroke="#666666" points="1184,-129 1092,-129 1092,-110 1184,-110 1184,-129"/>
<text text-anchor="middle" x="1138" y="-117" font-family="Helvetica,sans-Serif" font-size="10.00">inc/socketcan.h</text>
</a>
</g>
</g>
<!-- Node1&#45;&gt;Node21 -->
<g id="edge41_Node000001_Node000021" class="edge">
<title>Node1&#45;&gt;Node21</title>
<g id="a_edge41_Node000001_Node000021"><a xlink:title=" ">
<path fill="none" stroke="#63b8ff" d="M887.21,-228.38C968.44,-226.73 1100.52,-218.61 1133,-184 1146.92,-169.16 1143.42,-142.85 1140.34,-129.22"/>
<polygon fill="#63b8ff" stroke="#63b8ff" points="887.02,-224.88 877.08,-228.56 887.14,-231.88 887.02,-224.88"/>
</a>
</g>
</g>
<!-- Node8&#45;&gt;Node3 -->
<g id="edge8_Node000008_Node000003" class="edge">
<title>Node8&#45;&gt;Node3</title>
<g id="a_edge8_Node000008_Node000003"><a xlink:title=" ">
<path fill="none" stroke="#63b8ff" d="M766.25,-113.32C689.16,-105.91 545.72,-91.26 424,-74 306.38,-57.32 168.65,-32.09 99.45,-19.02"/>
<polygon fill="#63b8ff" stroke="#63b8ff" points="765.94,-116.8 776.23,-114.27 766.6,-109.83 765.94,-116.8"/>
</a>
</g>
</g>
<!-- Node8&#45;&gt;Node4 -->
<g id="edge9_Node000008_Node000004" class="edge">
<title>Node8&#45;&gt;Node4</title>
<g id="a_edge9_Node000008_Node000004"><a xlink:title=" ">
<path fill="none" stroke="#63b8ff" d="M766.29,-110.4C708.04,-101.81 613.99,-87.64 533,-74 423.99,-55.64 296.2,-31.6 230.3,-19.02"/>
<polygon fill="#63b8ff" stroke="#63b8ff" points="765.98,-113.89 776.39,-111.88 767,-106.97 765.98,-113.89"/>
</a>
</g>
</g>
<!-- Node8&#45;&gt;Node5 -->
<g id="edge11_Node000008_Node000005" class="edge">
<title>Node8&#45;&gt;Node5</title>
<g id="a_edge11_Node000008_Node000005"><a xlink:title=" ">
<path fill="none" stroke="#63b8ff" d="M771.59,-107.82C670.47,-86.41 444.7,-38.6 352.45,-19.07"/>
<polygon fill="#63b8ff" stroke="#63b8ff" points="771.05,-111.29 781.55,-109.94 772.5,-104.44 771.05,-111.29"/>
</a>
</g>
</g>
<!-- Node8&#45;&gt;Node6 -->
<g id="edge12_Node000008_Node000006" class="edge">
<title>Node8&#45;&gt;Node6</title>
<g id="a_edge12_Node000008_Node000006"><a xlink:title=" ">
<path fill="none" stroke="#63b8ff" d="M845.8,-105.21C873.04,-90.6 919.4,-67.53 962,-55 1067.16,-24.06 1097.77,-36.37 1206,-19 1208.9,-18.53 1211.89,-18.04 1214.9,-17.54"/>
<polygon fill="#63b8ff" stroke="#63b8ff" points="844.11,-102.14 837,-110 847.45,-108.29 844.11,-102.14"/>
</a>
</g>
</g>
<!-- Node8&#45;&gt;Node7 -->
<g id="edge13_Node000008_Node000007" class="edge">
<title>Node8&#45;&gt;Node7</title>
<g id="a_edge13_Node000008_Node000007"><a xlink:title=" ">
<path fill="none" stroke="#63b8ff" d="M825.16,-99.6C828.5,-85.43 835.13,-66.56 848,-55 864.1,-40.54 917.46,-27.23 956.88,-19.01"/>
<polygon fill="#63b8ff" stroke="#63b8ff" points="821.67,-99.24 823.14,-109.73 828.53,-100.61 821.67,-99.24"/>
</a>
</g>
</g>
<!-- Node9 -->
<g id="Node000009" class="node">
<title>Node9</title>
<g id="a_Node000009"><a xlink:href="settings__dialog_8c.html" target="_top" xlink:title="Modal CAN connection&#45;settings dialog.">
<polygon fill="white" stroke="#666666" points="1196.5,-19 1079.5,-19 1079.5,0 1196.5,0 1196.5,-19"/>
<text text-anchor="middle" x="1138" y="-7" font-family="Helvetica,sans-Serif" font-size="10.00">gui/settings_dialog.c</text>
</a>
</g>
</g>
<!-- Node8&#45;&gt;Node9 -->
<g id="edge10_Node000008_Node000009" class="edge">
<title>Node8&#45;&gt;Node9</title>
<g id="a_edge10_Node000008_Node000009"><a xlink:title=" ">
<path fill="none" stroke="#63b8ff" d="M834.18,-101.58C845.78,-86.83 864.59,-66.09 886,-55 902.91,-46.24 1010.26,-29.24 1079.29,-18.98"/>
<polygon fill="#63b8ff" stroke="#63b8ff" points="831.17,-99.77 827.94,-109.86 836.76,-103.98 831.17,-99.77"/>
</a>
</g>
</g>
<!-- Node8&#45;&gt;Node10 -->
<g id="edge14_Node000008_Node000010" class="edge">
<title>Node8&#45;&gt;Node10</title>
<g id="a_edge14_Node000008_Node000010"><a xlink:title=" ">
<path fill="none" stroke="#63b8ff" d="M786.23,-106.8C756,-96.91 713.39,-82.97 686.23,-74.08"/>
<polygon fill="#63b8ff" stroke="#63b8ff" points="785.38,-110.2 795.97,-109.98 787.56,-103.55 785.38,-110.2"/>
</a>
</g>
</g>
<!-- Node15 -->
<g id="Node000015" class="node">
<title>Node15</title>
<g id="a_Node000015"><a xlink:href="main_8c.html" target="_top" xlink:title="Entry point for CANoScope — a GTK3 CAN bus monitor/analyser.">
<polygon fill="white" stroke="#666666" points="924,-19 874,-19 874,0 924,0 924,-19"/>
<text text-anchor="middle" x="899" y="-7" font-family="Helvetica,sans-Serif" font-size="10.00">main.c</text>
</a>
</g>
</g>
<!-- Node8&#45;&gt;Node15 -->
<g id="edge26_Node000008_Node000015" class="edge">
<title>Node8&#45;&gt;Node15</title>
<g id="a_edge26_Node000008_Node000015"><a xlink:title=" ">
<path fill="none" stroke="#63b8ff" d="M812.17,-100.41C806.33,-86.97 801.54,-68.69 810,-55 817.4,-43.02 851.46,-28.26 875.23,-19.11"/>
<polygon fill="#63b8ff" stroke="#63b8ff" points="809.12,-102.12 816.65,-109.58 815.41,-99.05 809.12,-102.12"/>
</a>
</g>
</g>
<!-- Node10&#45;&gt;Node3 -->
<g id="edge17_Node000010_Node000003" class="edge">
<title>Node10&#45;&gt;Node3</title>
<g id="a_edge17_Node000010_Node000003"><a xlink:title=" ">
<path fill="none" stroke="#63b8ff" d="M620.72,-60.94C531.45,-54.99 306.51,-39.15 119,-19 116.1,-18.69 113.13,-18.35 110.14,-18"/>
<polygon fill="#63b8ff" stroke="#63b8ff" points="620.71,-64.45 630.92,-61.62 621.18,-57.47 620.71,-64.45"/>
</a>
</g>
</g>
<!-- Node10&#45;&gt;Node4 -->
<g id="edge19_Node000010_Node000004" class="edge">
<title>Node10&#45;&gt;Node4</title>
<g id="a_edge19_Node000010_Node000004"><a xlink:title=" ">
<path fill="none" stroke="#63b8ff" d="M620.8,-59.44C548.2,-51.87 387.9,-34.93 253,-19 249.97,-18.64 246.87,-18.27 243.74,-17.89"/>
<polygon fill="#63b8ff" stroke="#63b8ff" points="620.55,-62.93 630.86,-60.49 621.28,-55.97 620.55,-62.93"/>
</a>
</g>
</g>
<!-- Node10&#45;&gt;Node5 -->
<g id="edge22_Node000010_Node000005" class="edge">
<title>Node10&#45;&gt;Node5</title>
<g id="a_edge22_Node000010_Node000005"><a xlink:title=" ">
<path fill="none" stroke="#63b8ff" d="M620.93,-57.55C557.51,-47.89 432.21,-28.81 362.24,-18.15"/>
<polygon fill="#63b8ff" stroke="#63b8ff" points="620.52,-61.03 630.93,-59.07 621.57,-54.11 620.52,-61.03"/>
</a>
</g>
</g>
<!-- Node10&#45;&gt;Node6 -->
<g id="edge23_Node000010_Node000006" class="edge">
<title>Node10&#45;&gt;Node6</title>
<g id="a_edge23_Node000010_Node000006"><a xlink:title=" ">
<path fill="none" stroke="#63b8ff" d="M699.11,-61.53C788.93,-56.74 1016.78,-43.07 1206,-19 1208.91,-18.63 1211.91,-18.21 1214.93,-17.75"/>
<polygon fill="#63b8ff" stroke="#63b8ff" points="698.9,-58.04 689.1,-62.06 699.27,-65.03 698.9,-58.04"/>
</a>
</g>
</g>
<!-- Node10&#45;&gt;Node7 -->
<g id="edge24_Node000010_Node000007" class="edge">
<title>Node10&#45;&gt;Node7</title>
<g id="a_edge24_Node000010_Node000007"><a xlink:title=" ">
<path fill="none" stroke="#63b8ff" d="M699.14,-57.43C760.03,-48 877.66,-29.77 947.04,-19.02"/>
<polygon fill="#63b8ff" stroke="#63b8ff" points="698.5,-53.99 689.16,-58.98 699.58,-60.91 698.5,-53.99"/>
</a>
</g>
</g>
<!-- Node10&#45;&gt;Node9 -->
<g id="edge20_Node000010_Node000009" class="edge">
<title>Node10&#45;&gt;Node9</title>
<g id="a_edge20_Node000010_Node000009"><a xlink:title=" ">
<path fill="none" stroke="#63b8ff" d="M699.31,-59.49C772.5,-51.96 934.61,-35.03 1071,-19 1073.68,-18.69 1076.42,-18.36 1079.18,-18.02"/>
<polygon fill="#63b8ff" stroke="#63b8ff" points="698.76,-56.02 689.17,-60.53 699.48,-62.99 698.76,-56.02"/>
</a>
</g>
</g>
<!-- Node11 -->
<g id="Node000011" class="node">
<title>Node11</title>
<g id="a_Node000011"><a xlink:href="bit__analysis__view_8c.html" target="_top" xlink:title="GTK Bit Analysis tab for reverse&#45;engineering classic CAN payloads.">
<polygon fill="white" stroke="#666666" points="855.5,-19 726.5,-19 726.5,0 855.5,0 855.5,-19"/>
<text text-anchor="middle" x="791" y="-7" font-family="Helvetica,sans-Serif" font-size="10.00">gui/bit_analysis_view.c</text>
</a>
</g>
</g>
<!-- Node10&#45;&gt;Node11 -->
<g id="edge15_Node000010_Node000011" class="edge">
<title>Node10&#45;&gt;Node11</title>
<g id="a_edge15_Node000010_Node000011"><a xlink:title=" ">
<path fill="none" stroke="#63b8ff" d="M690.5,-51.16C714.75,-41.35 748.07,-27.87 769.57,-19.17"/>
<polygon fill="#63b8ff" stroke="#63b8ff" points="689,-47.99 681.05,-54.98 691.63,-54.48 689,-47.99"/>
</a>
</g>
</g>
<!-- Node12 -->
<g id="Node000012" class="node">
<title>Node12</title>
<g id="a_Node000012"><a xlink:href="db__creation_8c.html" target="_top" xlink:title="DB Creation tab for building/updating DBC files from live RX rows.">
<polygon fill="white" stroke="#666666" points="594,-19 494,-19 494,0 594,0 594,-19"/>
<text text-anchor="middle" x="544" y="-7" font-family="Helvetica,sans-Serif" font-size="10.00">gui/db_creation.c</text>
</a>
</g>
</g>
<!-- Node10&#45;&gt;Node12 -->
<g id="edge16_Node000010_Node000012" class="edge">
<title>Node10&#45;&gt;Node12</title>
<g id="a_edge16_Node000010_Node000012"><a xlink:title=" ">
<path fill="none" stroke="#63b8ff" d="M632.13,-50.77C610.73,-40.99 581.76,-27.75 562.98,-19.17"/>
<polygon fill="#63b8ff" stroke="#63b8ff" points="630.81,-54.01 641.36,-54.98 633.72,-47.65 630.81,-54.01"/>
</a>
</g>
</g>
<!-- Node13 -->
<g id="Node000013" class="node">
<title>Node13</title>
<g id="a_Node000013"><a xlink:href="math__view_8c.html" target="_top" xlink:title="Realtime two&#45;signal math analysis tab.">
<polygon fill="white" stroke="#666666" points="708,-19 612,-19 612,0 708,0 708,-19"/>
<text text-anchor="middle" x="660" y="-7" font-family="Helvetica,sans-Serif" font-size="10.00">gui/math_view.c</text>
</a>
</g>
</g>
<!-- Node10&#45;&gt;Node13 -->
<g id="edge18_Node000010_Node000013" class="edge">
<title>Node10&#45;&gt;Node13</title>
<g id="a_edge18_Node000010_Node000013"><a xlink:title=" ">
<path fill="none" stroke="#63b8ff" d="M660,-44.66C660,-35.93 660,-25.99 660,-19.09"/>
<polygon fill="#63b8ff" stroke="#63b8ff" points="656.5,-44.75 660,-54.75 663.5,-44.75 656.5,-44.75"/>
</a>
</g>
</g>
<!-- Node14 -->
<g id="Node000014" class="node">
<title>Node14</title>
<g id="a_Node000014"><a xlink:href="signal__plot_8c.html" target="_top" xlink:title="Signal Analysis Viewer — detachable multi&#45;window signal&#45;over&#45;time graphs.">
<polygon fill="white" stroke="#666666" points="476,-19 380,-19 380,0 476,0 476,-19"/>
<text text-anchor="middle" x="428" y="-7" font-family="Helvetica,sans-Serif" font-size="10.00">gui/signal_plot.c</text>
</a>
</g>
</g>
<!-- Node10&#45;&gt;Node14 -->
<g id="edge21_Node000010_Node000014" class="edge">
<title>Node10&#45;&gt;Node14</title>
<g id="a_edge21_Node000010_Node000014"><a xlink:title=" ">
<path fill="none" stroke="#63b8ff" d="M620.72,-54.53C577.41,-44.63 508.21,-28.82 465.58,-19.09"/>
<polygon fill="#63b8ff" stroke="#63b8ff" points="620.09,-57.97 630.62,-56.79 621.65,-51.15 620.09,-57.97"/>
</a>
</g>
</g>
<!-- Node10&#45;&gt;Node15 -->
<g id="edge25_Node000010_Node000015" class="edge">
<title>Node10&#45;&gt;Node15</title>
<g id="a_edge25_Node000010_Node000015"><a xlink:title=" ">
<path fill="none" stroke="#63b8ff" d="M699.19,-55.37C740.51,-46.72 807.46,-32.43 865,-19 867.84,-18.34 870.82,-17.62 873.77,-16.9"/>
<polygon fill="#63b8ff" stroke="#63b8ff" points="698.33,-51.98 689.26,-57.45 699.76,-58.83 698.33,-51.98"/>
</a>
</g>
</g>
<!-- Node16&#45;&gt;Node11 -->
<g id="edge29_Node000016_Node000011" class="edge">
<title>Node16&#45;&gt;Node11</title>
<g id="a_edge29_Node000016_Node000011"><a xlink:title=" ">
<path fill="none" stroke="#63b8ff" d="M710.55,-156.56C716.41,-148.39 723.32,-138.36 729,-129 753.2,-89.1 777.62,-38.8 787,-19.03"/>
<polygon fill="#63b8ff" stroke="#63b8ff" points="707.57,-154.71 704.51,-164.85 713.23,-158.83 707.57,-154.71"/>
</a>
</g>
</g>
<!-- Node17 -->
<g id="Node000017" class="node">
<title>Node17</title>
<g id="a_Node000017"><a xlink:href="bit__analysis_8c.html" target="_top" xlink:title="GTK&#45;independent CAN payload bit analysis engine.">
<polygon fill="white" stroke="#666666" points="567.5,-129 440.5,-129 440.5,-110 567.5,-110 567.5,-129"/>
<text text-anchor="middle" x="504" y="-117" font-family="Helvetica,sans-Serif" font-size="10.00">analysis/bit_analysis.c</text>
</a>
</g>
</g>
<!-- Node16&#45;&gt;Node17 -->
<g id="edge28_Node000016_Node000017" class="edge">
<title>Node16&#45;&gt;Node17</title>
<g id="a_edge28_Node000016_Node000017"><a xlink:title=" ">
<path fill="none" stroke="#63b8ff" d="M657.04,-162.31C620.74,-152.39 568.5,-138.12 535.41,-129.08"/>
<polygon fill="#63b8ff" stroke="#63b8ff" points="656.26,-165.73 666.83,-164.98 658.11,-158.97 656.26,-165.73"/>
</a>
</g>
</g>
<!-- Node18 -->
<g id="Node000018" class="node">
<title>Node18</title>
<g id="a_Node000018"><a xlink:href="test__bit__analysis_8c.html" target="_top" xlink:title="Focused regression tests for the Bit Analysis engine and DBC promotion.">
<polygon fill="white" stroke="#666666" points="720,-129 586,-129 586,-110 720,-110 720,-129"/>
<text text-anchor="middle" x="653" y="-117" font-family="Helvetica,sans-Serif" font-size="10.00">tests/test_bit_analysis.c</text>
</a>
</g>
</g>
<!-- Node16&#45;&gt;Node18 -->
<g id="edge30_Node000016_Node000018" class="edge">
<title>Node16&#45;&gt;Node18</title>
<g id="a_edge30_Node000016_Node000018"><a xlink:title=" ">
<path fill="none" stroke="#63b8ff" d="M683.95,-156.96C676.11,-147.72 666.67,-136.6 660.29,-129.09"/>
<polygon fill="#63b8ff" stroke="#63b8ff" points="681.43,-159.39 690.57,-164.75 686.76,-154.86 681.43,-159.39"/>
</a>
</g>
</g>
<!-- Node19&#45;&gt;Node2 -->
<g id="edge33_Node000019_Node000002" class="edge">
<title>Node19&#45;&gt;Node2</title>
<g id="a_edge33_Node000019_Node000002"><a xlink:title=" ">
<path fill="none" stroke="#63b8ff" d="M1078.5,-154.8C1072.82,-131.2 1063.28,-91.58 1059.08,-74.16"/>
<polygon fill="#63b8ff" stroke="#63b8ff" points="1075.13,-155.76 1080.87,-164.66 1081.93,-154.12 1075.13,-155.76"/>
</a>
</g>
</g>
<!-- Node19&#45;&gt;Node6 -->
<g id="edge34_Node000019_Node000006" class="edge">
<title>Node19&#45;&gt;Node6</title>
<g id="a_edge34_Node000019_Node000006"><a xlink:title=" ">
<path fill="none" stroke="#63b8ff" d="M1130.42,-162.29C1155.75,-155.05 1186.82,-144.14 1212,-129 1242.72,-110.53 1256.7,-106.87 1271,-74 1279.16,-55.23 1267.94,-31.46 1260.55,-19"/>
<polygon fill="#63b8ff" stroke="#63b8ff" points="1129.37,-158.94 1120.66,-164.97 1131.23,-165.69 1129.37,-158.94"/>
</a>
</g>
</g>
<!-- Node19&#45;&gt;Node8 -->
<g id="edge35_Node000019_Node000008" class="edge">
<title>Node19&#45;&gt;Node8</title>
<g id="a_edge35_Node000019_Node000008"><a xlink:title=" ">
<path fill="none" stroke="#63b8ff" d="M1032.16,-163.18C983.21,-153.24 910.05,-138.38 864.22,-129.07"/>
<polygon fill="#63b8ff" stroke="#63b8ff" points="1031.72,-166.66 1042.22,-165.22 1033.12,-159.8 1031.72,-166.66"/>
</a>
</g>
</g>
<!-- Node20 -->
<g id="Node000020" class="node">
<title>Node20</title>
<g id="a_Node000020"><a xlink:href="drv__can_8c.html" target="_top" xlink:title="Generic CAN driver abstraction and the SocketCAN binding.">
<polygon fill="white" stroke="#666666" points="1261.5,-74 1166.5,-74 1166.5,-55 1261.5,-55 1261.5,-74"/>
<text text-anchor="middle" x="1214" y="-62" font-family="Helvetica,sans-Serif" font-size="10.00">driver/drv_can.c</text>
</a>
</g>
</g>
<!-- Node19&#45;&gt;Node20 -->
<g id="edge32_Node000019_Node000020" class="edge">
<title>Node19&#45;&gt;Node20</title>
<g id="a_edge32_Node000019_Node000020"><a xlink:title=" ">
<path fill="none" stroke="#63b8ff" d="M1133.4,-163.05C1154.28,-156.42 1177.25,-145.81 1193,-129 1207.61,-113.41 1212.07,-87.43 1213.42,-74.04"/>
<polygon fill="#63b8ff" stroke="#63b8ff" points="1132.28,-159.73 1123.67,-165.9 1134.25,-166.44 1132.28,-159.73"/>
</a>
</g>
</g>
<!-- Node19&#45;&gt;Node21 -->
<g id="edge36_Node000019_Node000021" class="edge">
<title>Node19&#45;&gt;Node21</title>
<g id="a_edge36_Node000019_Node000021"><a xlink:title=" ">
<path fill="none" stroke="#63b8ff" d="M1099.29,-157.8C1109.04,-148.41 1121.05,-136.83 1129.09,-129.09"/>
<polygon fill="#63b8ff" stroke="#63b8ff" points="1096.85,-155.29 1092.08,-164.75 1101.71,-160.33 1096.85,-155.29"/>
</a>
</g>
</g>
<!-- Node21&#45;&gt;Node2 -->
<g id="edge38_Node000021_Node000002" class="edge">
<title>Node21&#45;&gt;Node2</title>
<g id="a_edge38_Node000021_Node000002"><a xlink:title=" ">
<path fill="none" stroke="#63b8ff" d="M1116.49,-104.42C1101.79,-94.81 1082.78,-82.37 1070.25,-74.17"/>
<polygon fill="#63b8ff" stroke="#63b8ff" points="1114.7,-107.44 1124.99,-109.98 1118.53,-101.58 1114.7,-107.44"/>
</a>
</g>
</g>
<!-- Node21&#45;&gt;Node9 -->
<g id="edge39_Node000021_Node000009" class="edge">
<title>Node21&#45;&gt;Node9</title>
<g id="a_edge39_Node000021_Node000009"><a xlink:title=" ">
<path fill="none" stroke="#63b8ff" d="M1138,-99.48C1138,-75.84 1138,-36.5 1138,-19.16"/>
<polygon fill="#63b8ff" stroke="#63b8ff" points="1134.5,-99.66 1138,-109.66 1141.5,-99.66 1134.5,-99.66"/>
</a>
</g>
</g>
<!-- Node21&#45;&gt;Node20 -->
<g id="edge37_Node000021_Node000020" class="edge">
<title>Node21&#45;&gt;Node20</title>
<g id="a_edge37_Node000021_Node000020"><a xlink:title=" ">
<path fill="none" stroke="#63b8ff" d="M1158.58,-104.15C1172.31,-94.57 1189.93,-82.29 1201.57,-74.17"/>
<polygon fill="#63b8ff" stroke="#63b8ff" points="1156.41,-101.39 1150.21,-109.98 1160.42,-107.14 1156.41,-101.39"/>
</a>
</g>
</g>
</g>
</svg>
