<?xml version="1.0" encoding="UTF-8" standalone="no"?>
<!DOCTYPE svg PUBLIC "-//W3C//DTD SVG 1.1//EN"
 "http://www.w3.org/Graphics/SVG/1.1/DTD/svg11.dtd">
<!-- Generated by graphviz version 2.43.0 (0)
 -->
<!-- Title: gui/db_creation.c Pages: 1 -->
<!--zoomable 302 -->

<svg id="main" version="1.1" xmlns="http://www.w3.org/2000/svg" xmlns:xlink="http://www.w3.org/1999/xlink" xml:space="preserve" onload="init(evt)">
<style type="text/css"><![CDATA[
.node, .edge {opacity: 0.7;}
.node.selected, .edge.selected {opacity: 1;}
.edge:hover path { stroke: red; }
.edge:hover polygon { stroke: red; fill: red; }
]]></style>

<defs>
  <circle id="rim" cx="0" cy="0" r="7"/>
  <circle id="rim2" cx="0" cy="0" r="3.5"/>
  <g id="zoomPlus">
    <use xlink:href="#rim" fill="#404040"><set attributeName="fill" to="#808080" begin="zoomplus.mouseover" end="zoomplus.mouseout"/></use>
    <path d="M-4,0h8M0,-4v8" fill="none" stroke="white" stroke-width="1.5" pointer-events="none"/>
  </g>
  <g id="zoomMin">
    <use xlink:href="#rim" fill="#404040"><set attributeName="fill" to="#808080" begin="zoomminus.mouseover" end="zoomminus.mouseout"/></use>
    <path d="M-4,0h8" fill="none" stroke="white" stroke-width="1.5" pointer-events="none"/>
  </g>
  <g id="arrowUp" transform="translate(30 24)">
    <use xlink:href="#rim"/>
    <path pointer-events="none" fill="none" stroke="white" stroke-width="1.5" d="M0,-3.0v7 M-2.5,-0.5L0,-3.0L2.5,-0.5"/>
  </g>
  <g id="arrowRight" transform="rotate(90) translate(36 -43)">
    <use xlink:href="#rim"/>
    <path pointer-events="none" fill="none" stroke="white" stroke-width="1.5" d="M0,-3.0v7 M-2.5,-0.5L0,-3.0L2.5,-0.5"/>
  </g>
  <g id="arrowDown" transform="rotate(180) translate(-30 -48)">
    <use xlink:href="#rim"/>
    <path pointer-events="none" fill="none" stroke="white" stroke-width="1.5" d="M0,-3.0v7 M-2.5,-0.5L0,-3.0L2.5,-0.5"/>
  </g>
  <g id="arrowLeft" transform="rotate(270) translate(-36 17)">
    <use xlink:href="#rim"/>
    <path pointer-events="none" fill="none" stroke="white" stroke-width="1.5" d="M0,-3.0v7 M-2.5,-0.5L0,-3.0L2.5,-0.5"/>
  </g>
  <g id="resetDef">
    <use xlink:href="#rim2" fill="#404040"><set attributeName="fill" to="#808080" begin="reset.mouseover" end="reset.mouseout"/></use>
  </g>
</defs>
<script type="application/ecmascript">
var viewWidth = 644;
var viewHeight = 302;
var sectionId = 'dynsection-0';
</script>
<script type="application/ecmascript" xlink:href="svg.min.js"/>
<svg id="graph" class="graph">
<g id="viewport">
<title>gui/db_creation.c</title>
<!-- Node1 -->
<g id="Node000001" class="node">
<title>Node1</title>
<g id="a_Node000001"><a xlink:title="DB Creation tab for building/updating DBC files from live RX rows.">
<polygon fill="#999999" stroke="#666666" points="295.5,-294 195.5,-294 195.5,-275 295.5,-275 295.5,-294"/>
<text text-anchor="middle" x="245.5" y="-282" font-family="Helvetica,sans-Serif" font-size="10.00">gui/db_creation.c</text>
</a>
</g>
</g>
<!-- Node2 -->
<g id="Node000002" class="node">
<title>Node2</title>
<g id="a_Node000002"><a xlink:title=" ">
<polygon fill="#e0e0e0" stroke="#999999" points="53,-239 0,-239 0,-220 53,-220 53,-239"/>
<text text-anchor="middle" x="26.5" y="-227" font-family="Helvetica,sans-Serif" font-size="10.00">ctype.h</text>
</a>
</g>
</g>
<!-- Node1&#45;&gt;Node2 -->
<g id="edge1_Node000001_Node000002" class="edge">
<title>Node1&#45;&gt;Node2</title>
<g id="a_edge1_Node000001_Node000002"><a xlink:title=" ">
<path fill="none" stroke="#63b8ff" d="M210.31,-274.98C169.96,-265.22 104.12,-249.29 63.16,-239.37"/>
<polygon fill="#63b8ff" stroke="#63b8ff" points="63.86,-235.94 53.32,-236.99 62.21,-242.74 63.86,-235.94"/>
</a>
</g>
</g>
<!-- Node3 -->
<g id="Node000003" class="node">
<title>Node3</title>
<g id="a_Node000003"><a xlink:title=" ">
<polygon fill="#e0e0e0" stroke="#999999" points="127.5,-239 71.5,-239 71.5,-220 127.5,-220 127.5,-239"/>
<text text-anchor="middle" x="99.5" y="-227" font-family="Helvetica,sans-Serif" font-size="10.00">stdarg.h</text>
</a>
</g>
</g>
<!-- Node1&#45;&gt;Node3 -->
<g id="edge2_Node000001_Node000003" class="edge">
<title>Node1&#45;&gt;Node3</title>
<g id="a_edge2_Node000001_Node000003"><a xlink:title=" ">
<path fill="none" stroke="#63b8ff" d="M222.04,-274.98C197.92,-266.23 160.13,-252.51 132.9,-242.62"/>
<polygon fill="#63b8ff" stroke="#63b8ff" points="133.98,-239.29 123.38,-239.17 131.59,-245.87 133.98,-239.29"/>
</a>
</g>
</g>
<!-- Node4 -->
<g id="Node000004" class="node">
<title>Node4</title>
<g id="a_Node000004"><a xlink:title=" ">
<polygon fill="#e0e0e0" stroke="#999999" points="310.5,-129 260.5,-129 260.5,-110 310.5,-110 310.5,-129"/>
<text text-anchor="middle" x="285.5" y="-117" font-family="Helvetica,sans-Serif" font-size="10.00">stdio.h</text>
</a>
</g>
</g>
<!-- Node1&#45;&gt;Node4 -->
<g id="edge3_Node000001_Node000004" class="edge">
<title>Node1&#45;&gt;Node4</title>
<g id="a_edge3_Node000001_Node000004"><a xlink:title=" ">
<path fill="none" stroke="#63b8ff" d="M220.79,-274.9C204.81,-267.91 185.22,-256.33 175.5,-239 159.4,-210.32 156.07,-192.24 174.5,-165 191.27,-140.21 224.34,-129.23 250.05,-124.37"/>
<polygon fill="#63b8ff" stroke="#63b8ff" points="250.9,-127.77 260.19,-122.68 249.75,-120.87 250.9,-127.77"/>
</a>
</g>
</g>
<!-- Node5 -->
<g id="Node000005" class="node">
<title>Node5</title>
<g id="a_Node000005"><a xlink:title=" ">
<polygon fill="#e0e0e0" stroke="#999999" points="237,-239 184,-239 184,-220 237,-220 237,-239"/>
<text text-anchor="middle" x="210.5" y="-227" font-family="Helvetica,sans-Serif" font-size="10.00">stdlib.h</text>
</a>
</g>
</g>
<!-- Node1&#45;&gt;Node5 -->
<g id="edge4_Node000001_Node000005" class="edge">
<title>Node1&#45;&gt;Node5</title>
<g id="a_edge4_Node000001_Node000005"><a xlink:title=" ">
<path fill="none" stroke="#63b8ff" d="M239.72,-274.75C234.88,-267.42 227.82,-256.73 221.86,-247.7"/>
<polygon fill="#63b8ff" stroke="#63b8ff" points="224.6,-245.5 216.17,-239.09 218.76,-249.36 224.6,-245.5"/>
</a>
</g>
</g>
<!-- Node6 -->
<g id="Node000006" class="node">
<title>Node6</title>
<g id="a_Node000006"><a xlink:title=" ">
<polygon fill="#e0e0e0" stroke="#999999" points="308,-239 255,-239 255,-220 308,-220 308,-239"/>
<text text-anchor="middle" x="281.5" y="-227" font-family="Helvetica,sans-Serif" font-size="10.00">string.h</text>
</a>
</g>
</g>
<!-- Node1&#45;&gt;Node6 -->
<g id="edge5_Node000001_Node000006" class="edge">
<title>Node1&#45;&gt;Node6</title>
<g id="a_edge5_Node000001_Node000006"><a xlink:title=" ">
<path fill="none" stroke="#63b8ff" d="M251.44,-274.75C256.48,-267.34 263.84,-256.5 270.01,-247.41"/>
<polygon fill="#63b8ff" stroke="#63b8ff" points="272.94,-249.33 275.67,-239.09 267.15,-245.39 272.94,-249.33"/>
</a>
</g>
</g>
<!-- Node7 -->
<g id="Node000007" class="node">
<title>Node7</title>
<g id="a_Node000007"><a xlink:title=" ">
<polygon fill="#e0e0e0" stroke="#999999" points="243.5,-184 183.5,-184 183.5,-165 243.5,-165 243.5,-184"/>
<text text-anchor="middle" x="213.5" y="-172" font-family="Helvetica,sans-Serif" font-size="10.00">gtk/gtk.h</text>
</a>
</g>
</g>
<!-- Node1&#45;&gt;Node7 -->
<g id="edge6_Node000001_Node000007" class="edge">
<title>Node1&#45;&gt;Node7</title>
<g id="a_edge6_Node000001_Node000007"><a xlink:title=" ">
<path fill="none" stroke="#63b8ff" d="M269.7,-274.82C296.23,-263.89 333.1,-243.65 317.5,-220 309.83,-208.37 278.72,-195.96 252.5,-187.21"/>
<polygon fill="#63b8ff" stroke="#63b8ff" points="253.35,-183.81 242.76,-184.05 251.19,-190.47 253.35,-183.81"/>
</a>
</g>
</g>
<!-- Node8 -->
<g id="Node000008" class="node">
<title>Node8</title>
<g id="a_Node000008"><a xlink:href="gui_8h.html" target="_top" xlink:title="GTK GUI widget registry and the application&#39;s GUI/thread API.">
<polygon fill="white" stroke="#666666" points="432,-239 365,-239 365,-220 432,-220 432,-239"/>
<text text-anchor="middle" x="398.5" y="-227" font-family="Helvetica,sans-Serif" font-size="10.00">../inc/gui.h</text>
</a>
</g>
</g>
<!-- Node1&#45;&gt;Node8 -->
<g id="edge7_Node000001_Node000008" class="edge">
<title>Node1&#45;&gt;Node8</title>
<g id="a_edge7_Node000001_Node000008"><a xlink:title=" ">
<path fill="none" stroke="#63b8ff" d="M270.08,-274.98C295.55,-266.16 335.54,-252.31 364.13,-242.41"/>
<polygon fill="#63b8ff" stroke="#63b8ff" points="365.42,-245.66 373.73,-239.08 363.13,-239.05 365.42,-245.66"/>
</a>
</g>
</g>
<!-- Node16 -->
<g id="Node000016" class="node">
<title>Node16</title>
<g id="a_Node000016"><a xlink:href="dbc_8h.html" target="_top" xlink:title="Minimal CAN database (DBC) model, parser, and signal decoder.">
<polygon fill="white" stroke="#666666" points="597,-184 554,-184 554,-165 597,-165 597,-184"/>
<text text-anchor="middle" x="575.5" y="-172" font-family="Helvetica,sans-Serif" font-size="10.00">dbc.h</text>
</a>
</g>
</g>
<!-- Node1&#45;&gt;Node16 -->
<g id="edge24_Node000001_Node000016" class="edge">
<title>Node1&#45;&gt;Node16</title>
<g id="a_edge24_Node000001_Node000016"><a xlink:title=" ">
<path fill="none" stroke="#63b8ff" d="M295.88,-275.21C335.98,-267.86 393.19,-255.7 441.5,-239 481.37,-225.21 525.11,-203.06 551.42,-188.9"/>
<polygon fill="#63b8ff" stroke="#63b8ff" points="553.18,-191.92 560.29,-184.07 549.83,-185.78 553.18,-191.92"/>
</a>
</g>
</g>
<!-- Node8&#45;&gt;Node7 -->
<g id="edge9_Node000008_Node000007" class="edge">
<title>Node8&#45;&gt;Node7</title>
<g id="a_edge9_Node000008_Node000007"><a xlink:title=" ">
<path fill="none" stroke="#63b8ff" d="M368.78,-219.98C337.45,-211.01 287.93,-196.82 253.26,-186.89"/>
<polygon fill="#63b8ff" stroke="#63b8ff" points="254.03,-183.47 243.46,-184.08 252.11,-190.2 254.03,-183.47"/>
</a>
</g>
</g>
<!-- Node9 -->
<g id="Node000009" class="node">
<title>Node9</title>
<g id="a_Node000009"><a xlink:title=" ">
<polygon fill="#e0e0e0" stroke="#999999" points="624.5,-129 568.5,-129 568.5,-110 624.5,-110 624.5,-129"/>
<text text-anchor="middle" x="596.5" y="-117" font-family="Helvetica,sans-Serif" font-size="10.00">stddef.h</text>
</a>
</g>
</g>
<!-- Node8&#45;&gt;Node9 -->
<g id="edge8_Node000008_Node000009" class="edge">
<title>Node8&#45;&gt;Node9</title>
<g id="a_edge8_Node000008_Node000009"><a xlink:title=" ">
<path fill="none" stroke="#63b8ff" d="M414.37,-219.84C448.85,-201.04 530.81,-156.33 571.99,-133.87"/>
<polygon fill="#63b8ff" stroke="#63b8ff" points="573.73,-136.91 580.83,-129.05 570.38,-130.76 573.73,-136.91"/>
</a>
</g>
</g>
<!-- Node10 -->
<g id="Node000010" class="node">
<title>Node10</title>
<g id="a_Node000010"><a xlink:href="can__message_8h.html" target="_top" xlink:title="Hardware&#45;independent CAN/CAN FD message and statistics data types.">
<polygon fill="white" stroke="#666666" points="414.5,-74 322.5,-74 322.5,-55 414.5,-55 414.5,-74"/>
<text text-anchor="middle" x="368.5" y="-62" font-family="Helvetica,sans-Serif" font-size="10.00">can_message.h</text>
</a>
</g>
</g>
<!-- Node8&#45;&gt;Node10 -->
<g id="edge10_Node000008_Node000010" class="edge">
<title>Node8&#45;&gt;Node10</title>
<g id="a_edge10_Node000008_Node000010"><a xlink:title=" ">
<path fill="none" stroke="#63b8ff" d="M373.04,-219.91C338.24,-206.63 277.21,-177.45 251.5,-129 235.84,-99.48 275.18,-83.05 312.4,-74.34"/>
<polygon fill="#63b8ff" stroke="#63b8ff" points="313.26,-77.74 322.29,-72.19 311.77,-70.9 313.26,-77.74"/>
</a>
</g>
</g>
<!-- Node13 -->
<g id="Node000013" class="node">
<title>Node13</title>
<g id="a_Node000013"><a xlink:href="app__state_8h.html" target="_top" xlink:title="Global application state shared across the GUI and worker threads.">
<polygon fill="white" stroke="#666666" points="435.5,-184 361.5,-184 361.5,-165 435.5,-165 435.5,-184"/>
<text text-anchor="middle" x="398.5" y="-172" font-family="Helvetica,sans-Serif" font-size="10.00">app_state.h</text>
</a>
</g>
</g>
<!-- Node8&#45;&gt;Node13 -->
<g id="edge13_Node000008_Node000013" class="edge">
<title>Node8&#45;&gt;Node13</title>
<g id="a_edge13_Node000008_Node000013"><a xlink:title=" ">
<path fill="none" stroke="#63b8ff" d="M398.5,-219.75C398.5,-212.8 398.5,-202.85 398.5,-194.13"/>
<polygon fill="#63b8ff" stroke="#63b8ff" points="402,-194.09 398.5,-184.09 395,-194.09 402,-194.09"/>
</a>
</g>
</g>
<!-- Node8&#45;&gt;Node16 -->
<g id="edge21_Node000008_Node000016" class="edge">
<title>Node8&#45;&gt;Node16</title>
<g id="a_edge21_Node000008_Node000016"><a xlink:title=" ">
<path fill="none" stroke="#63b8ff" d="M426.94,-219.98C459,-210.39 510.97,-194.82 544.17,-184.88"/>
<polygon fill="#63b8ff" stroke="#63b8ff" points="545.25,-188.21 553.83,-181.99 543.24,-181.51 545.25,-188.21"/>
</a>
</g>
</g>
<!-- Node11 -->
<g id="Node000011" class="node">
<title>Node11</title>
<g id="a_Node000011"><a xlink:title=" ">
<polygon fill="#e0e0e0" stroke="#999999" points="533,-19 480,-19 480,0 533,0 533,-19"/>
<text text-anchor="middle" x="506.5" y="-7" font-family="Helvetica,sans-Serif" font-size="10.00">stdint.h</text>
</a>
</g>
</g>
<!-- Node10&#45;&gt;Node11 -->
<g id="edge11_Node000010_Node000011" class="edge">
<title>Node10&#45;&gt;Node11</title>
<g id="a_edge11_Node000010_Node000011"><a xlink:title=" ">
<path fill="none" stroke="#63b8ff" d="M390.67,-54.98C413.27,-46.3 448.56,-32.75 474.25,-22.88"/>
<polygon fill="#63b8ff" stroke="#63b8ff" points="475.84,-26.02 483.92,-19.17 473.33,-19.49 475.84,-26.02"/>
</a>
</g>
</g>
<!-- Node12 -->
<g id="Node000012" class="node">
<title>Node12</title>
<g id="a_Node000012"><a xlink:title=" ">
<polygon fill="#e0e0e0" stroke="#999999" points="392.5,-19 344.5,-19 344.5,0 392.5,0 392.5,-19"/>
<text text-anchor="middle" x="368.5" y="-7" font-family="Helvetica,sans-Serif" font-size="10.00">time.h</text>
</a>
</g>
</g>
<!-- Node10&#45;&gt;Node12 -->
<g id="edge12_Node000010_Node000012" class="edge">
<title>Node10&#45;&gt;Node12</title>
<g id="a_edge12_Node000010_Node000012"><a xlink:title=" ">
<path fill="none" stroke="#63b8ff" d="M368.5,-54.75C368.5,-47.8 368.5,-37.85 368.5,-29.13"/>
<polygon fill="#63b8ff" stroke="#63b8ff" points="372,-29.09 368.5,-19.09 365,-29.09 372,-29.09"/>
</a>
</g>
</g>
<!-- Node13&#45;&gt;Node4 -->
<g id="edge16_Node000013_Node000004" class="edge">
<title>Node13&#45;&gt;Node4</title>
<g id="a_edge16_Node000013_Node000004"><a xlink:title=" ">
<path fill="none" stroke="#63b8ff" d="M380.34,-164.98C362.25,-156.5 334.22,-143.35 313.31,-133.54"/>
<polygon fill="#63b8ff" stroke="#63b8ff" points="314.53,-130.25 303.99,-129.17 311.55,-136.59 314.53,-130.25"/>
</a>
</g>
</g>
<!-- Node13&#45;&gt;Node10 -->
<g id="edge17_Node000013_Node000010" class="edge">
<title>Node13&#45;&gt;Node10</title>
<g id="a_edge17_Node000013_Node000010"><a xlink:title=" ">
<path fill="none" stroke="#63b8ff" d="M386.57,-164.8C376.67,-156.77 363.31,-143.87 357.5,-129 351.78,-114.34 355.66,-96.63 360.32,-83.64"/>
<polygon fill="#63b8ff" stroke="#63b8ff" points="363.72,-84.59 364.23,-74.01 357.23,-81.96 363.72,-84.59"/>
</a>
</g>
</g>
<!-- Node13&#45;&gt;Node11 -->
<g id="edge15_Node000013_Node000011" class="edge">
<title>Node13&#45;&gt;Node11</title>
<g id="a_edge15_Node000013_Node000011"><a xlink:title=" ">
<path fill="none" stroke="#63b8ff" d="M435.69,-171.07C464.36,-167.01 502.26,-156.42 521.5,-129 542.75,-98.71 527.09,-53.08 515.65,-28.21"/>
<polygon fill="#63b8ff" stroke="#63b8ff" points="518.79,-26.66 511.27,-19.2 512.5,-29.73 518.79,-26.66"/>
</a>
</g>
</g>
<!-- Node14 -->
<g id="Node000014" class="node">
<title>Node14</title>
<g id="a_Node000014"><a xlink:title=" ">
<polygon fill="#e0e0e0" stroke="#999999" points="512,-129 449,-129 449,-110 512,-110 512,-129"/>
<text text-anchor="middle" x="480.5" y="-117" font-family="Helvetica,sans-Serif" font-size="10.00">pthread.h</text>
</a>
</g>
</g>
<!-- Node13&#45;&gt;Node14 -->
<g id="edge14_Node000013_Node000014" class="edge">
<title>Node13&#45;&gt;Node14</title>
<g id="a_edge14_Node000013_Node000014"><a xlink:title=" ">
<path fill="none" stroke="#63b8ff" d="M411.67,-164.98C424.27,-156.84 443.5,-144.41 458.44,-134.76"/>
<polygon fill="#63b8ff" stroke="#63b8ff" points="460.59,-137.54 467.09,-129.17 456.79,-131.66 460.59,-137.54"/>
</a>
</g>
</g>
<!-- Node15 -->
<g id="Node000015" class="node">
<title>Node15</title>
<g id="a_Node000015"><a xlink:href="drv__can_8h.html" target="_top" xlink:title="Generic CAN driver abstraction (vtable) and thin wrapper API.">
<polygon fill="white" stroke="#666666" points="430.5,-129 366.5,-129 366.5,-110 430.5,-110 430.5,-129"/>
<text text-anchor="middle" x="398.5" y="-117" font-family="Helvetica,sans-Serif" font-size="10.00">drv_can.h</text>
</a>
</g>
</g>
<!-- Node13&#45;&gt;Node15 -->
<g id="edge18_Node000013_Node000015" class="edge">
<title>Node13&#45;&gt;Node15</title>
<g id="a_edge18_Node000013_Node000015"><a xlink:title=" ">
<path fill="none" stroke="#63b8ff" d="M398.5,-164.75C398.5,-157.8 398.5,-147.85 398.5,-139.13"/>
<polygon fill="#63b8ff" stroke="#63b8ff" points="402,-139.09 398.5,-129.09 395,-139.09 402,-139.09"/>
</a>
</g>
</g>
<!-- Node15&#45;&gt;Node10 -->
<g id="edge20_Node000015_Node000010" class="edge">
<title>Node15&#45;&gt;Node10</title>
<g id="a_edge20_Node000015_Node000010"><a xlink:title=" ">
<path fill="none" stroke="#63b8ff" d="M393.55,-109.75C389.44,-102.49 383.47,-91.95 378.4,-82.98"/>
<polygon fill="#63b8ff" stroke="#63b8ff" points="381.33,-81.07 373.36,-74.09 375.24,-84.52 381.33,-81.07"/>
</a>
</g>
</g>
<!-- Node15&#45;&gt;Node11 -->
<g id="edge19_Node000015_Node000011" class="edge">
<title>Node15&#45;&gt;Node11</title>
<g id="a_edge19_Node000015_Node000011"><a xlink:title=" ">
<path fill="none" stroke="#63b8ff" d="M407.34,-109.66C425.54,-91.46 467.45,-49.55 490.53,-26.47"/>
<polygon fill="#63b8ff" stroke="#63b8ff" points="493.25,-28.7 497.84,-19.16 488.3,-23.75 493.25,-28.7"/>
</a>
</g>
</g>
<!-- Node16&#45;&gt;Node9 -->
<g id="edge22_Node000016_Node000009" class="edge">
<title>Node16&#45;&gt;Node9</title>
<g id="a_edge22_Node000016_Node000009"><a xlink:title=" ">
<path fill="none" stroke="#63b8ff" d="M578.97,-164.75C581.78,-157.65 585.84,-147.4 589.35,-138.56"/>
<polygon fill="#63b8ff" stroke="#63b8ff" points="592.67,-139.68 593.1,-129.09 586.16,-137.1 592.67,-139.68"/>
</a>
</g>
</g>
<!-- Node16&#45;&gt;Node11 -->
<g id="edge23_Node000016_Node000011" class="edge">
<title>Node16&#45;&gt;Node11</title>
<g id="a_edge23_Node000016_Node000011"><a xlink:title=" ">
<path fill="none" stroke="#63b8ff" d="M593.77,-164.93C614.7,-153.82 644.74,-133.09 633.5,-110 613.28,-68.46 566.39,-39.15 535.6,-23.55"/>
<polygon fill="#63b8ff" stroke="#63b8ff" points="537.13,-20.4 526.61,-19.15 534.05,-26.68 537.13,-20.4"/>
</a>
</g>
</g>
</g>
</svg>

<g id="navigator" transform="translate(0 0)" fill="#404254">
  <rect fill="#f2f5e9" fill-opacity="0.5" stroke="#606060" stroke-width=".5" x="0" y="0" width="60" height="60"/>
  <use id="zoomplus" xlink:href="#zoomPlus" x="17" y="9" onmousedown="handleZoom(evt,'in')"/>
  <use id="zoomminus" xlink:href="#zoomMin" x="42" y="9" onmousedown="handleZoom(evt,'out')"/>
  <use id="reset" xlink:href="#resetDef" x="30" y="36" onmousedown="handleReset()"/>
   <use id="arrowup" xlink:href="#arrowUp" x="0" y="0" onmousedown="handlePan(0,-1)"/>
  <use id="arrowright" xlink:href="#arrowRight" x="0" y="0" onmousedown="handlePan(1,0)"/>
  <use id="arrowdown" xlink:href="#arrowDown" x="0" y="0" onmousedown="handlePan(0,1)"/>
  <use id="arrowleft" xlink:href="#arrowLeft" x="0" y="0" onmousedown="handlePan(-1,0)"/>
</g>
<svg viewBox="0 0 15 15" width="100%" height="30px" preserveAspectRatio="xMaxYMin meet">
 <g id="arrow_out" transform="scale(0.3 0.3)">
  <a xlink:href="db__creation_8c__incl_org.svg" target="_base">
   <rect id="button" ry="5" rx="5" y="6" x="6" height="38" width="38"
        fill="#f2f5e9" fill-opacity="0.5" stroke="#606060" stroke-width="1.0"/>
   <path id="arrow"
     d="M 11.500037,31.436501 C 11.940474,20.09759 22.043105,11.32322 32.158766,21.979434 L 37.068811,17.246167 C 37.068811,17.246167 37.088388,32 37.088388,32 L 22.160133,31.978069 C 22.160133,31.978069 26.997745,27.140456 26.997745,27.140456 C 18.528582,18.264221 13.291696,25.230495 11.500037,31.436501 z"
     style="fill:#404040;"/>
  </a>
 </g>
</svg>

<style type='text/css'>
<![CDATA[
[data-mouse-over-selected='false'] { opacity: 0.7; }
[data-mouse-over-selected='true']  { opacity: 1.0; }
]]>
</style>
<script type="application/ecmascript"><![CDATA[
document.addEventListener('DOMContentLoaded', (event) => {
  highlightEdges();
  highlightAdjacentNodes();
});
]]></script>
</svg>
