<?xml version="1.0" encoding="UTF-8" standalone="no"?>
<!DOCTYPE svg PUBLIC "-//W3C//DTD SVG 1.1//EN"
 "http://www.w3.org/Graphics/SVG/1.1/DTD/svg11.dtd">
<!-- Generated by graphviz version 2.43.0 (0)
 -->
<!-- Title: inc/drv_can.h Pages: 1 -->
<!--zoomable 192 -->

<svg id="main" version="1.1" xmlns="http://www.w3.org/2000/svg" xmlns:xlink="http://www.w3.org/1999/xlink" xml:space="preserve" onload="init(evt)">
<style type="text/css"><![CDATA[
.node, .edge {opacity: 0.7;}
.node.selected, .edge.selected {opacity: 1;}
.edge:hover path { stroke: red; }
.edge:hover polygon { stroke: red; fill: red; }
]]></style>

<defs>
  <circle id="rim" cx="0" cy="0" r="7"/>
  <circle id="rim2" cx="0" cy="0" r="3.5"/>
  <g id="zoomPlus">
    <use xlink:href="#rim" fill="#404040"><set attributeName="fill" to="#808080" begin="zoomplus.mouseover" end="zoomplus.mouseout"/></use>
    <path d="M-4,0h8M0,-4v8" fill="none" stroke="white" stroke-width="1.5" pointer-events="none"/>
  </g>
  <g id="zoomMin">
    <use xlink:href="#rim" fill="#404040"><set attributeName="fill" to="#808080" begin="zoomminus.mouseover" end="zoomminus.mouseout"/></use>
    <path d="M-4,0h8" fill="none" stroke="white" stroke-width="1.5" pointer-events="none"/>
  </g>
  <g id="arrowUp" transform="translate(30 24)">
    <use xlink:href="#rim"/>
    <path pointer-events="none" fill="none" stroke="white" stroke-width="1.5" d="M0,-3.0v7 M-2.5,-0.5L0,-3.0L2.5,-0.5"/>
  </g>
  <g id="arrowRight" transform="rotate(90) translate(36 -43)">
    <use xlink:href="#rim"/>
    <path pointer-events="none" fill="none" stroke="white" stroke-width="1.5" d="M0,-3.0v7 M-2.5,-0.5L0,-3.0L2.5,-0.5"/>
  </g>
  <g id="arrowDown" transform="rotate(180) translate(-30 -48)">
    <use xlink:href="#rim"/>
    <path pointer-events="none" fill="none" stroke="white" stroke-width="1.5" d="M0,-3.0v7 M-2.5,-0.5L0,-3.0L2.5,-0.5"/>
  </g>
  <g id="arrowLeft" transform="rotate(270) translate(-36 17)">
    <use xlink:href="#rim"/>
    <path pointer-events="none" fill="none" stroke="white" stroke-width="1.5" d="M0,-3.0v7 M-2.5,-0.5L0,-3.0L2.5,-0.5"/>
  </g>
  <g id="resetDef">
    <use xlink:href="#rim2" fill="#404040"><set attributeName="fill" to="#808080" begin="reset.mouseover" end="reset.mouseout"/></use>
  </g>
</defs>
<script type="application/ecmascript">
var viewWidth = 1368;
var viewHeight = 192;
var sectionId = 'dynsection-1';
</script>
<script type="application/ecmascript" xlink:href="svg.min.js"/>
<svg id="graph" class="graph">
<g id="viewport">
<title>inc/drv_can.h</title>
<!-- Node1 -->
<g id="Node000001" class="node">
<title>Node1</title>
<g id="a_Node000001"><a xlink:title="Generic CAN driver abstraction (vtable) and thin wrapper API.">
<polygon fill="#999999" stroke="#666666" points="245,-184 164,-184 164,-165 245,-165 245,-184"/>
<text text-anchor="middle" x="204.5" y="-172" font-family="Helvetica,sans-Serif" font-size="10.00">inc/drv_can.h</text>
</a>
</g>
</g>
<!-- Node2 -->
<g id="Node000002" class="node">
<title>Node2</title>
<g id="a_Node000002"><a xlink:href="drv__can_8c.html" target="_top" xlink:title="Generic CAN driver abstraction and the SocketCAN binding.">
<polygon fill="white" stroke="#666666" points="95,-74 0,-74 0,-55 95,-55 95,-74"/>
<text text-anchor="middle" x="47.5" y="-62" font-family="Helvetica,sans-Serif" font-size="10.00">driver/drv_can.c</text>
</a>
</g>
</g>
<!-- Node1&#45;&gt;Node2 -->
<g id="edge1_Node000001_Node000002" class="edge">
<title>Node1&#45;&gt;Node2</title>
<g id="a_edge1_Node000001_Node000002"><a xlink:title=" ">
<path fill="none" stroke="#63b8ff" d="M153.9,-166.63C127.13,-160.67 95.37,-149.58 73.5,-129 57.53,-113.98 51.09,-87.75 48.72,-74.18"/>
<polygon fill="#63b8ff" stroke="#63b8ff" points="153.38,-170.1 163.88,-168.68 154.78,-163.24 153.38,-170.1"/>
</a>
</g>
</g>
<!-- Node3 -->
<g id="Node000003" class="node">
<title>Node3</title>
<g id="a_Node000003"><a xlink:href="socketcan_8c.html" target="_top" xlink:title="SocketCAN back&#45;end for CANoScope (PF_CAN / SOCK_RAW).">
<polygon fill="white" stroke="#666666" points="257,-74 152,-74 152,-55 257,-55 257,-74"/>
<text text-anchor="middle" x="204.5" y="-62" font-family="Helvetica,sans-Serif" font-size="10.00">driver/socketcan.c</text>
</a>
</g>
</g>
<!-- Node1&#45;&gt;Node3 -->
<g id="edge2_Node000001_Node000003" class="edge">
<title>Node1&#45;&gt;Node3</title>
<g id="a_edge2_Node000001_Node000003"><a xlink:title=" ">
<path fill="none" stroke="#63b8ff" d="M204.5,-154.48C204.5,-130.84 204.5,-91.5 204.5,-74.16"/>
<polygon fill="#63b8ff" stroke="#63b8ff" points="201,-154.66 204.5,-164.66 208,-154.66 201,-154.66"/>
</a>
</g>
</g>
<!-- Node4 -->
<g id="Node000004" class="node">
<title>Node4</title>
<g id="a_Node000004"><a xlink:href="threads_8c.html" target="_top" xlink:title="Background worker threads, global state, and connect/disconnect logic.">
<polygon fill="white" stroke="#666666" points="280.5,-19 200.5,-19 200.5,0 280.5,0 280.5,-19"/>
<text text-anchor="middle" x="240.5" y="-7" font-family="Helvetica,sans-Serif" font-size="10.00">gui/threads.c</text>
</a>
</g>
</g>
<!-- Node1&#45;&gt;Node4 -->
<g id="edge3_Node000001_Node000004" class="edge">
<title>Node1&#45;&gt;Node4</title>
<g id="a_edge3_Node000001_Node000004"><a xlink:title=" ">
<path fill="none" stroke="#63b8ff" d="M218.5,-157.17C233.5,-138.5 256.38,-106.32 265.5,-74 271.16,-53.93 257.22,-31.44 247.96,-19.35"/>
<polygon fill="#63b8ff" stroke="#63b8ff" points="215.72,-155.04 212.05,-164.97 221.12,-159.5 215.72,-155.04"/>
</a>
</g>
</g>
<!-- Node5 -->
<g id="Node000005" class="node">
<title>Node5</title>
<g id="a_Node000005"><a xlink:href="app__state_8h.html" target="_top" xlink:title="Global application state shared across the GUI and worker threads.">
<polygon fill="white" stroke="#666666" points="752,-129 661,-129 661,-110 752,-110 752,-129"/>
<text text-anchor="middle" x="706.5" y="-117" font-family="Helvetica,sans-Serif" font-size="10.00">inc/app_state.h</text>
</a>
</g>
</g>
<!-- Node1&#45;&gt;Node5 -->
<g id="edge4_Node000001_Node000005" class="edge">
<title>Node1&#45;&gt;Node5</title>
<g id="a_edge4_Node000001_Node000005"><a xlink:title=" ">
<path fill="none" stroke="#63b8ff" d="M255.1,-168.16C353,-157.82 566.91,-135.24 660.79,-125.33"/>
<polygon fill="#63b8ff" stroke="#63b8ff" points="254.73,-164.68 245.16,-169.21 255.47,-171.64 254.73,-164.68"/>
</a>
</g>
</g>
<!-- Node17 -->
<g id="Node000017" class="node">
<title>Node17</title>
<g id="a_Node000017"><a xlink:href="socketcan_8h.html" target="_top" xlink:title="SocketCAN back&#45;end interface (Linux PF_CAN / SOCK_RAW).">
<polygon fill="white" stroke="#666666" points="174.5,-129 82.5,-129 82.5,-110 174.5,-110 174.5,-129"/>
<text text-anchor="middle" x="128.5" y="-117" font-family="Helvetica,sans-Serif" font-size="10.00">inc/socketcan.h</text>
</a>
</g>
</g>
<!-- Node1&#45;&gt;Node17 -->
<g id="edge24_Node000001_Node000017" class="edge">
<title>Node1&#45;&gt;Node17</title>
<g id="a_edge24_Node000001_Node000017"><a xlink:title=" ">
<path fill="none" stroke="#63b8ff" d="M183.92,-159.15C170.19,-149.57 152.57,-137.29 140.93,-129.17"/>
<polygon fill="#63b8ff" stroke="#63b8ff" points="182.08,-162.14 192.29,-164.98 186.09,-156.39 182.08,-162.14"/>
</a>
</g>
</g>
<!-- Node5&#45;&gt;Node4 -->
<g id="edge9_Node000005_Node000004" class="edge">
<title>Node5&#45;&gt;Node4</title>
<g id="a_edge9_Node000005_Node000004"><a xlink:title=" ">
<path fill="none" stroke="#63b8ff" d="M656.85,-107.76C616.14,-98.89 557.03,-85.88 505.5,-74 422.75,-54.93 325.76,-31.38 275.18,-19.01"/>
<polygon fill="#63b8ff" stroke="#63b8ff" points="656.28,-111.22 666.79,-109.92 657.76,-104.38 656.28,-111.22"/>
</a>
</g>
</g>
<!-- Node6 -->
<g id="Node000006" class="node">
<title>Node6</title>
<g id="a_Node000006"><a xlink:href="main__window_8c.html" target="_top" xlink:title="Main GTK3 window: menu bar, statistics bar, toolbar, trace, TX panel.">
<polygon fill="white" stroke="#666666" points="408.5,-19 298.5,-19 298.5,0 408.5,0 408.5,-19"/>
<text text-anchor="middle" x="353.5" y="-7" font-family="Helvetica,sans-Serif" font-size="10.00">gui/main_window.c</text>
</a>
</g>
</g>
<!-- Node5&#45;&gt;Node6 -->
<g id="edge5_Node000005_Node000006" class="edge">
<title>Node5&#45;&gt;Node6</title>
<g id="a_edge5_Node000005_Node000006"><a xlink:title=" ">
<path fill="none" stroke="#63b8ff" d="M668.59,-106.9C597.22,-85.07 444.45,-38.33 381.5,-19.07"/>
<polygon fill="#63b8ff" stroke="#63b8ff" points="667.92,-110.36 678.51,-109.94 669.97,-103.66 667.92,-110.36"/>
</a>
</g>
</g>
<!-- Node7 -->
<g id="Node000007" class="node">
<title>Node7</title>
<g id="a_Node000007"><a xlink:href="message__view_8c.html" target="_top" xlink:title="CAN trace GtkTreeView, value formatting, and statistics rendering.">
<polygon fill="white" stroke="#666666" points="1035,-19 920,-19 920,0 1035,0 1035,-19"/>
<text text-anchor="middle" x="977.5" y="-7" font-family="Helvetica,sans-Serif" font-size="10.00">gui/message_view.c</text>
</a>
</g>
</g>
<!-- Node5&#45;&gt;Node7 -->
<g id="edge6_Node000005_Node000007" class="edge">
<title>Node5&#45;&gt;Node7</title>
<g id="a_edge6_Node000005_Node000007"><a xlink:title=" ">
<path fill="none" stroke="#63b8ff" d="M737.56,-106.12C793.16,-83.96 908.32,-38.07 956.05,-19.05"/>
<polygon fill="#63b8ff" stroke="#63b8ff" points="736.21,-102.89 728.22,-109.84 738.8,-109.39 736.21,-102.89"/>
</a>
</g>
</g>
<!-- Node8 -->
<g id="Node000008" class="node">
<title>Node8</title>
<g id="a_Node000008"><a xlink:href="settings__dialog_8c.html" target="_top" xlink:title="Modal CAN connection&#45;settings dialog.">
<polygon fill="white" stroke="#666666" points="182,-19 65,-19 65,0 182,0 182,-19"/>
<text text-anchor="middle" x="123.5" y="-7" font-family="Helvetica,sans-Serif" font-size="10.00">gui/settings_dialog.c</text>
</a>
</g>
</g>
<!-- Node5&#45;&gt;Node8 -->
<g id="edge7_Node000005_Node000008" class="edge">
<title>Node5&#45;&gt;Node8</title>
<g id="a_edge7_Node000005_Node000008"><a xlink:title=" ">
<path fill="none" stroke="#63b8ff" d="M650.98,-110.75C593.43,-102.51 500.94,-88.65 421.5,-74 327.08,-56.58 216.75,-31.94 160.54,-19.08"/>
<polygon fill="#63b8ff" stroke="#63b8ff" points="650.56,-114.23 660.96,-112.18 651.55,-107.3 650.56,-114.23"/>
</a>
</g>
</g>
<!-- Node9 -->
<g id="Node000009" class="node">
<title>Node9</title>
<g id="a_Node000009"><a xlink:href="signal__view_8c.html" target="_top" xlink:title="Signal Analysis tab — live DBC&#45;decoded individual&#45;signal table.">
<polygon fill="white" stroke="#666666" points="1153.5,-19 1053.5,-19 1053.5,0 1153.5,0 1153.5,-19"/>
<text text-anchor="middle" x="1103.5" y="-7" font-family="Helvetica,sans-Serif" font-size="10.00">gui/signal_view.c</text>
</a>
</g>
</g>
<!-- Node5&#45;&gt;Node9 -->
<g id="edge8_Node000005_Node000009" class="edge">
<title>Node5&#45;&gt;Node9</title>
<g id="a_edge8_Node000005_Node000009"><a xlink:title=" ">
<path fill="none" stroke="#63b8ff" d="M747.67,-107.3C827.29,-85.64 1000.78,-38.44 1072.01,-19.07"/>
<polygon fill="#63b8ff" stroke="#63b8ff" points="746.71,-103.93 737.98,-109.94 748.55,-110.69 746.71,-103.93"/>
</a>
</g>
</g>
<!-- Node10 -->
<g id="Node000010" class="node">
<title>Node10</title>
<g id="a_Node000010"><a xlink:href="transmit__dialog_8c.html" target="_top" xlink:title="Advanced (&quot;Transmit...&quot;) CAN/CAN FD message composer window.">
<polygon fill="white" stroke="#666666" points="1291,-19 1172,-19 1172,0 1291,0 1291,-19"/>
<text text-anchor="middle" x="1231.5" y="-7" font-family="Helvetica,sans-Serif" font-size="10.00">gui/transmit_dialog.c</text>
</a>
</g>
</g>
<!-- Node5&#45;&gt;Node10 -->
<g id="edge10_Node000005_Node000010" class="edge">
<title>Node5&#45;&gt;Node10</title>
<g id="a_edge10_Node000005_Node000010"><a xlink:title=" ">
<path fill="none" stroke="#63b8ff" d="M758.08,-107.89C862.01,-86.51 1094.8,-38.62 1189.86,-19.07"/>
<polygon fill="#63b8ff" stroke="#63b8ff" points="757.22,-104.49 748.13,-109.94 758.63,-111.35 757.22,-104.49"/>
</a>
</g>
</g>
<!-- Node11 -->
<g id="Node000011" class="node">
<title>Node11</title>
<g id="a_Node000011"><a xlink:href="gui_8h.html" target="_top" xlink:title="GTK GUI widget registry and the application&#39;s GUI/thread API.">
<polygon fill="white" stroke="#666666" points="735.5,-74 677.5,-74 677.5,-55 735.5,-55 735.5,-74"/>
<text text-anchor="middle" x="706.5" y="-62" font-family="Helvetica,sans-Serif" font-size="10.00">inc/gui.h</text>
</a>
</g>
</g>
<!-- Node5&#45;&gt;Node11 -->
<g id="edge11_Node000005_Node000011" class="edge">
<title>Node5&#45;&gt;Node11</title>
<g id="a_edge11_Node000005_Node000011"><a xlink:title=" ">
<path fill="none" stroke="#63b8ff" d="M706.5,-99.66C706.5,-90.93 706.5,-80.99 706.5,-74.09"/>
<polygon fill="#63b8ff" stroke="#63b8ff" points="703,-99.75 706.5,-109.75 710,-99.75 703,-99.75"/>
</a>
</g>
</g>
<!-- Node16 -->
<g id="Node000016" class="node">
<title>Node16</title>
<g id="a_Node000016"><a xlink:href="main_8c.html" target="_top" xlink:title="Entry point for CANoScope — a GTK3 CAN bus monitor/analyser.">
<polygon fill="white" stroke="#666666" points="1359.5,-19 1309.5,-19 1309.5,0 1359.5,0 1359.5,-19"/>
<text text-anchor="middle" x="1334.5" y="-7" font-family="Helvetica,sans-Serif" font-size="10.00">main.c</text>
</a>
</g>
</g>
<!-- Node5&#45;&gt;Node16 -->
<g id="edge23_Node000005_Node000016" class="edge">
<title>Node5&#45;&gt;Node16</title>
<g id="a_edge23_Node000005_Node000016"><a xlink:title=" ">
<path fill="none" stroke="#63b8ff" d="M762.31,-110.76C867.91,-95.77 1103.98,-60.56 1300.5,-19 1303.36,-18.4 1306.34,-17.72 1309.3,-17.02"/>
<polygon fill="#63b8ff" stroke="#63b8ff" points="761.62,-107.33 752.21,-112.19 762.6,-114.26 761.62,-107.33"/>
</a>
</g>
</g>
<!-- Node11&#45;&gt;Node4 -->
<g id="edge20_Node000011_Node000004" class="edge">
<title>Node11&#45;&gt;Node4</title>
<g id="a_edge20_Node000011_Node000004"><a xlink:title=" ">
<path fill="none" stroke="#63b8ff" d="M667.09,-60.16C592.97,-53.69 427.81,-38.35 289.5,-19 286.59,-18.59 283.59,-18.14 280.58,-17.67"/>
<polygon fill="#63b8ff" stroke="#63b8ff" points="667.09,-63.67 677.35,-61.05 667.69,-56.7 667.09,-63.67"/>
</a>
</g>
</g>
<!-- Node11&#45;&gt;Node6 -->
<g id="edge14_Node000011_Node000006" class="edge">
<title>Node11&#45;&gt;Node6</title>
<g id="a_edge14_Node000011_Node000006"><a xlink:title=" ">
<path fill="none" stroke="#63b8ff" d="M667.39,-57.63C604.47,-48.18 480.55,-29.58 408.67,-18.78"/>
<polygon fill="#63b8ff" stroke="#63b8ff" points="666.9,-61.09 677.31,-59.12 667.94,-54.17 666.9,-61.09"/>
</a>
</g>
</g>
<!-- Node11&#45;&gt;Node7 -->
<g id="edge16_Node000011_Node000007" class="edge">
<title>Node11&#45;&gt;Node7</title>
<g id="a_edge16_Node000011_Node000007"><a xlink:title=" ">
<path fill="none" stroke="#63b8ff" d="M745.6,-55.85C795.62,-46.07 881.99,-29.18 934.02,-19"/>
<polygon fill="#63b8ff" stroke="#63b8ff" points="744.64,-52.47 735.5,-57.83 745.99,-59.34 744.64,-52.47"/>
</a>
</g>
</g>
<!-- Node11&#45;&gt;Node8 -->
<g id="edge17_Node000011_Node000008" class="edge">
<title>Node11&#45;&gt;Node8</title>
<g id="a_edge17_Node000011_Node000008"><a xlink:title=" ">
<path fill="none" stroke="#63b8ff" d="M667.31,-60.63C581.17,-54.2 368.84,-37.74 191.5,-19 188.42,-18.67 185.27,-18.33 182.09,-17.97"/>
<polygon fill="#63b8ff" stroke="#63b8ff" points="667.19,-64.13 677.42,-61.38 667.71,-57.15 667.19,-64.13"/>
</a>
</g>
</g>
<!-- Node11&#45;&gt;Node9 -->
<g id="edge19_Node000011_Node000009" class="edge">
<title>Node11&#45;&gt;Node9</title>
<g id="a_edge19_Node000011_Node000009"><a xlink:title=" ">
<path fill="none" stroke="#63b8ff" d="M746.09,-58.4C809.08,-50.25 936,-33.71 1043.5,-19 1046.73,-18.56 1050.06,-18.1 1053.41,-17.63"/>
<polygon fill="#63b8ff" stroke="#63b8ff" points="745.28,-54.97 735.81,-59.72 746.18,-61.91 745.28,-54.97"/>
</a>
</g>
</g>
<!-- Node11&#45;&gt;Node10 -->
<g id="edge21_Node000011_Node000010" class="edge">
<title>Node11&#45;&gt;Node10</title>
<g id="a_edge21_Node000011_Node000010"><a xlink:title=" ">
<path fill="none" stroke="#63b8ff" d="M745.58,-60.02C824.46,-52.93 1008.33,-36.02 1162.5,-19 1165.5,-18.67 1168.57,-18.32 1171.67,-17.96"/>
<polygon fill="#63b8ff" stroke="#63b8ff" points="745.25,-56.54 735.6,-60.92 745.87,-63.51 745.25,-56.54"/>
</a>
</g>
</g>
<!-- Node12 -->
<g id="Node000012" class="node">
<title>Node12</title>
<g id="a_Node000012"><a xlink:href="bit__analysis__view_8c.html" target="_top" xlink:title="GTK Bit Analysis tab for reverse&#45;engineering classic CAN payloads.">
<polygon fill="white" stroke="#666666" points="902,-19 773,-19 773,0 902,0 902,-19"/>
<text text-anchor="middle" x="837.5" y="-7" font-family="Helvetica,sans-Serif" font-size="10.00">gui/bit_analysis_view.c</text>
</a>
</g>
</g>
<!-- Node11&#45;&gt;Node12 -->
<g id="edge12_Node000011_Node000012" class="edge">
<title>Node11&#45;&gt;Node12</title>
<g id="a_edge12_Node000011_Node000012"><a xlink:title=" ">
<path fill="none" stroke="#63b8ff" d="M737,-51.16C761.25,-41.35 794.57,-27.87 816.07,-19.17"/>
<polygon fill="#63b8ff" stroke="#63b8ff" points="735.5,-47.99 727.55,-54.98 738.13,-54.48 735.5,-47.99"/>
</a>
</g>
</g>
<!-- Node13 -->
<g id="Node000013" class="node">
<title>Node13</title>
<g id="a_Node000013"><a xlink:href="db__creation_8c.html" target="_top" xlink:title="DB Creation tab for building/updating DBC files from live RX rows.">
<polygon fill="white" stroke="#666666" points="526.5,-19 426.5,-19 426.5,0 526.5,0 526.5,-19"/>
<text text-anchor="middle" x="476.5" y="-7" font-family="Helvetica,sans-Serif" font-size="10.00">gui/db_creation.c</text>
</a>
</g>
</g>
<!-- Node11&#45;&gt;Node13 -->
<g id="edge13_Node000011_Node000013" class="edge">
<title>Node11&#45;&gt;Node13</title>
<g id="a_edge13_Node000011_Node000013"><a xlink:title=" ">
<path fill="none" stroke="#63b8ff" d="M667.56,-54.53C624.62,-44.63 556.02,-28.82 513.76,-19.09"/>
<polygon fill="#63b8ff" stroke="#63b8ff" points="666.84,-57.95 677.37,-56.79 668.41,-51.13 666.84,-57.95"/>
</a>
</g>
</g>
<!-- Node14 -->
<g id="Node000014" class="node">
<title>Node14</title>
<g id="a_Node000014"><a xlink:href="math__view_8c.html" target="_top" xlink:title="Realtime two&#45;signal math analysis tab.">
<polygon fill="white" stroke="#666666" points="640.5,-19 544.5,-19 544.5,0 640.5,0 640.5,-19"/>
<text text-anchor="middle" x="592.5" y="-7" font-family="Helvetica,sans-Serif" font-size="10.00">gui/math_view.c</text>
</a>
</g>
</g>
<!-- Node11&#45;&gt;Node14 -->
<g id="edge15_Node000011_Node000014" class="edge">
<title>Node11&#45;&gt;Node14</title>
<g id="a_edge15_Node000011_Node000014"><a xlink:title=" ">
<path fill="none" stroke="#63b8ff" d="M679.11,-50.77C658.08,-40.99 629.61,-27.75 611.15,-19.17"/>
<polygon fill="#63b8ff" stroke="#63b8ff" points="677.64,-53.94 688.18,-54.98 680.59,-47.6 677.64,-53.94"/>
</a>
</g>
</g>
<!-- Node15 -->
<g id="Node000015" class="node">
<title>Node15</title>
<g id="a_Node000015"><a xlink:href="signal__plot_8c.html" target="_top" xlink:title="Signal Analysis Viewer — detachable multi&#45;window signal&#45;over&#45;time graphs.">
<polygon fill="white" stroke="#666666" points="754.5,-19 658.5,-19 658.5,0 754.5,0 754.5,-19"/>
<text text-anchor="middle" x="706.5" y="-7" font-family="Helvetica,sans-Serif" font-size="10.00">gui/signal_plot.c</text>
</a>
</g>
</g>
<!-- Node11&#45;&gt;Node15 -->
<g id="edge18_Node000011_Node000015" class="edge">
<title>Node11&#45;&gt;Node15</title>
<g id="a_edge18_Node000011_Node000015"><a xlink:title=" ">
<path fill="none" stroke="#63b8ff" d="M706.5,-44.66C706.5,-35.93 706.5,-25.99 706.5,-19.09"/>
<polygon fill="#63b8ff" stroke="#63b8ff" points="703,-44.75 706.5,-54.75 710,-44.75 703,-44.75"/>
</a>
</g>
</g>
<!-- Node11&#45;&gt;Node16 -->
<g id="edge22_Node000011_Node000016" class="edge">
<title>Node11&#45;&gt;Node16</title>
<g id="a_edge22_Node000011_Node000016"><a xlink:title=" ">
<path fill="none" stroke="#63b8ff" d="M745.84,-62.86C841.44,-60.81 1093.36,-52.4 1300.5,-19 1303.38,-18.54 1306.38,-17.95 1309.35,-17.29"/>
<polygon fill="#63b8ff" stroke="#63b8ff" points="745.68,-59.36 735.76,-63.07 745.82,-66.36 745.68,-59.36"/>
</a>
</g>
</g>
<!-- Node17&#45;&gt;Node2 -->
<g id="edge25_Node000017_Node000002" class="edge">
<title>Node17&#45;&gt;Node2</title>
<g id="a_edge25_Node000017_Node000002"><a xlink:title=" ">
<path fill="none" stroke="#63b8ff" d="M106.99,-104.42C92.29,-94.81 73.28,-82.37 60.75,-74.17"/>
<polygon fill="#63b8ff" stroke="#63b8ff" points="105.2,-107.44 115.49,-109.98 109.03,-101.58 105.2,-107.44"/>
</a>
</g>
</g>
<!-- Node17&#45;&gt;Node3 -->
<g id="edge26_Node000017_Node000003" class="edge">
<title>Node17&#45;&gt;Node3</title>
<g id="a_edge26_Node000017_Node000003"><a xlink:title=" ">
<path fill="none" stroke="#63b8ff" d="M149.08,-104.15C162.81,-94.57 180.43,-82.29 192.07,-74.17"/>
<polygon fill="#63b8ff" stroke="#63b8ff" points="146.91,-101.39 140.71,-109.98 150.92,-107.14 146.91,-101.39"/>
</a>
</g>
</g>
<!-- Node17&#45;&gt;Node8 -->
<g id="edge27_Node000017_Node000008" class="edge">
<title>Node17&#45;&gt;Node8</title>
<g id="a_edge27_Node000017_Node000008"><a xlink:title=" ">
<path fill="none" stroke="#63b8ff" d="M127.62,-99.48C126.53,-75.84 124.7,-36.5 123.9,-19.16"/>
<polygon fill="#63b8ff" stroke="#63b8ff" points="124.13,-99.83 128.09,-109.66 131.12,-99.51 124.13,-99.83"/>
</a>
</g>
</g>
</g>
</svg>

<g id="navigator" transform="translate(0 0)" fill="#404254">
  <rect fill="#f2f5e9" fill-opacity="0.5" stroke="#606060" stroke-width=".5" x="0" y="0" width="60" height="60"/>
  <use id="zoomplus" xlink:href="#zoomPlus" x="17" y="9" onmousedown="handleZoom(evt,'in')"/>
  <use id="zoomminus" xlink:href="#zoomMin" x="42" y="9" onmousedown="handleZoom(evt,'out')"/>
  <use id="reset" xlink:href="#resetDef" x="30" y="36" onmousedown="handleReset()"/>
   <use id="arrowup" xlink:href="#arrowUp" x="0" y="0" onmousedown="handlePan(0,-1)"/>
  <use id="arrowright" xlink:href="#arrowRight" x="0" y="0" onmousedown="handlePan(1,0)"/>
  <use id="arrowdown" xlink:href="#arrowDown" x="0" y="0" onmousedown="handlePan(0,1)"/>
  <use id="arrowleft" xlink:href="#arrowLeft" x="0" y="0" onmousedown="handlePan(-1,0)"/>
</g>
<svg viewBox="0 0 15 15" width="100%" height="30px" preserveAspectRatio="xMaxYMin meet">
 <g id="arrow_out" transform="scale(0.3 0.3)">
  <a xlink:href="drv__can_8h__dep__incl_org.svg" target="_base">
   <rect id="button" ry="5" rx="5" y="6" x="6" height="38" width="38"
        fill="#f2f5e9" fill-opacity="0.5" stroke="#606060" stroke-width="1.0"/>
   <path id="arrow"
     d="M 11.500037,31.436501 C 11.940474,20.09759 22.043105,11.32322 32.158766,21.979434 L 37.068811,17.246167 C 37.068811,17.246167 37.088388,32 37.088388,32 L 22.160133,31.978069 C 22.160133,31.978069 26.997745,27.140456 26.997745,27.140456 C 18.528582,18.264221 13.291696,25.230495 11.500037,31.436501 z"
     style="fill:#404040;"/>
  </a>
 </g>
</svg>

<style type='text/css'>
<![CDATA[
[data-mouse-over-selected='false'] { opacity: 0.7; }
[data-mouse-over-selected='true']  { opacity: 1.0; }
]]>
</style>
<script type="application/ecmascript"><![CDATA[
document.addEventListener('DOMContentLoaded', (event) => {
  highlightEdges();
  highlightAdjacentNodes();
});
]]></script>
</svg>
