<?xml version="1.0" encoding="UTF-8" standalone="no"?>
<!DOCTYPE svg PUBLIC "-//W3C//DTD SVG 1.1//EN"
 "http://www.w3.org/Graphics/SVG/1.1/DTD/svg11.dtd">
<!-- Generated by graphviz version 2.43.0 (0)
 -->
<!-- Title: inc/gui.h Pages: 1 -->
<svg width="1303pt" height="82pt"
 viewBox="0.00 0.00 1302.50 82.00" xmlns="http://www.w3.org/2000/svg" xmlns:xlink="http://www.w3.org/1999/xlink">
<g id="graph0" class="graph" transform="scale(1 1) rotate(0) translate(4 78)">
<title>inc/gui.h</title>
<!-- Node1 -->
<g id="Node000001" class="node">
<title>Node1</title>
<g id="a_Node000001"><a xlink:title="GTK GUI widget registry and the application&#39;s GUI/thread API.">
<polygon fill="#999999" stroke="#666666" points="728.5,-74 670.5,-74 670.5,-55 728.5,-55 728.5,-74"/>
<text text-anchor="middle" x="699.5" y="-62" font-family="Helvetica,sans-Serif" font-size="10.00">inc/gui.h</text>
</a>
</g>
</g>
<!-- Node2 -->
<g id="Node000002" class="node">
<title>Node2</title>
<g id="a_Node000002"><a xlink:href="bit__analysis__view_8c.html" target="_top" xlink:title="GTK Bit Analysis tab for reverse&#45;engineering classic CAN payloads.">
<polygon fill="white" stroke="#666666" points="129,-19 0,-19 0,0 129,0 129,-19"/>
<text text-anchor="middle" x="64.5" y="-7" font-family="Helvetica,sans-Serif" font-size="10.00">gui/bit_analysis_view.c</text>
</a>
</g>
</g>
<!-- Node1&#45;&gt;Node2 -->
<g id="edge1_Node000001_Node000002" class="edge">
<title>Node1&#45;&gt;Node2</title>
<g id="a_edge1_Node000001_Node000002"><a xlink:title=" ">
<path fill="none" stroke="#63b8ff" d="M660.06,-60.85C568.42,-54.59 334,-37.98 138.5,-19 135.41,-18.7 132.25,-18.38 129.06,-18.05"/>
<polygon fill="#63b8ff" stroke="#63b8ff" points="660.05,-64.36 670.27,-61.55 660.53,-57.37 660.05,-64.36"/>
</a>
</g>
</g>
<!-- Node3 -->
<g id="Node000003" class="node">
<title>Node3</title>
<g id="a_Node000003"><a xlink:href="db__creation_8c.html" target="_top" xlink:title="DB Creation tab for building/updating DBC files from live RX rows.">
<polygon fill="white" stroke="#666666" points="247.5,-19 147.5,-19 147.5,0 247.5,0 247.5,-19"/>
<text text-anchor="middle" x="197.5" y="-7" font-family="Helvetica,sans-Serif" font-size="10.00">gui/db_creation.c</text>
</a>
</g>
</g>
<!-- Node1&#45;&gt;Node3 -->
<g id="edge2_Node000001_Node000003" class="edge">
<title>Node1&#45;&gt;Node3</title>
<g id="a_edge2_Node000001_Node000003"><a xlink:title=" ">
<path fill="none" stroke="#63b8ff" d="M660.18,-60.12C582.79,-53.35 405.26,-37.18 256.5,-19 253.62,-18.65 250.67,-18.27 247.69,-17.88"/>
<polygon fill="#63b8ff" stroke="#63b8ff" points="660.16,-63.63 670.43,-61.02 660.77,-56.66 660.16,-63.63"/>
</a>
</g>
</g>
<!-- Node4 -->
<g id="Node000004" class="node">
<title>Node4</title>
<g id="a_Node000004"><a xlink:href="main__window_8c.html" target="_top" xlink:title="Main GTK3 window: menu bar, statistics bar, toolbar, trace, TX panel.">
<polygon fill="white" stroke="#666666" points="375.5,-19 265.5,-19 265.5,0 375.5,0 375.5,-19"/>
<text text-anchor="middle" x="320.5" y="-7" font-family="Helvetica,sans-Serif" font-size="10.00">gui/main_window.c</text>
</a>
</g>
</g>
<!-- Node1&#45;&gt;Node4 -->
<g id="edge3_Node000001_Node000004" class="edge">
<title>Node1&#45;&gt;Node4</title>
<g id="a_edge3_Node000001_Node000004"><a xlink:title=" ">
<path fill="none" stroke="#63b8ff" d="M660.14,-58C592.33,-48.51 453.33,-29.08 375.83,-18.24"/>
<polygon fill="#63b8ff" stroke="#63b8ff" points="660,-61.51 670.39,-59.43 660.97,-54.58 660,-61.51"/>
</a>
</g>
</g>
<!-- Node5 -->
<g id="Node000005" class="node">
<title>Node5</title>
<g id="a_Node000005"><a xlink:href="math__view_8c.html" target="_top" xlink:title="Realtime two&#45;signal math analysis tab.">
<polygon fill="white" stroke="#666666" points="489.5,-19 393.5,-19 393.5,0 489.5,0 489.5,-19"/>
<text text-anchor="middle" x="441.5" y="-7" font-family="Helvetica,sans-Serif" font-size="10.00">gui/math_view.c</text>
</a>
</g>
</g>
<!-- Node1&#45;&gt;Node5 -->
<g id="edge4_Node000001_Node000005" class="edge">
<title>Node1&#45;&gt;Node5</title>
<g id="a_edge4_Node000001_Node000005"><a xlink:title=" ">
<path fill="none" stroke="#63b8ff" d="M660.45,-55.48C612.69,-45.67 532.2,-29.13 483.25,-19.08"/>
<polygon fill="#63b8ff" stroke="#63b8ff" points="659.91,-58.94 670.41,-57.52 661.31,-52.08 659.91,-58.94"/>
</a>
</g>
</g>
<!-- Node6 -->
<g id="Node000006" class="node">
<title>Node6</title>
<g id="a_Node000006"><a xlink:href="message__view_8c.html" target="_top" xlink:title="CAN trace GtkTreeView, value formatting, and statistics rendering.">
<polygon fill="white" stroke="#666666" points="623,-19 508,-19 508,0 623,0 623,-19"/>
<text text-anchor="middle" x="565.5" y="-7" font-family="Helvetica,sans-Serif" font-size="10.00">gui/message_view.c</text>
</a>
</g>
</g>
<!-- Node1&#45;&gt;Node6 -->
<g id="edge5_Node000001_Node000006" class="edge">
<title>Node1&#45;&gt;Node6</title>
<g id="a_edge5_Node000001_Node000006"><a xlink:title=" ">
<path fill="none" stroke="#63b8ff" d="M668.63,-51.29C643.8,-41.47 609.51,-27.91 587.42,-19.17"/>
<polygon fill="#63b8ff" stroke="#63b8ff" points="667.38,-54.56 677.97,-54.98 669.96,-48.05 667.38,-54.56"/>
</a>
</g>
</g>
<!-- Node7 -->
<g id="Node000007" class="node">
<title>Node7</title>
<g id="a_Node000007"><a xlink:href="settings__dialog_8c.html" target="_top" xlink:title="Modal CAN connection&#45;settings dialog.">
<polygon fill="white" stroke="#666666" points="758,-19 641,-19 641,0 758,0 758,-19"/>
<text text-anchor="middle" x="699.5" y="-7" font-family="Helvetica,sans-Serif" font-size="10.00">gui/settings_dialog.c</text>
</a>
</g>
</g>
<!-- Node1&#45;&gt;Node7 -->
<g id="edge6_Node000001_Node000007" class="edge">
<title>Node1&#45;&gt;Node7</title>
<g id="a_edge6_Node000001_Node000007"><a xlink:title=" ">
<path fill="none" stroke="#63b8ff" d="M699.5,-44.66C699.5,-35.93 699.5,-25.99 699.5,-19.09"/>
<polygon fill="#63b8ff" stroke="#63b8ff" points="696,-44.75 699.5,-54.75 703,-44.75 696,-44.75"/>
</a>
</g>
</g>
<!-- Node8 -->
<g id="Node000008" class="node">
<title>Node8</title>
<g id="a_Node000008"><a xlink:href="signal__plot_8c.html" target="_top" xlink:title="Signal Analysis Viewer — detachable multi&#45;window signal&#45;over&#45;time graphs.">
<polygon fill="white" stroke="#666666" points="872.5,-19 776.5,-19 776.5,0 872.5,0 872.5,-19"/>
<text text-anchor="middle" x="824.5" y="-7" font-family="Helvetica,sans-Serif" font-size="10.00">gui/signal_plot.c</text>
</a>
</g>
</g>
<!-- Node1&#45;&gt;Node8 -->
<g id="edge7_Node000001_Node000008" class="edge">
<title>Node1&#45;&gt;Node8</title>
<g id="a_edge7_Node000001_Node000008"><a xlink:title=" ">
<path fill="none" stroke="#63b8ff" d="M728.91,-51.03C752.03,-41.23 783.63,-27.83 804.05,-19.17"/>
<polygon fill="#63b8ff" stroke="#63b8ff" points="727.42,-47.86 719.58,-54.98 730.16,-54.3 727.42,-47.86"/>
</a>
</g>
</g>
<!-- Node9 -->
<g id="Node000009" class="node">
<title>Node9</title>
<g id="a_Node000009"><a xlink:href="signal__view_8c.html" target="_top" xlink:title="Signal Analysis tab — live DBC&#45;decoded individual&#45;signal table.">
<polygon fill="white" stroke="#666666" points="990.5,-19 890.5,-19 890.5,0 990.5,0 990.5,-19"/>
<text text-anchor="middle" x="940.5" y="-7" font-family="Helvetica,sans-Serif" font-size="10.00">gui/signal_view.c</text>
</a>
</g>
</g>
<!-- Node1&#45;&gt;Node9 -->
<g id="edge8_Node000001_Node000009" class="edge">
<title>Node1&#45;&gt;Node9</title>
<g id="a_edge8_Node000001_Node000009"><a xlink:title=" ">
<path fill="none" stroke="#63b8ff" d="M738.53,-54.92C783.5,-45.03 856.94,-28.88 901.77,-19.02"/>
<polygon fill="#63b8ff" stroke="#63b8ff" points="737.59,-51.54 728.57,-57.11 739.09,-58.38 737.59,-51.54"/>
</a>
</g>
</g>
<!-- Node10 -->
<g id="Node000010" class="node">
<title>Node10</title>
<g id="a_Node000010"><a xlink:href="threads_8c.html" target="_top" xlink:title="Background worker threads, global state, and connect/disconnect logic.">
<polygon fill="white" stroke="#666666" points="1088.5,-19 1008.5,-19 1008.5,0 1088.5,0 1088.5,-19"/>
<text text-anchor="middle" x="1048.5" y="-7" font-family="Helvetica,sans-Serif" font-size="10.00">gui/threads.c</text>
</a>
</g>
</g>
<!-- Node1&#45;&gt;Node10 -->
<g id="edge9_Node000001_Node000010" class="edge">
<title>Node1&#45;&gt;Node10</title>
<g id="a_edge9_Node000001_Node000010"><a xlink:title=" ">
<path fill="none" stroke="#63b8ff" d="M739.02,-57.95C796.44,-49.82 906.27,-34 999.5,-19 1002.4,-18.53 1005.39,-18.04 1008.4,-17.54"/>
<polygon fill="#63b8ff" stroke="#63b8ff" points="738.33,-54.52 728.92,-59.38 739.31,-61.45 738.33,-54.52"/>
</a>
</g>
</g>
<!-- Node11 -->
<g id="Node000011" class="node">
<title>Node11</title>
<g id="a_Node000011"><a xlink:href="transmit__dialog_8c.html" target="_top" xlink:title="Advanced (&quot;Transmit...&quot;) CAN/CAN FD message composer window.">
<polygon fill="white" stroke="#666666" points="1226,-19 1107,-19 1107,0 1226,0 1226,-19"/>
<text text-anchor="middle" x="1166.5" y="-7" font-family="Helvetica,sans-Serif" font-size="10.00">gui/transmit_dialog.c</text>
</a>
</g>
</g>
<!-- Node1&#45;&gt;Node11 -->
<g id="edge10_Node000001_Node000011" class="edge">
<title>Node1&#45;&gt;Node11</title>
<g id="a_edge10_Node000001_Node000011"><a xlink:title=" ">
<path fill="none" stroke="#63b8ff" d="M739.33,-59.2C811.01,-51.42 966.47,-34.4 1097.5,-19 1100.5,-18.65 1103.57,-18.28 1106.67,-17.91"/>
<polygon fill="#63b8ff" stroke="#63b8ff" points="738.54,-55.76 728.97,-60.32 739.29,-62.72 738.54,-55.76"/>
</a>
</g>
</g>
<!-- Node12 -->
<g id="Node000012" class="node">
<title>Node12</title>
<g id="a_Node000012"><a xlink:href="main_8c.html" target="_top" xlink:title="Entry point for CANoScope — a GTK3 CAN bus monitor/analyser.">
<polygon fill="white" stroke="#666666" points="1294.5,-19 1244.5,-19 1244.5,0 1294.5,0 1294.5,-19"/>
<text text-anchor="middle" x="1269.5" y="-7" font-family="Helvetica,sans-Serif" font-size="10.00">main.c</text>
</a>
</g>
</g>
<!-- Node1&#45;&gt;Node12 -->
<g id="edge11_Node000001_Node000012" class="edge">
<title>Node1&#45;&gt;Node12</title>
<g id="a_edge11_Node000001_Node000012"><a xlink:title=" ">
<path fill="none" stroke="#63b8ff" d="M738.94,-62.41C828.02,-59.48 1051.37,-49.45 1235.5,-19 1238.38,-18.52 1241.38,-17.93 1244.34,-17.27"/>
<polygon fill="#63b8ff" stroke="#63b8ff" points="738.64,-58.92 728.76,-62.74 738.86,-65.92 738.64,-58.92"/>
</a>
</g>
</g>
</g>
</svg>
