<?xml version="1.0" encoding="UTF-8" standalone="no"?>
<!DOCTYPE svg PUBLIC "-//W3C//DTD SVG 1.1//EN"
 "http://www.w3.org/Graphics/SVG/1.1/DTD/svg11.dtd">
<!-- Generated by graphviz version 2.43.0 (0)
 -->
<!-- Title: inc/gui.h Pages: 1 -->
<svg width="431pt" height="247pt"
 viewBox="0.00 0.00 431.31 247.00" xmlns="http://www.w3.org/2000/svg" xmlns:xlink="http://www.w3.org/1999/xlink">

<svg id="main" version="1.1" xmlns="http://www.w3.org/2000/svg" xmlns:xlink="http://www.w3.org/1999/xlink" xml:space="preserve" onload="init(evt)">
<style type="text/css"><![CDATA[
.node, .edge {opacity: 0.7;}
.node.selected, .edge.selected {opacity: 1;}
.edge:hover path { stroke: red; }
.edge:hover polygon { stroke: red; fill: red; }
]]></style>
<script type="application/ecmascript" xlink:href="svg.min.js"/>
<svg id="graph" class="graph">
<g id="graph0" class="graph" transform="scale(1 1) rotate(0) translate(4 243)">
<title>inc/gui.h</title>
<!-- Node1 -->
<g id="Node000001" class="node">
<title>Node1</title>
<g id="a_Node000001"><a xlink:title="GTK GUI widget registry and the application&#39;s GUI/thread API.">
<polygon fill="#999999" stroke="#666666" points="155,-239 97,-239 97,-220 155,-220 155,-239"/>
<text text-anchor="middle" x="126" y="-227" font-family="Helvetica,sans-Serif" font-size="10.00">inc/gui.h</text>
</a>
</g>
</g>
<!-- Node2 -->
<g id="Node000002" class="node">
<title>Node2</title>
<g id="a_Node000002"><a xlink:title=" ">
<polygon fill="#e0e0e0" stroke="#999999" points="56,-129 0,-129 0,-110 56,-110 56,-129"/>
<text text-anchor="middle" x="28" y="-117" font-family="Helvetica,sans-Serif" font-size="10.00">stddef.h</text>
</a>
</g>
</g>
<!-- Node1&#45;&gt;Node2 -->
<g id="edge1_Node000001_Node000002" class="edge">
<title>Node1&#45;&gt;Node2</title>
<g id="a_edge1_Node000001_Node000002"><a xlink:title=" ">
<path fill="none" stroke="#63b8ff" d="M98.95,-219.96C81.13,-212.99 58.66,-201.42 45,-184 34.99,-171.23 30.85,-153.06 29.16,-139.42"/>
<polygon fill="#63b8ff" stroke="#63b8ff" points="32.62,-138.89 28.23,-129.25 25.65,-139.53 32.62,-138.89"/>
</a>
</g>
</g>
<!-- Node3 -->
<g id="Node000003" class="node">
<title>Node3</title>
<g id="a_Node000003"><a xlink:title=" ">
<polygon fill="#e0e0e0" stroke="#999999" points="339,-184 279,-184 279,-165 339,-165 339,-184"/>
<text text-anchor="middle" x="309" y="-172" font-family="Helvetica,sans-Serif" font-size="10.00">gtk/gtk.h</text>
</a>
</g>
</g>
<!-- Node1&#45;&gt;Node3 -->
<g id="edge2_Node000001_Node000003" class="edge">
<title>Node1&#45;&gt;Node3</title>
<g id="a_edge2_Node000001_Node000003"><a xlink:title=" ">
<path fill="none" stroke="#63b8ff" d="M155.4,-219.98C186.39,-211.01 235.38,-196.82 269.67,-186.89"/>
<polygon fill="#63b8ff" stroke="#63b8ff" points="270.74,-190.23 279.37,-184.08 268.79,-183.5 270.74,-190.23"/>
</a>
</g>
</g>
<!-- Node4 -->
<g id="Node000004" class="node">
<title>Node4</title>
<g id="a_Node000004"><a xlink:href="can__message_8h.html" target="_top" xlink:title="Hardware&#45;independent CAN/CAN FD message and statistics data types.">
<polygon fill="white" stroke="#666666" points="228,-74 136,-74 136,-55 228,-55 228,-74"/>
<text text-anchor="middle" x="182" y="-62" font-family="Helvetica,sans-Serif" font-size="10.00">can_message.h</text>
</a>
</g>
</g>
<!-- Node1&#45;&gt;Node4 -->
<g id="edge3_Node000001_Node000004" class="edge">
<title>Node1&#45;&gt;Node4</title>
<g id="a_edge3_Node000001_Node000004"><a xlink:title=" ">
<path fill="none" stroke="#63b8ff" d="M129.01,-219.74C137.82,-194.09 163.69,-118.78 175.72,-83.78"/>
<polygon fill="#63b8ff" stroke="#63b8ff" points="179.04,-84.9 178.97,-74.31 172.41,-82.63 179.04,-84.9"/>
</a>
</g>
</g>
<!-- Node7 -->
<g id="Node000007" class="node">
<title>Node7</title>
<g id="a_Node000007"><a xlink:href="app__state_8h.html" target="_top" xlink:title="Global application state shared across the GUI and worker threads.">
<polygon fill="white" stroke="#666666" points="261,-184 187,-184 187,-165 261,-165 261,-184"/>
<text text-anchor="middle" x="224" y="-172" font-family="Helvetica,sans-Serif" font-size="10.00">app_state.h</text>
</a>
</g>
</g>
<!-- Node1&#45;&gt;Node7 -->
<g id="edge6_Node000001_Node000007" class="edge">
<title>Node1&#45;&gt;Node7</title>
<g id="a_edge6_Node000001_Node000007"><a xlink:title=" ">
<path fill="none" stroke="#63b8ff" d="M141.75,-219.98C157.23,-211.61 181.09,-198.7 199.14,-188.95"/>
<polygon fill="#63b8ff" stroke="#63b8ff" points="200.84,-192.01 207.97,-184.17 197.51,-185.85 200.84,-192.01"/>
</a>
</g>
</g>
<!-- Node11 -->
<g id="Node000011" class="node">
<title>Node11</title>
<g id="a_Node000011"><a xlink:href="dbc_8h.html" target="_top" xlink:title="Minimal CAN database (DBC) model, parser, and signal decoder.">
<polygon fill="white" stroke="#666666" points="97.5,-184 54.5,-184 54.5,-165 97.5,-165 97.5,-184"/>
<text text-anchor="middle" x="76" y="-172" font-family="Helvetica,sans-Serif" font-size="10.00">dbc.h</text>
</a>
</g>
</g>
<!-- Node1&#45;&gt;Node11 -->
<g id="edge14_Node000001_Node000011" class="edge">
<title>Node1&#45;&gt;Node11</title>
<g id="a_edge14_Node000001_Node000011"><a xlink:title=" ">
<path fill="none" stroke="#63b8ff" d="M117.74,-219.75C110.54,-212.11 99.89,-200.82 91.15,-191.56"/>
<polygon fill="#63b8ff" stroke="#63b8ff" points="93.51,-188.96 84.1,-184.09 88.42,-193.76 93.51,-188.96"/>
</a>
</g>
</g>
<!-- Node5 -->
<g id="Node000005" class="node">
<title>Node5</title>
<g id="a_Node000005"><a xlink:title=" ">
<polygon fill="#e0e0e0" stroke="#999999" points="347.5,-19 294.5,-19 294.5,0 347.5,0 347.5,-19"/>
<text text-anchor="middle" x="321" y="-7" font-family="Helvetica,sans-Serif" font-size="10.00">stdint.h</text>
</a>
</g>
</g>
<!-- Node4&#45;&gt;Node5 -->
<g id="edge4_Node000004_Node000005" class="edge">
<title>Node4&#45;&gt;Node5</title>
<g id="a_edge4_Node000004_Node000005"><a xlink:title=" ">
<path fill="none" stroke="#63b8ff" d="M204.33,-54.98C227.2,-46.27 262.96,-32.63 288.86,-22.75"/>
<polygon fill="#63b8ff" stroke="#63b8ff" points="290.16,-26 298.26,-19.17 287.67,-19.46 290.16,-26"/>
</a>
</g>
</g>
<!-- Node6 -->
<g id="Node000006" class="node">
<title>Node6</title>
<g id="a_Node000006"><a xlink:title=" ">
<polygon fill="#e0e0e0" stroke="#999999" points="206,-19 158,-19 158,0 206,0 206,-19"/>
<text text-anchor="middle" x="182" y="-7" font-family="Helvetica,sans-Serif" font-size="10.00">time.h</text>
</a>
</g>
</g>
<!-- Node4&#45;&gt;Node6 -->
<g id="edge5_Node000004_Node000006" class="edge">
<title>Node4&#45;&gt;Node6</title>
<g id="a_edge5_Node000004_Node000006"><a xlink:title=" ">
<path fill="none" stroke="#63b8ff" d="M182,-54.75C182,-47.8 182,-37.85 182,-29.13"/>
<polygon fill="#63b8ff" stroke="#63b8ff" points="185.5,-29.09 182,-19.09 178.5,-29.09 185.5,-29.09"/>
</a>
</g>
</g>
<!-- Node7&#45;&gt;Node4 -->
<g id="edge10_Node000007_Node000004" class="edge">
<title>Node7&#45;&gt;Node4</title>
<g id="a_edge10_Node000007_Node000004"><a xlink:title=" ">
<path fill="none" stroke="#63b8ff" d="M212.13,-164.78C202.27,-156.74 188.92,-143.83 183,-129 177.3,-114.75 177.51,-97.22 178.88,-84.19"/>
<polygon fill="#63b8ff" stroke="#63b8ff" points="182.37,-84.48 180.27,-74.09 175.44,-83.52 182.37,-84.48"/>
</a>
</g>
</g>
<!-- Node7&#45;&gt;Node5 -->
<g id="edge8_Node000007_Node000005" class="edge">
<title>Node7&#45;&gt;Node5</title>
<g id="a_edge8_Node000007_Node000005"><a xlink:title=" ">
<path fill="none" stroke="#63b8ff" d="M261.44,-166.02C315.68,-155 410.18,-135.07 415,-129 445.1,-91.08 383.09,-46.31 346.03,-24.23"/>
<polygon fill="#63b8ff" stroke="#63b8ff" points="347.62,-21.11 337.21,-19.13 344.11,-27.17 347.62,-21.11"/>
</a>
</g>
</g>
<!-- Node8 -->
<g id="Node000008" class="node">
<title>Node8</title>
<g id="a_Node000008"><a xlink:title=" ">
<polygon fill="#e0e0e0" stroke="#999999" points="255.5,-129 192.5,-129 192.5,-110 255.5,-110 255.5,-129"/>
<text text-anchor="middle" x="224" y="-117" font-family="Helvetica,sans-Serif" font-size="10.00">pthread.h</text>
</a>
</g>
</g>
<!-- Node7&#45;&gt;Node8 -->
<g id="edge7_Node000007_Node000008" class="edge">
<title>Node7&#45;&gt;Node8</title>
<g id="a_edge7_Node000007_Node000008"><a xlink:title=" ">
<path fill="none" stroke="#63b8ff" d="M224,-164.75C224,-157.8 224,-147.85 224,-139.13"/>
<polygon fill="#63b8ff" stroke="#63b8ff" points="227.5,-139.09 224,-129.09 220.5,-139.09 227.5,-139.09"/>
</a>
</g>
</g>
<!-- Node9 -->
<g id="Node000009" class="node">
<title>Node9</title>
<g id="a_Node000009"><a xlink:title=" ">
<polygon fill="#e0e0e0" stroke="#999999" points="324,-129 274,-129 274,-110 324,-110 324,-129"/>
<text text-anchor="middle" x="299" y="-117" font-family="Helvetica,sans-Serif" font-size="10.00">stdio.h</text>
</a>
</g>
</g>
<!-- Node7&#45;&gt;Node9 -->
<g id="edge9_Node000007_Node000009" class="edge">
<title>Node7&#45;&gt;Node9</title>
<g id="a_edge9_Node000007_Node000009"><a xlink:title=" ">
<path fill="none" stroke="#63b8ff" d="M236.05,-164.98C247.46,-156.92 264.83,-144.65 278.43,-135.03"/>
<polygon fill="#63b8ff" stroke="#63b8ff" points="280.58,-137.8 286.73,-129.17 276.54,-132.08 280.58,-137.8"/>
</a>
</g>
</g>
<!-- Node10 -->
<g id="Node000010" class="node">
<title>Node10</title>
<g id="a_Node000010"><a xlink:href="drv__can_8h.html" target="_top" xlink:title="Generic CAN driver abstraction (vtable) and thin wrapper API.">
<polygon fill="white" stroke="#666666" points="406,-129 342,-129 342,-110 406,-110 406,-129"/>
<text text-anchor="middle" x="374" y="-117" font-family="Helvetica,sans-Serif" font-size="10.00">drv_can.h</text>
</a>
</g>
</g>
<!-- Node7&#45;&gt;Node10 -->
<g id="edge11_Node000007_Node000010" class="edge">
<title>Node7&#45;&gt;Node10</title>
<g id="a_edge11_Node000007_Node000010"><a xlink:title=" ">
<path fill="none" stroke="#63b8ff" d="M248.1,-164.98C272.88,-156.23 311.7,-142.51 339.69,-132.62"/>
<polygon fill="#63b8ff" stroke="#63b8ff" points="341.2,-135.8 349.46,-129.17 338.87,-129.2 341.2,-135.8"/>
</a>
</g>
</g>
<!-- Node10&#45;&gt;Node4 -->
<g id="edge13_Node000010_Node000004" class="edge">
<title>Node10&#45;&gt;Node4</title>
<g id="a_edge13_Node000010_Node000004"><a xlink:title=" ">
<path fill="none" stroke="#63b8ff" d="M343.15,-109.98C310.5,-100.97 258.8,-86.7 222.8,-76.76"/>
<polygon fill="#63b8ff" stroke="#63b8ff" points="223.66,-73.37 213.09,-74.08 221.8,-80.12 223.66,-73.37"/>
</a>
</g>
</g>
<!-- Node10&#45;&gt;Node5 -->
<g id="edge12_Node000010_Node000005" class="edge">
<title>Node10&#45;&gt;Node5</title>
<g id="a_edge12_Node000010_Node000005"><a xlink:title=" ">
<path fill="none" stroke="#63b8ff" d="M369.66,-109.66C360.96,-91.93 341.23,-51.73 329.74,-28.32"/>
<polygon fill="#63b8ff" stroke="#63b8ff" points="332.8,-26.59 325.25,-19.16 326.51,-29.68 332.8,-26.59"/>
</a>
</g>
</g>
<!-- Node11&#45;&gt;Node2 -->
<g id="edge15_Node000011_Node000002" class="edge">
<title>Node11&#45;&gt;Node2</title>
<g id="a_edge15_Node000011_Node000002"><a xlink:title=" ">
<path fill="none" stroke="#63b8ff" d="M68.07,-164.75C61.15,-157.11 50.93,-145.82 42.55,-136.56"/>
<polygon fill="#63b8ff" stroke="#63b8ff" points="45.09,-134.15 35.78,-129.09 39.9,-138.85 45.09,-134.15"/>
</a>
</g>
</g>
<!-- Node11&#45;&gt;Node5 -->
<g id="edge16_Node000011_Node000005" class="edge">
<title>Node11&#45;&gt;Node5</title>
<g id="a_edge16_Node000011_Node000005"><a xlink:title=" ">
<path fill="none" stroke="#63b8ff" d="M77.07,-164.77C80.24,-142.7 91.73,-84.4 127,-55 150.6,-35.32 235.04,-21.51 284.4,-14.91"/>
<polygon fill="#63b8ff" stroke="#63b8ff" points="284.9,-18.37 294.36,-13.61 284,-11.43 284.9,-18.37"/>
</a>
</g>
</g>
</g>
</svg>
</svg>

<style type='text/css'>
<![CDATA[
[data-mouse-over-selected='false'] { opacity: 0.7; }
[data-mouse-over-selected='true']  { opacity: 1.0; }
]]>
</style>
<script type="application/ecmascript"><![CDATA[
document.addEventListener('DOMContentLoaded', (event) => {
  highlightEdges();
  highlightAdjacentNodes();
});
]]></script>
</svg>
