<?xml version="1.0" encoding="UTF-8" standalone="no"?>
<!DOCTYPE svg PUBLIC "-//W3C//DTD SVG 1.1//EN"
 "http://www.w3.org/Graphics/SVG/1.1/DTD/svg11.dtd">
<!-- Generated by graphviz version 2.43.0 (0)
 -->
<!-- Title: gui/main_window.c Pages: 1 -->
<!--zoomable 302 -->

<svg id="main" version="1.1" xmlns="http://www.w3.org/2000/svg" xmlns:xlink="http://www.w3.org/1999/xlink" xml:space="preserve" onload="init(evt)">
<style type="text/css"><![CDATA[
.node, .edge {opacity: 0.7;}
.node.selected, .edge.selected {opacity: 1;}
.edge:hover path { stroke: red; }
.edge:hover polygon { stroke: red; fill: red; }
]]></style>

<defs>
  <circle id="rim" cx="0" cy="0" r="7"/>
  <circle id="rim2" cx="0" cy="0" r="3.5"/>
  <g id="zoomPlus">
    <use xlink:href="#rim" fill="#404040"><set attributeName="fill" to="#808080" begin="zoomplus.mouseover" end="zoomplus.mouseout"/></use>
    <path d="M-4,0h8M0,-4v8" fill="none" stroke="white" stroke-width="1.5" pointer-events="none"/>
  </g>
  <g id="zoomMin">
    <use xlink:href="#rim" fill="#404040"><set attributeName="fill" to="#808080" begin="zoomminus.mouseover" end="zoomminus.mouseout"/></use>
    <path d="M-4,0h8" fill="none" stroke="white" stroke-width="1.5" pointer-events="none"/>
  </g>
  <g id="arrowUp" transform="translate(30 24)">
    <use xlink:href="#rim"/>
    <path pointer-events="none" fill="none" stroke="white" stroke-width="1.5" d="M0,-3.0v7 M-2.5,-0.5L0,-3.0L2.5,-0.5"/>
  </g>
  <g id="arrowRight" transform="rotate(90) translate(36 -43)">
    <use xlink:href="#rim"/>
    <path pointer-events="none" fill="none" stroke="white" stroke-width="1.5" d="M0,-3.0v7 M-2.5,-0.5L0,-3.0L2.5,-0.5"/>
  </g>
  <g id="arrowDown" transform="rotate(180) translate(-30 -48)">
    <use xlink:href="#rim"/>
    <path pointer-events="none" fill="none" stroke="white" stroke-width="1.5" d="M0,-3.0v7 M-2.5,-0.5L0,-3.0L2.5,-0.5"/>
  </g>
  <g id="arrowLeft" transform="rotate(270) translate(-36 17)">
    <use xlink:href="#rim"/>
    <path pointer-events="none" fill="none" stroke="white" stroke-width="1.5" d="M0,-3.0v7 M-2.5,-0.5L0,-3.0L2.5,-0.5"/>
  </g>
  <g id="resetDef">
    <use xlink:href="#rim2" fill="#404040"><set attributeName="fill" to="#808080" begin="reset.mouseover" end="reset.mouseout"/></use>
  </g>
</defs>
<script type="application/ecmascript">
var viewWidth = 753;
var viewHeight = 302;
var sectionId = 'dynsection-0';
</script>
<script type="application/ecmascript" xlink:href="svg.min.js"/>
<svg id="graph" class="graph">
<g id="viewport">
<title>gui/main_window.c</title>
<!-- Node1 -->
<g id="Node000001" class="node">
<title>Node1</title>
<g id="a_Node000001"><a xlink:title="Main GTK3 window: menu bar, statistics bar, toolbar, trace, TX panel.">
<polygon fill="#999999" stroke="#666666" points="382.49,-294 272.49,-294 272.49,-275 382.49,-275 382.49,-294"/>
<text text-anchor="middle" x="327.49" y="-282" font-family="Helvetica,sans-Serif" font-size="10.00">gui/main_window.c</text>
</a>
</g>
</g>
<!-- Node2 -->
<g id="Node000002" class="node">
<title>Node2</title>
<g id="a_Node000002"><a xlink:title=" ">
<polygon fill="#e0e0e0" stroke="#999999" points="62.49,-129 12.49,-129 12.49,-110 62.49,-110 62.49,-129"/>
<text text-anchor="middle" x="37.49" y="-117" font-family="Helvetica,sans-Serif" font-size="10.00">stdio.h</text>
</a>
</g>
</g>
<!-- Node1&#45;&gt;Node2 -->
<g id="edge1_Node000001_Node000002" class="edge">
<title>Node1&#45;&gt;Node2</title>
<g id="a_edge1_Node000001_Node000002"><a xlink:title=" ">
<path fill="none" stroke="#63b8ff" d="M272.16,-277.52C235.91,-271.74 188.56,-260.53 151.49,-239 106.42,-212.82 67.65,-163.71 49.12,-137.69"/>
<polygon fill="#63b8ff" stroke="#63b8ff" points="51.82,-135.44 43.24,-129.24 46.08,-139.44 51.82,-135.44"/>
</a>
</g>
</g>
<!-- Node3 -->
<g id="Node000003" class="node">
<title>Node3</title>
<g id="a_Node000003"><a xlink:title=" ">
<polygon fill="#e0e0e0" stroke="#999999" points="353.99,-239 300.99,-239 300.99,-220 353.99,-220 353.99,-239"/>
<text text-anchor="middle" x="327.49" y="-227" font-family="Helvetica,sans-Serif" font-size="10.00">string.h</text>
</a>
</g>
</g>
<!-- Node1&#45;&gt;Node3 -->
<g id="edge2_Node000001_Node000003" class="edge">
<title>Node1&#45;&gt;Node3</title>
<g id="a_edge2_Node000001_Node000003"><a xlink:title=" ">
<path fill="none" stroke="#63b8ff" d="M327.49,-274.75C327.49,-267.8 327.49,-257.85 327.49,-249.13"/>
<polygon fill="#63b8ff" stroke="#63b8ff" points="330.99,-249.09 327.49,-239.09 323.99,-249.09 330.99,-249.09"/>
</a>
</g>
</g>
<!-- Node4 -->
<g id="Node000004" class="node">
<title>Node4</title>
<g id="a_Node000004"><a xlink:title=" ">
<polygon fill="#e0e0e0" stroke="#999999" points="424.99,-239 371.99,-239 371.99,-220 424.99,-220 424.99,-239"/>
<text text-anchor="middle" x="398.49" y="-227" font-family="Helvetica,sans-Serif" font-size="10.00">stdlib.h</text>
</a>
</g>
</g>
<!-- Node1&#45;&gt;Node4 -->
<g id="edge3_Node000001_Node000004" class="edge">
<title>Node1&#45;&gt;Node4</title>
<g id="a_edge3_Node000001_Node000004"><a xlink:title=" ">
<path fill="none" stroke="#63b8ff" d="M338.9,-274.98C349.6,-267 365.83,-254.88 378.65,-245.31"/>
<polygon fill="#63b8ff" stroke="#63b8ff" points="380.96,-247.96 386.88,-239.17 376.77,-242.35 380.96,-247.96"/>
</a>
</g>
</g>
<!-- Node5 -->
<g id="Node000005" class="node">
<title>Node5</title>
<g id="a_Node000005"><a xlink:title=" ">
<polygon fill="#e0e0e0" stroke="#999999" points="493.99,-239 442.99,-239 442.99,-220 493.99,-220 493.99,-239"/>
<text text-anchor="middle" x="468.49" y="-227" font-family="Helvetica,sans-Serif" font-size="10.00">errno.h</text>
</a>
</g>
</g>
<!-- Node1&#45;&gt;Node5 -->
<g id="edge4_Node000001_Node000005" class="edge">
<title>Node1&#45;&gt;Node5</title>
<g id="a_edge4_Node000001_Node000005"><a xlink:title=" ">
<path fill="none" stroke="#63b8ff" d="M350.15,-274.98C373.34,-266.27 409.61,-252.63 435.89,-242.75"/>
<polygon fill="#63b8ff" stroke="#63b8ff" points="437.3,-245.97 445.42,-239.17 434.83,-239.41 437.3,-245.97"/>
</a>
</g>
</g>
<!-- Node6 -->
<g id="Node000006" class="node">
<title>Node6</title>
<g id="a_Node000006"><a xlink:title=" ">
<polygon fill="#e0e0e0" stroke="#999999" points="564.99,-239 511.99,-239 511.99,-220 564.99,-220 564.99,-239"/>
<text text-anchor="middle" x="538.49" y="-227" font-family="Helvetica,sans-Serif" font-size="10.00">ctype.h</text>
</a>
</g>
</g>
<!-- Node1&#45;&gt;Node6 -->
<g id="edge5_Node000001_Node000006" class="edge">
<title>Node1&#45;&gt;Node6</title>
<g id="a_edge5_Node000001_Node000006"><a xlink:title=" ">
<path fill="none" stroke="#63b8ff" d="M361.39,-274.98C399.86,-265.32 462.39,-249.62 501.93,-239.68"/>
<polygon fill="#63b8ff" stroke="#63b8ff" points="502.86,-243.06 511.7,-237.23 501.15,-236.27 502.86,-243.06"/>
</a>
</g>
</g>
<!-- Node7 -->
<g id="Node000007" class="node">
<title>Node7</title>
<g id="a_Node000007"><a xlink:title=" ">
<polygon fill="#e0e0e0" stroke="#999999" points="639.49,-239 583.49,-239 583.49,-220 639.49,-220 639.49,-239"/>
<text text-anchor="middle" x="611.49" y="-227" font-family="Helvetica,sans-Serif" font-size="10.00">unistd.h</text>
</a>
</g>
</g>
<!-- Node1&#45;&gt;Node7 -->
<g id="edge6_Node000001_Node000007" class="edge">
<title>Node1&#45;&gt;Node7</title>
<g id="a_edge6_Node000001_Node000007"><a xlink:title=" ">
<path fill="none" stroke="#63b8ff" d="M379.19,-274.92C427.11,-266.81 500.61,-253.94 573.44,-239.14"/>
<polygon fill="#63b8ff" stroke="#63b8ff" points="574.14,-242.57 583.24,-237.14 572.74,-235.71 574.14,-242.57"/>
</a>
</g>
</g>
<!-- Node8 -->
<g id="Node000008" class="node">
<title>Node8</title>
<g id="a_Node000008"><a xlink:title=" ">
<polygon fill="#e0e0e0" stroke="#999999" points="398.49,-184 338.49,-184 338.49,-165 398.49,-165 398.49,-184"/>
<text text-anchor="middle" x="368.49" y="-172" font-family="Helvetica,sans-Serif" font-size="10.00">gtk/gtk.h</text>
</a>
</g>
</g>
<!-- Node1&#45;&gt;Node8 -->
<g id="edge7_Node000001_Node000008" class="edge">
<title>Node1&#45;&gt;Node8</title>
<g id="a_edge7_Node000001_Node000008"><a xlink:title=" ">
<path fill="none" stroke="#63b8ff" d="M316.62,-274.82C302.62,-262.55 281.35,-239.44 292.49,-220 300.85,-205.42 316.04,-195.16 330.66,-188.19"/>
<polygon fill="#63b8ff" stroke="#63b8ff" points="332.33,-191.28 340.1,-184.08 329.54,-184.86 332.33,-191.28"/>
</a>
</g>
</g>
<!-- Node9 -->
<g id="Node000009" class="node">
<title>Node9</title>
<g id="a_Node000009"><a xlink:href="gui_8h.html" target="_top" xlink:title="GTK GUI widget registry and the application&#39;s GUI/thread API.">
<polygon fill="white" stroke="#666666" points="243.99,-239 176.99,-239 176.99,-220 243.99,-220 243.99,-239"/>
<text text-anchor="middle" x="210.49" y="-227" font-family="Helvetica,sans-Serif" font-size="10.00">../inc/gui.h</text>
</a>
</g>
</g>
<!-- Node1&#45;&gt;Node9 -->
<g id="edge8_Node000001_Node000009" class="edge">
<title>Node1&#45;&gt;Node9</title>
<g id="a_edge8_Node000001_Node000009"><a xlink:title=" ">
<path fill="none" stroke="#63b8ff" d="M308.69,-274.98C289.87,-266.46 260.67,-253.23 238.99,-243.41"/>
<polygon fill="#63b8ff" stroke="#63b8ff" points="240.18,-240.11 229.63,-239.17 237.3,-246.48 240.18,-240.11"/>
</a>
</g>
</g>
<!-- Node11 -->
<g id="Node000011" class="node">
<title>Node11</title>
<g id="a_Node000011"><a xlink:href="can__message_8h.html" target="_top" xlink:title="Hardware&#45;independent CAN/CAN FD message and statistics data types.">
<polygon fill="white" stroke="#666666" points="256.49,-74 164.49,-74 164.49,-55 256.49,-55 256.49,-74"/>
<text text-anchor="middle" x="210.49" y="-62" font-family="Helvetica,sans-Serif" font-size="10.00">can_message.h</text>
</a>
</g>
</g>
<!-- Node1&#45;&gt;Node11 -->
<g id="edge26_Node000001_Node000011" class="edge">
<title>Node1&#45;&gt;Node11</title>
<g id="a_edge26_Node000001_Node000011"><a xlink:title=" ">
<path fill="none" stroke="#63b8ff" d="M272.45,-279.77C229.08,-274.98 168.18,-264.02 120.49,-239 57.29,-205.84 31.82,-194.51 3.49,-129 0.14,-121.25 -1.82,-116.57 3.49,-110 22.1,-86.97 99.28,-75.3 153.93,-69.81"/>
<polygon fill="#63b8ff" stroke="#63b8ff" points="154.58,-73.27 164.2,-68.83 153.91,-66.3 154.58,-73.27"/>
</a>
</g>
</g>
<!-- Node14 -->
<g id="Node000014" class="node">
<title>Node14</title>
<g id="a_Node000014"><a xlink:href="app__state_8h.html" target="_top" xlink:title="Global application state shared across the GUI and worker threads.">
<polygon fill="white" stroke="#666666" points="182.49,-184 108.49,-184 108.49,-165 182.49,-165 182.49,-184"/>
<text text-anchor="middle" x="145.49" y="-172" font-family="Helvetica,sans-Serif" font-size="10.00">app_state.h</text>
</a>
</g>
</g>
<!-- Node1&#45;&gt;Node14 -->
<g id="edge25_Node000001_Node000014" class="edge">
<title>Node1&#45;&gt;Node14</title>
<g id="a_edge25_Node000001_Node000014"><a xlink:title=" ">
<path fill="none" stroke="#63b8ff" d="M272.38,-280.56C238.58,-276.01 196.54,-265.03 168.49,-239 156.01,-227.42 150.29,-208.55 147.67,-194.38"/>
<polygon fill="#63b8ff" stroke="#63b8ff" points="151.1,-193.64 146.17,-184.26 144.18,-194.67 151.1,-193.64"/>
</a>
</g>
</g>
<!-- Node18 -->
<g id="Node000018" class="node">
<title>Node18</title>
<g id="a_Node000018"><a xlink:href="version_8h.html" target="_top" xlink:title="Centralised version and product&#45;identity macros for CANoScope.">
<polygon fill="white" stroke="#666666" points="745.49,-239 657.49,-239 657.49,-220 745.49,-220 745.49,-239"/>
<text text-anchor="middle" x="701.49" y="-227" font-family="Helvetica,sans-Serif" font-size="10.00">../inc/version.h</text>
</a>
</g>
</g>
<!-- Node1&#45;&gt;Node18 -->
<g id="edge27_Node000001_Node000018" class="edge">
<title>Node1&#45;&gt;Node18</title>
<g id="a_edge27_Node000001_Node000018"><a xlink:title=" ">
<path fill="none" stroke="#63b8ff" d="M382.64,-276.22C444.5,-267.97 548.12,-253.91 647.08,-239.19"/>
<polygon fill="#63b8ff" stroke="#63b8ff" points="647.88,-242.6 657.26,-237.67 646.85,-235.68 647.88,-242.6"/>
</a>
</g>
</g>
<!-- Node9&#45;&gt;Node8 -->
<g id="edge10_Node000009_Node000008" class="edge">
<title>Node9&#45;&gt;Node8</title>
<g id="a_edge10_Node000009_Node000008"><a xlink:title=" ">
<path fill="none" stroke="#63b8ff" d="M235.88,-219.98C262.29,-211.13 303.84,-197.19 333.39,-187.28"/>
<polygon fill="#63b8ff" stroke="#63b8ff" points="334.54,-190.58 342.91,-184.08 332.31,-183.94 334.54,-190.58"/>
</a>
</g>
</g>
<!-- Node10 -->
<g id="Node000010" class="node">
<title>Node10</title>
<g id="a_Node000010"><a xlink:title=" ">
<polygon fill="#e0e0e0" stroke="#999999" points="414.49,-129 358.49,-129 358.49,-110 414.49,-110 414.49,-129"/>
<text text-anchor="middle" x="386.49" y="-117" font-family="Helvetica,sans-Serif" font-size="10.00">stddef.h</text>
</a>
</g>
</g>
<!-- Node9&#45;&gt;Node10 -->
<g id="edge9_Node000009_Node000010" class="edge">
<title>Node9&#45;&gt;Node10</title>
<g id="a_edge9_Node000009_Node000010"><a xlink:title=" ">
<path fill="none" stroke="#63b8ff" d="M216.28,-219.91C225.74,-206.47 245.75,-180.41 268.49,-165 292.75,-148.56 323.91,-137.14 348.12,-129.99"/>
<polygon fill="#63b8ff" stroke="#63b8ff" points="349.35,-133.28 358.02,-127.19 347.45,-126.54 349.35,-133.28"/>
</a>
</g>
</g>
<!-- Node9&#45;&gt;Node11 -->
<g id="edge11_Node000009_Node000011" class="edge">
<title>Node9&#45;&gt;Node11</title>
<g id="a_edge11_Node000009_Node000011"><a xlink:title=" ">
<path fill="none" stroke="#63b8ff" d="M210.49,-219.74C210.49,-194.31 210.49,-120.08 210.49,-84.69"/>
<polygon fill="#63b8ff" stroke="#63b8ff" points="213.99,-84.31 210.49,-74.31 206.99,-84.31 213.99,-84.31"/>
</a>
</g>
</g>
<!-- Node9&#45;&gt;Node14 -->
<g id="edge14_Node000009_Node000014" class="edge">
<title>Node9&#45;&gt;Node14</title>
<g id="a_edge14_Node000009_Node000014"><a xlink:title=" ">
<path fill="none" stroke="#63b8ff" d="M200.05,-219.98C190.34,-212.07 175.68,-200.11 163.99,-190.58"/>
<polygon fill="#63b8ff" stroke="#63b8ff" points="166.09,-187.78 156.12,-184.17 161.66,-193.2 166.09,-187.78"/>
</a>
</g>
</g>
<!-- Node17 -->
<g id="Node000017" class="node">
<title>Node17</title>
<g id="a_Node000017"><a xlink:href="dbc_8h.html" target="_top" xlink:title="Minimal CAN database (DBC) model, parser, and signal decoder.">
<polygon fill="white" stroke="#666666" points="319.99,-184 276.99,-184 276.99,-165 319.99,-165 319.99,-184"/>
<text text-anchor="middle" x="298.49" y="-172" font-family="Helvetica,sans-Serif" font-size="10.00">dbc.h</text>
</a>
</g>
</g>
<!-- Node9&#45;&gt;Node17 -->
<g id="edge22_Node000009_Node000017" class="edge">
<title>Node9&#45;&gt;Node17</title>
<g id="a_edge22_Node000009_Node000017"><a xlink:title=" ">
<path fill="none" stroke="#63b8ff" d="M224.63,-219.98C238.28,-211.77 259.18,-199.18 275.27,-189.49"/>
<polygon fill="#63b8ff" stroke="#63b8ff" points="277.33,-192.33 284.1,-184.17 273.72,-186.33 277.33,-192.33"/>
</a>
</g>
</g>
<!-- Node12 -->
<g id="Node000012" class="node">
<title>Node12</title>
<g id="a_Node000012"><a xlink:title=" ">
<polygon fill="#e0e0e0" stroke="#999999" points="335.99,-19 282.99,-19 282.99,0 335.99,0 335.99,-19"/>
<text text-anchor="middle" x="309.49" y="-7" font-family="Helvetica,sans-Serif" font-size="10.00">stdint.h</text>
</a>
</g>
</g>
<!-- Node11&#45;&gt;Node12 -->
<g id="edge12_Node000011_Node000012" class="edge">
<title>Node11&#45;&gt;Node12</title>
<g id="a_edge12_Node000011_Node000012"><a xlink:title=" ">
<path fill="none" stroke="#63b8ff" d="M226.4,-54.98C242.04,-46.61 266.15,-33.7 284.38,-23.95"/>
<polygon fill="#63b8ff" stroke="#63b8ff" points="286.13,-26.98 293.3,-19.17 282.83,-20.8 286.13,-26.98"/>
</a>
</g>
</g>
<!-- Node13 -->
<g id="Node000013" class="node">
<title>Node13</title>
<g id="a_Node000013"><a xlink:title=" ">
<polygon fill="#e0e0e0" stroke="#999999" points="234.49,-19 186.49,-19 186.49,0 234.49,0 234.49,-19"/>
<text text-anchor="middle" x="210.49" y="-7" font-family="Helvetica,sans-Serif" font-size="10.00">time.h</text>
</a>
</g>
</g>
<!-- Node11&#45;&gt;Node13 -->
<g id="edge13_Node000011_Node000013" class="edge">
<title>Node11&#45;&gt;Node13</title>
<g id="a_edge13_Node000011_Node000013"><a xlink:title=" ">
<path fill="none" stroke="#63b8ff" d="M210.49,-54.75C210.49,-47.8 210.49,-37.85 210.49,-29.13"/>
<polygon fill="#63b8ff" stroke="#63b8ff" points="213.99,-29.09 210.49,-19.09 206.99,-29.09 213.99,-29.09"/>
</a>
</g>
</g>
<!-- Node14&#45;&gt;Node2 -->
<g id="edge17_Node000014_Node000002" class="edge">
<title>Node14&#45;&gt;Node2</title>
<g id="a_edge17_Node000014_Node000002"><a xlink:title=" ">
<path fill="none" stroke="#63b8ff" d="M128.14,-164.98C110.92,-156.54 84.29,-143.47 64.34,-133.68"/>
<polygon fill="#63b8ff" stroke="#63b8ff" points="65.68,-130.43 55.16,-129.17 62.59,-136.72 65.68,-130.43"/>
</a>
</g>
</g>
<!-- Node14&#45;&gt;Node11 -->
<g id="edge18_Node000014_Node000011" class="edge">
<title>Node14&#45;&gt;Node11</title>
<g id="a_edge18_Node000014_Node000011"><a xlink:title=" ">
<path fill="none" stroke="#63b8ff" d="M134.32,-164.64C119.97,-152.15 98.29,-128.79 110.49,-110 120.75,-94.2 138.06,-83.97 155.43,-77.35"/>
<polygon fill="#63b8ff" stroke="#63b8ff" points="156.72,-80.61 165.03,-74.04 154.44,-73.99 156.72,-80.61"/>
</a>
</g>
</g>
<!-- Node14&#45;&gt;Node12 -->
<g id="edge16_Node000014_Node000012" class="edge">
<title>Node14&#45;&gt;Node12</title>
<g id="a_edge16_Node000014_Node000012"><a xlink:title=" ">
<path fill="none" stroke="#63b8ff" d="M182.72,-168.79C226.71,-162.37 295.92,-149.3 311.49,-129 333.75,-99.99 324.14,-54.16 316.18,-28.83"/>
<polygon fill="#63b8ff" stroke="#63b8ff" points="319.4,-27.4 312.87,-19.06 312.77,-29.65 319.4,-27.4"/>
</a>
</g>
</g>
<!-- Node15 -->
<g id="Node000015" class="node">
<title>Node15</title>
<g id="a_Node000015"><a xlink:title=" ">
<polygon fill="#e0e0e0" stroke="#999999" points="181.99,-129 118.99,-129 118.99,-110 181.99,-110 181.99,-129"/>
<text text-anchor="middle" x="150.49" y="-117" font-family="Helvetica,sans-Serif" font-size="10.00">pthread.h</text>
</a>
</g>
</g>
<!-- Node14&#45;&gt;Node15 -->
<g id="edge15_Node000014_Node000015" class="edge">
<title>Node14&#45;&gt;Node15</title>
<g id="a_edge15_Node000014_Node000015"><a xlink:title=" ">
<path fill="none" stroke="#63b8ff" d="M146.32,-164.75C146.97,-157.8 147.91,-147.85 148.73,-139.13"/>
<polygon fill="#63b8ff" stroke="#63b8ff" points="152.23,-139.37 149.68,-129.09 145.26,-138.72 152.23,-139.37"/>
</a>
</g>
</g>
<!-- Node16 -->
<g id="Node000016" class="node">
<title>Node16</title>
<g id="a_Node000016"><a xlink:href="drv__can_8h.html" target="_top" xlink:title="Generic CAN driver abstraction (vtable) and thin wrapper API.">
<polygon fill="white" stroke="#666666" points="302.49,-129 238.49,-129 238.49,-110 302.49,-110 302.49,-129"/>
<text text-anchor="middle" x="270.49" y="-117" font-family="Helvetica,sans-Serif" font-size="10.00">drv_can.h</text>
</a>
</g>
</g>
<!-- Node14&#45;&gt;Node16 -->
<g id="edge19_Node000014_Node000016" class="edge">
<title>Node14&#45;&gt;Node16</title>
<g id="a_edge19_Node000014_Node000016"><a xlink:title=" ">
<path fill="none" stroke="#63b8ff" d="M165.57,-164.98C185.86,-156.38 217.45,-142.99 240.66,-133.15"/>
<polygon fill="#63b8ff" stroke="#63b8ff" points="242.2,-136.3 250.04,-129.17 239.47,-129.85 242.2,-136.3"/>
</a>
</g>
</g>
<!-- Node16&#45;&gt;Node11 -->
<g id="edge21_Node000016_Node000011" class="edge">
<title>Node16&#45;&gt;Node11</title>
<g id="a_edge21_Node000016_Node000011"><a xlink:title=" ">
<path fill="none" stroke="#63b8ff" d="M260.85,-109.98C251.98,-102.15 238.62,-90.34 227.88,-80.86"/>
<polygon fill="#63b8ff" stroke="#63b8ff" points="230.12,-78.17 220.31,-74.17 225.48,-83.41 230.12,-78.17"/>
</a>
</g>
</g>
<!-- Node16&#45;&gt;Node12 -->
<g id="edge20_Node000016_Node000012" class="edge">
<title>Node16&#45;&gt;Node12</title>
<g id="a_edge20_Node000016_Node000012"><a xlink:title=" ">
<path fill="none" stroke="#63b8ff" d="M273.68,-109.66C280.06,-92.01 294.47,-52.09 302.94,-28.64"/>
<polygon fill="#63b8ff" stroke="#63b8ff" points="306.26,-29.75 306.36,-19.16 299.68,-27.38 306.26,-29.75"/>
</a>
</g>
</g>
<!-- Node17&#45;&gt;Node10 -->
<g id="edge23_Node000017_Node000010" class="edge">
<title>Node17&#45;&gt;Node10</title>
<g id="a_edge23_Node000017_Node000010"><a xlink:title=" ">
<path fill="none" stroke="#63b8ff" d="M312.63,-164.98C326.28,-156.77 347.18,-144.18 363.27,-134.49"/>
<polygon fill="#63b8ff" stroke="#63b8ff" points="365.33,-137.33 372.1,-129.17 361.72,-131.33 365.33,-137.33"/>
</a>
</g>
</g>
<!-- Node17&#45;&gt;Node12 -->
<g id="edge24_Node000017_Node000012" class="edge">
<title>Node17&#45;&gt;Node12</title>
<g id="a_edge24_Node000017_Node000012"><a xlink:title=" ">
<path fill="none" stroke="#63b8ff" d="M320.03,-167.3C354.13,-157.28 417.32,-137.75 423.49,-129 453.71,-86.17 381.93,-43.82 338.93,-23.29"/>
<polygon fill="#63b8ff" stroke="#63b8ff" points="340.27,-20.05 329.72,-19.02 337.32,-26.4 340.27,-20.05"/>
</a>
</g>
</g>
</g>
</svg>

<g id="navigator" transform="translate(0 0)" fill="#404254">
  <rect fill="#f2f5e9" fill-opacity="0.5" stroke="#606060" stroke-width=".5" x="0" y="0" width="60" height="60"/>
  <use id="zoomplus" xlink:href="#zoomPlus" x="17" y="9" onmousedown="handleZoom(evt,'in')"/>
  <use id="zoomminus" xlink:href="#zoomMin" x="42" y="9" onmousedown="handleZoom(evt,'out')"/>
  <use id="reset" xlink:href="#resetDef" x="30" y="36" onmousedown="handleReset()"/>
   <use id="arrowup" xlink:href="#arrowUp" x="0" y="0" onmousedown="handlePan(0,-1)"/>
  <use id="arrowright" xlink:href="#arrowRight" x="0" y="0" onmousedown="handlePan(1,0)"/>
  <use id="arrowdown" xlink:href="#arrowDown" x="0" y="0" onmousedown="handlePan(0,1)"/>
  <use id="arrowleft" xlink:href="#arrowLeft" x="0" y="0" onmousedown="handlePan(-1,0)"/>
</g>
<svg viewBox="0 0 15 15" width="100%" height="30px" preserveAspectRatio="xMaxYMin meet">
 <g id="arrow_out" transform="scale(0.3 0.3)">
  <a xlink:href="main__window_8c__incl_org.svg" target="_base">
   <rect id="button" ry="5" rx="5" y="6" x="6" height="38" width="38"
        fill="#f2f5e9" fill-opacity="0.5" stroke="#606060" stroke-width="1.0"/>
   <path id="arrow"
     d="M 11.500037,31.436501 C 11.940474,20.09759 22.043105,11.32322 32.158766,21.979434 L 37.068811,17.246167 C 37.068811,17.246167 37.088388,32 37.088388,32 L 22.160133,31.978069 C 22.160133,31.978069 26.997745,27.140456 26.997745,27.140456 C 18.528582,18.264221 13.291696,25.230495 11.500037,31.436501 z"
     style="fill:#404040;"/>
  </a>
 </g>
</svg>

<style type='text/css'>
<![CDATA[
[data-mouse-over-selected='false'] { opacity: 0.7; }
[data-mouse-over-selected='true']  { opacity: 1.0; }
]]>
</style>
<script type="application/ecmascript"><![CDATA[
document.addEventListener('DOMContentLoaded', (event) => {
  highlightEdges();
  highlightAdjacentNodes();
});
]]></script>
</svg>
