<?xml version="1.0" encoding="UTF-8" standalone="no"?>
<!DOCTYPE svg PUBLIC "-//W3C//DTD SVG 1.1//EN"
 "http://www.w3.org/Graphics/SVG/1.1/DTD/svg11.dtd">
<!-- Generated by graphviz version 2.43.0 (0)
 -->
<!-- Title: gui/math_view.c Pages: 1 -->
<svg width="568pt" height="302pt"
 viewBox="0.00 0.00 568.09 302.00" xmlns="http://www.w3.org/2000/svg" xmlns:xlink="http://www.w3.org/1999/xlink">
<g id="graph0" class="graph" transform="scale(1 1) rotate(0) translate(4 298)">
<title>gui/math_view.c</title>
<!-- Node1 -->
<g id="Node000001" class="node">
<title>Node1</title>
<g id="a_Node000001"><a xlink:title="Realtime two&#45;signal math analysis tab.">
<polygon fill="#999999" stroke="#666666" points="253.5,-294 157.5,-294 157.5,-275 253.5,-275 253.5,-294"/>
<text text-anchor="middle" x="205.5" y="-282" font-family="Helvetica,sans-Serif" font-size="10.00">gui/math_view.c</text>
</a>
</g>
</g>
<!-- Node2 -->
<g id="Node000002" class="node">
<title>Node2</title>
<g id="a_Node000002"><a xlink:title=" ">
<polygon fill="#e0e0e0" stroke="#999999" points="51,-239 0,-239 0,-220 51,-220 51,-239"/>
<text text-anchor="middle" x="25.5" y="-227" font-family="Helvetica,sans-Serif" font-size="10.00">math.h</text>
</a>
</g>
</g>
<!-- Node1&#45;&gt;Node2 -->
<g id="edge1_Node000001_Node000002" class="edge">
<title>Node1&#45;&gt;Node2</title>
<g id="a_edge1_Node000001_Node000002"><a xlink:title=" ">
<path fill="none" stroke="#63b8ff" d="M176.58,-274.98C145.15,-265.73 94.9,-250.93 61.07,-240.97"/>
<polygon fill="#63b8ff" stroke="#63b8ff" points="61.72,-237.52 51.14,-238.05 59.75,-244.23 61.72,-237.52"/>
</a>
</g>
</g>
<!-- Node3 -->
<g id="Node000003" class="node">
<title>Node3</title>
<g id="a_Node000003"><a xlink:title=" ">
<polygon fill="#e0e0e0" stroke="#999999" points="234.5,-129 184.5,-129 184.5,-110 234.5,-110 234.5,-129"/>
<text text-anchor="middle" x="209.5" y="-117" font-family="Helvetica,sans-Serif" font-size="10.00">stdio.h</text>
</a>
</g>
</g>
<!-- Node1&#45;&gt;Node3 -->
<g id="edge2_Node000001_Node000003" class="edge">
<title>Node1&#45;&gt;Node3</title>
<g id="a_edge2_Node000001_Node000003"><a xlink:title=" ">
<path fill="none" stroke="#63b8ff" d="M157.27,-275.48C135.87,-269.28 112.6,-258.33 99.5,-239 81.04,-211.77 80.07,-192.24 98.5,-165 115.27,-140.21 148.34,-129.23 174.05,-124.37"/>
<polygon fill="#63b8ff" stroke="#63b8ff" points="174.9,-127.77 184.19,-122.68 173.75,-120.87 174.9,-127.77"/>
</a>
</g>
</g>
<!-- Node4 -->
<g id="Node000004" class="node">
<title>Node4</title>
<g id="a_Node000004"><a xlink:title=" ">
<polygon fill="#e0e0e0" stroke="#999999" points="161,-239 108,-239 108,-220 161,-220 161,-239"/>
<text text-anchor="middle" x="134.5" y="-227" font-family="Helvetica,sans-Serif" font-size="10.00">stdlib.h</text>
</a>
</g>
</g>
<!-- Node1&#45;&gt;Node4 -->
<g id="edge3_Node000001_Node000004" class="edge">
<title>Node1&#45;&gt;Node4</title>
<g id="a_edge3_Node000001_Node000004"><a xlink:title=" ">
<path fill="none" stroke="#63b8ff" d="M194.09,-274.98C183.39,-267 167.16,-254.88 154.34,-245.31"/>
<polygon fill="#63b8ff" stroke="#63b8ff" points="156.22,-242.35 146.11,-239.17 152.03,-247.96 156.22,-242.35"/>
</a>
</g>
</g>
<!-- Node5 -->
<g id="Node000005" class="node">
<title>Node5</title>
<g id="a_Node000005"><a xlink:title=" ">
<polygon fill="#e0e0e0" stroke="#999999" points="232,-239 179,-239 179,-220 232,-220 232,-239"/>
<text text-anchor="middle" x="205.5" y="-227" font-family="Helvetica,sans-Serif" font-size="10.00">string.h</text>
</a>
</g>
</g>
<!-- Node1&#45;&gt;Node5 -->
<g id="edge4_Node000001_Node000005" class="edge">
<title>Node1&#45;&gt;Node5</title>
<g id="a_edge4_Node000001_Node000005"><a xlink:title=" ">
<path fill="none" stroke="#63b8ff" d="M205.5,-274.75C205.5,-267.8 205.5,-257.85 205.5,-249.13"/>
<polygon fill="#63b8ff" stroke="#63b8ff" points="209,-249.09 205.5,-239.09 202,-249.09 209,-249.09"/>
</a>
</g>
</g>
<!-- Node6 -->
<g id="Node000006" class="node">
<title>Node6</title>
<g id="a_Node000006"><a xlink:title=" ">
<polygon fill="#e0e0e0" stroke="#999999" points="167.5,-184 107.5,-184 107.5,-165 167.5,-165 167.5,-184"/>
<text text-anchor="middle" x="137.5" y="-172" font-family="Helvetica,sans-Serif" font-size="10.00">gtk/gtk.h</text>
</a>
</g>
</g>
<!-- Node1&#45;&gt;Node6 -->
<g id="edge5_Node000001_Node000006" class="edge">
<title>Node1&#45;&gt;Node6</title>
<g id="a_edge5_Node000001_Node000006"><a xlink:title=" ">
<path fill="none" stroke="#63b8ff" d="M216.95,-274.65C231.67,-262.17 253.92,-238.83 241.5,-220 233.83,-208.37 202.72,-195.96 176.5,-187.21"/>
<polygon fill="#63b8ff" stroke="#63b8ff" points="177.35,-183.81 166.76,-184.05 175.19,-190.47 177.35,-183.81"/>
</a>
</g>
</g>
<!-- Node7 -->
<g id="Node000007" class="node">
<title>Node7</title>
<g id="a_Node000007"><a xlink:href="gui_8h.html" target="_top" xlink:title="GTK GUI widget registry and the application&#39;s GUI/thread API.">
<polygon fill="white" stroke="#666666" points="356,-239 289,-239 289,-220 356,-220 356,-239"/>
<text text-anchor="middle" x="322.5" y="-227" font-family="Helvetica,sans-Serif" font-size="10.00">../inc/gui.h</text>
</a>
</g>
</g>
<!-- Node1&#45;&gt;Node7 -->
<g id="edge6_Node000001_Node000007" class="edge">
<title>Node1&#45;&gt;Node7</title>
<g id="a_edge6_Node000001_Node000007"><a xlink:title=" ">
<path fill="none" stroke="#63b8ff" d="M224.3,-274.98C243.12,-266.46 272.32,-253.23 294,-243.41"/>
<polygon fill="#63b8ff" stroke="#63b8ff" points="295.7,-246.48 303.36,-239.17 292.81,-240.11 295.7,-246.48"/>
</a>
</g>
</g>
<!-- Node15 -->
<g id="Node000015" class="node">
<title>Node15</title>
<g id="a_Node000015"><a xlink:href="dbc_8h.html" target="_top" xlink:title="Minimal CAN database (DBC) model, parser, and signal decoder.">
<polygon fill="white" stroke="#666666" points="521,-184 478,-184 478,-165 521,-165 521,-184"/>
<text text-anchor="middle" x="499.5" y="-172" font-family="Helvetica,sans-Serif" font-size="10.00">dbc.h</text>
</a>
</g>
</g>
<!-- Node1&#45;&gt;Node15 -->
<g id="edge23_Node000001_Node000015" class="edge">
<title>Node1&#45;&gt;Node15</title>
<g id="a_edge23_Node000001_Node000015"><a xlink:title=" ">
<path fill="none" stroke="#63b8ff" d="M243.26,-274.94C276.05,-267.04 324.57,-254.26 365.5,-239 404.81,-224.34 448.38,-202.61 474.85,-188.75"/>
<polygon fill="#63b8ff" stroke="#63b8ff" points="476.59,-191.8 483.79,-184.03 473.32,-185.61 476.59,-191.8"/>
</a>
</g>
</g>
<!-- Node7&#45;&gt;Node6 -->
<g id="edge8_Node000007_Node000006" class="edge">
<title>Node7&#45;&gt;Node6</title>
<g id="a_edge8_Node000007_Node000006"><a xlink:title=" ">
<path fill="none" stroke="#63b8ff" d="M292.78,-219.98C261.45,-211.01 211.93,-196.82 177.26,-186.89"/>
<polygon fill="#63b8ff" stroke="#63b8ff" points="178.03,-183.47 167.46,-184.08 176.11,-190.2 178.03,-183.47"/>
</a>
</g>
</g>
<!-- Node8 -->
<g id="Node000008" class="node">
<title>Node8</title>
<g id="a_Node000008"><a xlink:title=" ">
<polygon fill="#e0e0e0" stroke="#999999" points="548.5,-129 492.5,-129 492.5,-110 548.5,-110 548.5,-129"/>
<text text-anchor="middle" x="520.5" y="-117" font-family="Helvetica,sans-Serif" font-size="10.00">stddef.h</text>
</a>
</g>
</g>
<!-- Node7&#45;&gt;Node8 -->
<g id="edge7_Node000007_Node000008" class="edge">
<title>Node7&#45;&gt;Node8</title>
<g id="a_edge7_Node000007_Node000008"><a xlink:title=" ">
<path fill="none" stroke="#63b8ff" d="M338.37,-219.84C372.85,-201.04 454.81,-156.33 495.99,-133.87"/>
<polygon fill="#63b8ff" stroke="#63b8ff" points="497.73,-136.91 504.83,-129.05 494.38,-130.76 497.73,-136.91"/>
</a>
</g>
</g>
<!-- Node9 -->
<g id="Node000009" class="node">
<title>Node9</title>
<g id="a_Node000009"><a xlink:href="can__message_8h.html" target="_top" xlink:title="Hardware&#45;independent CAN/CAN FD message and statistics data types.">
<polygon fill="white" stroke="#666666" points="338.5,-74 246.5,-74 246.5,-55 338.5,-55 338.5,-74"/>
<text text-anchor="middle" x="292.5" y="-62" font-family="Helvetica,sans-Serif" font-size="10.00">can_message.h</text>
</a>
</g>
</g>
<!-- Node7&#45;&gt;Node9 -->
<g id="edge9_Node000007_Node000009" class="edge">
<title>Node7&#45;&gt;Node9</title>
<g id="a_edge9_Node000007_Node000009"><a xlink:title=" ">
<path fill="none" stroke="#63b8ff" d="M297.04,-219.91C262.24,-206.63 201.21,-177.45 175.5,-129 159.84,-99.48 199.18,-83.05 236.4,-74.34"/>
<polygon fill="#63b8ff" stroke="#63b8ff" points="237.26,-77.74 246.29,-72.19 235.77,-70.9 237.26,-77.74"/>
</a>
</g>
</g>
<!-- Node12 -->
<g id="Node000012" class="node">
<title>Node12</title>
<g id="a_Node000012"><a xlink:href="app__state_8h.html" target="_top" xlink:title="Global application state shared across the GUI and worker threads.">
<polygon fill="white" stroke="#666666" points="359.5,-184 285.5,-184 285.5,-165 359.5,-165 359.5,-184"/>
<text text-anchor="middle" x="322.5" y="-172" font-family="Helvetica,sans-Serif" font-size="10.00">app_state.h</text>
</a>
</g>
</g>
<!-- Node7&#45;&gt;Node12 -->
<g id="edge12_Node000007_Node000012" class="edge">
<title>Node7&#45;&gt;Node12</title>
<g id="a_edge12_Node000007_Node000012"><a xlink:title=" ">
<path fill="none" stroke="#63b8ff" d="M322.5,-219.75C322.5,-212.8 322.5,-202.85 322.5,-194.13"/>
<polygon fill="#63b8ff" stroke="#63b8ff" points="326,-194.09 322.5,-184.09 319,-194.09 326,-194.09"/>
</a>
</g>
</g>
<!-- Node7&#45;&gt;Node15 -->
<g id="edge20_Node000007_Node000015" class="edge">
<title>Node7&#45;&gt;Node15</title>
<g id="a_edge20_Node000007_Node000015"><a xlink:title=" ">
<path fill="none" stroke="#63b8ff" d="M350.94,-219.98C383,-210.39 434.97,-194.82 468.17,-184.88"/>
<polygon fill="#63b8ff" stroke="#63b8ff" points="469.25,-188.21 477.83,-181.99 467.24,-181.51 469.25,-188.21"/>
</a>
</g>
</g>
<!-- Node10 -->
<g id="Node000010" class="node">
<title>Node10</title>
<g id="a_Node000010"><a xlink:title=" ">
<polygon fill="#e0e0e0" stroke="#999999" points="457,-19 404,-19 404,0 457,0 457,-19"/>
<text text-anchor="middle" x="430.5" y="-7" font-family="Helvetica,sans-Serif" font-size="10.00">stdint.h</text>
</a>
</g>
</g>
<!-- Node9&#45;&gt;Node10 -->
<g id="edge10_Node000009_Node000010" class="edge">
<title>Node9&#45;&gt;Node10</title>
<g id="a_edge10_Node000009_Node000010"><a xlink:title=" ">
<path fill="none" stroke="#63b8ff" d="M314.67,-54.98C337.27,-46.3 372.56,-32.75 398.25,-22.88"/>
<polygon fill="#63b8ff" stroke="#63b8ff" points="399.84,-26.02 407.92,-19.17 397.33,-19.49 399.84,-26.02"/>
</a>
</g>
</g>
<!-- Node11 -->
<g id="Node000011" class="node">
<title>Node11</title>
<g id="a_Node000011"><a xlink:title=" ">
<polygon fill="#e0e0e0" stroke="#999999" points="316.5,-19 268.5,-19 268.5,0 316.5,0 316.5,-19"/>
<text text-anchor="middle" x="292.5" y="-7" font-family="Helvetica,sans-Serif" font-size="10.00">time.h</text>
</a>
</g>
</g>
<!-- Node9&#45;&gt;Node11 -->
<g id="edge11_Node000009_Node000011" class="edge">
<title>Node9&#45;&gt;Node11</title>
<g id="a_edge11_Node000009_Node000011"><a xlink:title=" ">
<path fill="none" stroke="#63b8ff" d="M292.5,-54.75C292.5,-47.8 292.5,-37.85 292.5,-29.13"/>
<polygon fill="#63b8ff" stroke="#63b8ff" points="296,-29.09 292.5,-19.09 289,-29.09 296,-29.09"/>
</a>
</g>
</g>
<!-- Node12&#45;&gt;Node3 -->
<g id="edge15_Node000012_Node000003" class="edge">
<title>Node12&#45;&gt;Node3</title>
<g id="a_edge15_Node000012_Node000003"><a xlink:title=" ">
<path fill="none" stroke="#63b8ff" d="M304.34,-164.98C286.25,-156.5 258.22,-143.35 237.31,-133.54"/>
<polygon fill="#63b8ff" stroke="#63b8ff" points="238.53,-130.25 227.99,-129.17 235.55,-136.59 238.53,-130.25"/>
</a>
</g>
</g>
<!-- Node12&#45;&gt;Node9 -->
<g id="edge16_Node000012_Node000009" class="edge">
<title>Node12&#45;&gt;Node9</title>
<g id="a_edge16_Node000012_Node000009"><a xlink:title=" ">
<path fill="none" stroke="#63b8ff" d="M310.57,-164.8C300.67,-156.77 287.31,-143.87 281.5,-129 275.78,-114.34 279.66,-96.63 284.32,-83.64"/>
<polygon fill="#63b8ff" stroke="#63b8ff" points="287.72,-84.59 288.23,-74.01 281.23,-81.96 287.72,-84.59"/>
</a>
</g>
</g>
<!-- Node12&#45;&gt;Node10 -->
<g id="edge14_Node000012_Node000010" class="edge">
<title>Node12&#45;&gt;Node10</title>
<g id="a_edge14_Node000012_Node000010"><a xlink:title=" ">
<path fill="none" stroke="#63b8ff" d="M359.69,-171.07C388.36,-167.01 426.26,-156.42 445.5,-129 466.75,-98.71 451.09,-53.08 439.65,-28.21"/>
<polygon fill="#63b8ff" stroke="#63b8ff" points="442.79,-26.66 435.27,-19.2 436.5,-29.73 442.79,-26.66"/>
</a>
</g>
</g>
<!-- Node13 -->
<g id="Node000013" class="node">
<title>Node13</title>
<g id="a_Node000013"><a xlink:title=" ">
<polygon fill="#e0e0e0" stroke="#999999" points="436,-129 373,-129 373,-110 436,-110 436,-129"/>
<text text-anchor="middle" x="404.5" y="-117" font-family="Helvetica,sans-Serif" font-size="10.00">pthread.h</text>
</a>
</g>
</g>
<!-- Node12&#45;&gt;Node13 -->
<g id="edge13_Node000012_Node000013" class="edge">
<title>Node12&#45;&gt;Node13</title>
<g id="a_edge13_Node000012_Node000013"><a xlink:title=" ">
<path fill="none" stroke="#63b8ff" d="M335.67,-164.98C348.27,-156.84 367.5,-144.41 382.44,-134.76"/>
<polygon fill="#63b8ff" stroke="#63b8ff" points="384.59,-137.54 391.09,-129.17 380.79,-131.66 384.59,-137.54"/>
</a>
</g>
</g>
<!-- Node14 -->
<g id="Node000014" class="node">
<title>Node14</title>
<g id="a_Node000014"><a xlink:href="drv__can_8h.html" target="_top" xlink:title="Generic CAN driver abstraction (vtable) and thin wrapper API.">
<polygon fill="white" stroke="#666666" points="354.5,-129 290.5,-129 290.5,-110 354.5,-110 354.5,-129"/>
<text text-anchor="middle" x="322.5" y="-117" font-family="Helvetica,sans-Serif" font-size="10.00">drv_can.h</text>
</a>
</g>
</g>
<!-- Node12&#45;&gt;Node14 -->
<g id="edge17_Node000012_Node000014" class="edge">
<title>Node12&#45;&gt;Node14</title>
<g id="a_edge17_Node000012_Node000014"><a xlink:title=" ">
<path fill="none" stroke="#63b8ff" d="M322.5,-164.75C322.5,-157.8 322.5,-147.85 322.5,-139.13"/>
<polygon fill="#63b8ff" stroke="#63b8ff" points="326,-139.09 322.5,-129.09 319,-139.09 326,-139.09"/>
</a>
</g>
</g>
<!-- Node14&#45;&gt;Node9 -->
<g id="edge19_Node000014_Node000009" class="edge">
<title>Node14&#45;&gt;Node9</title>
<g id="a_edge19_Node000014_Node000009"><a xlink:title=" ">
<path fill="none" stroke="#63b8ff" d="M317.55,-109.75C313.44,-102.49 307.47,-91.95 302.4,-82.98"/>
<polygon fill="#63b8ff" stroke="#63b8ff" points="305.33,-81.07 297.36,-74.09 299.24,-84.52 305.33,-81.07"/>
</a>
</g>
</g>
<!-- Node14&#45;&gt;Node10 -->
<g id="edge18_Node000014_Node000010" class="edge">
<title>Node14&#45;&gt;Node10</title>
<g id="a_edge18_Node000014_Node000010"><a xlink:title=" ">
<path fill="none" stroke="#63b8ff" d="M331.34,-109.66C349.54,-91.46 391.45,-49.55 414.53,-26.47"/>
<polygon fill="#63b8ff" stroke="#63b8ff" points="417.25,-28.7 421.84,-19.16 412.3,-23.75 417.25,-28.7"/>
</a>
</g>
</g>
<!-- Node15&#45;&gt;Node8 -->
<g id="edge21_Node000015_Node000008" class="edge">
<title>Node15&#45;&gt;Node8</title>
<g id="a_edge21_Node000015_Node000008"><a xlink:title=" ">
<path fill="none" stroke="#63b8ff" d="M502.97,-164.75C505.78,-157.65 509.84,-147.4 513.35,-138.56"/>
<polygon fill="#63b8ff" stroke="#63b8ff" points="516.67,-139.68 517.1,-129.09 510.16,-137.1 516.67,-139.68"/>
</a>
</g>
</g>
<!-- Node15&#45;&gt;Node10 -->
<g id="edge22_Node000015_Node000010" class="edge">
<title>Node15&#45;&gt;Node10</title>
<g id="a_edge22_Node000015_Node000010"><a xlink:title=" ">
<path fill="none" stroke="#63b8ff" d="M517.77,-164.93C538.7,-153.82 568.74,-133.09 557.5,-110 537.28,-68.46 490.39,-39.15 459.6,-23.55"/>
<polygon fill="#63b8ff" stroke="#63b8ff" points="461.13,-20.4 450.61,-19.15 458.05,-26.68 461.13,-20.4"/>
</a>
</g>
</g>
</g>
</svg>
