<?xml version="1.0" encoding="UTF-8" standalone="no"?>
<!DOCTYPE svg PUBLIC "-//W3C//DTD SVG 1.1//EN"
 "http://www.w3.org/Graphics/SVG/1.1/DTD/svg11.dtd">
<!-- Generated by graphviz version 2.43.0 (0)
 -->
<!-- Title: gui/settings_dialog.c Pages: 1 -->
<svg width="689pt" height="302pt"
 viewBox="0.00 0.00 689.00 302.00" xmlns="http://www.w3.org/2000/svg" xmlns:xlink="http://www.w3.org/1999/xlink">
<g id="graph0" class="graph" transform="scale(1 1) rotate(0) translate(4 298)">
<title>gui/settings_dialog.c</title>
<!-- Node1 -->
<g id="Node000001" class="node">
<title>Node1</title>
<g id="a_Node000001"><a xlink:title="Modal CAN connection&#45;settings dialog.">
<polygon fill="#999999" stroke="#666666" points="483.5,-294 366.5,-294 366.5,-275 483.5,-275 483.5,-294"/>
<text text-anchor="middle" x="425" y="-282" font-family="Helvetica,sans-Serif" font-size="10.00">gui/settings_dialog.c</text>
</a>
</g>
</g>
<!-- Node2 -->
<g id="Node000002" class="node">
<title>Node2</title>
<g id="a_Node000002"><a xlink:title=" ">
<polygon fill="#e0e0e0" stroke="#999999" points="50,-129 0,-129 0,-110 50,-110 50,-129"/>
<text text-anchor="middle" x="25" y="-117" font-family="Helvetica,sans-Serif" font-size="10.00">stdio.h</text>
</a>
</g>
</g>
<!-- Node1&#45;&gt;Node2 -->
<g id="edge1_Node000001_Node000002" class="edge">
<title>Node1&#45;&gt;Node2</title>
<g id="a_edge1_Node000001_Node000002"><a xlink:title=" ">
<path fill="none" stroke="#63b8ff" d="M398.58,-274.99C371.84,-266.29 329.37,-252.21 293,-239 229.78,-216.03 213.48,-211.29 152,-184 116.04,-168.04 75.55,-147.29 50.16,-133.94"/>
<polygon fill="#63b8ff" stroke="#63b8ff" points="51.69,-130.79 41.21,-129.21 48.42,-136.97 51.69,-130.79"/>
</a>
</g>
</g>
<!-- Node3 -->
<g id="Node000003" class="node">
<title>Node3</title>
<g id="a_Node000003"><a xlink:title=" ">
<polygon fill="#e0e0e0" stroke="#999999" points="537.5,-239 484.5,-239 484.5,-220 537.5,-220 537.5,-239"/>
<text text-anchor="middle" x="511" y="-227" font-family="Helvetica,sans-Serif" font-size="10.00">stdlib.h</text>
</a>
</g>
</g>
<!-- Node1&#45;&gt;Node3 -->
<g id="edge2_Node000001_Node000003" class="edge">
<title>Node1&#45;&gt;Node3</title>
<g id="a_edge2_Node000001_Node000003"><a xlink:title=" ">
<path fill="none" stroke="#63b8ff" d="M438.82,-274.98C452.15,-266.77 472.58,-254.18 488.31,-244.49"/>
<polygon fill="#63b8ff" stroke="#63b8ff" points="490.25,-247.4 496.93,-239.17 486.58,-241.44 490.25,-247.4"/>
</a>
</g>
</g>
<!-- Node4 -->
<g id="Node000004" class="node">
<title>Node4</title>
<g id="a_Node000004"><a xlink:title=" ">
<polygon fill="#e0e0e0" stroke="#999999" points="608.5,-239 555.5,-239 555.5,-220 608.5,-220 608.5,-239"/>
<text text-anchor="middle" x="582" y="-227" font-family="Helvetica,sans-Serif" font-size="10.00">string.h</text>
</a>
</g>
</g>
<!-- Node1&#45;&gt;Node4 -->
<g id="edge3_Node000001_Node000004" class="edge">
<title>Node1&#45;&gt;Node4</title>
<g id="a_edge3_Node000001_Node000004"><a xlink:title=" ">
<path fill="none" stroke="#63b8ff" d="M450.22,-274.98C476.36,-266.16 517.4,-252.31 546.73,-242.41"/>
<polygon fill="#63b8ff" stroke="#63b8ff" points="548.22,-245.6 556.58,-239.08 545.98,-238.96 548.22,-245.6"/>
</a>
</g>
</g>
<!-- Node5 -->
<g id="Node000005" class="node">
<title>Node5</title>
<g id="a_Node000005"><a xlink:title=" ">
<polygon fill="#e0e0e0" stroke="#999999" points="681,-239 627,-239 627,-220 681,-220 681,-239"/>
<text text-anchor="middle" x="654" y="-227" font-family="Helvetica,sans-Serif" font-size="10.00">dirent.h</text>
</a>
</g>
</g>
<!-- Node1&#45;&gt;Node5 -->
<g id="edge4_Node000001_Node000005" class="edge">
<title>Node1&#45;&gt;Node5</title>
<g id="a_edge4_Node000001_Node000005"><a xlink:title=" ">
<path fill="none" stroke="#63b8ff" d="M462.37,-274.94C499.21,-266.5 557.38,-253.12 616.92,-239.24"/>
<polygon fill="#63b8ff" stroke="#63b8ff" points="617.93,-242.6 626.88,-236.92 616.34,-235.78 617.93,-242.6"/>
</a>
</g>
</g>
<!-- Node6 -->
<g id="Node000006" class="node">
<title>Node6</title>
<g id="a_Node000006"><a xlink:title=" ">
<polygon fill="#e0e0e0" stroke="#999999" points="582,-184 522,-184 522,-165 582,-165 582,-184"/>
<text text-anchor="middle" x="552" y="-172" font-family="Helvetica,sans-Serif" font-size="10.00">gtk/gtk.h</text>
</a>
</g>
</g>
<!-- Node1&#45;&gt;Node6 -->
<g id="edge5_Node000001_Node000006" class="edge">
<title>Node1&#45;&gt;Node6</title>
<g id="a_edge5_Node000001_Node000006"><a xlink:title=" ">
<path fill="none" stroke="#63b8ff" d="M430.44,-274.86C438.96,-261.81 456.52,-236.81 476,-220 490.57,-207.43 509.19,-196.46 524.35,-188.56"/>
<polygon fill="#63b8ff" stroke="#63b8ff" points="525.93,-191.68 533.27,-184.05 522.77,-185.43 525.93,-191.68"/>
</a>
</g>
</g>
<!-- Node7 -->
<g id="Node000007" class="node">
<title>Node7</title>
<g id="a_Node000007"><a xlink:href="gui_8h.html" target="_top" xlink:title="GTK GUI widget registry and the application&#39;s GUI/thread API.">
<polygon fill="white" stroke="#666666" points="427.5,-239 360.5,-239 360.5,-220 427.5,-220 427.5,-239"/>
<text text-anchor="middle" x="394" y="-227" font-family="Helvetica,sans-Serif" font-size="10.00">../inc/gui.h</text>
</a>
</g>
</g>
<!-- Node1&#45;&gt;Node7 -->
<g id="edge6_Node000001_Node000007" class="edge">
<title>Node1&#45;&gt;Node7</title>
<g id="a_edge6_Node000001_Node000007"><a xlink:title=" ">
<path fill="none" stroke="#63b8ff" d="M419.88,-274.75C415.64,-267.49 409.47,-256.95 404.22,-247.98"/>
<polygon fill="#63b8ff" stroke="#63b8ff" points="407.09,-245.95 399.02,-239.09 401.05,-249.49 407.09,-245.95"/>
</a>
</g>
</g>
<!-- Node12 -->
<g id="Node000012" class="node">
<title>Node12</title>
<g id="a_Node000012"><a xlink:href="app__state_8h.html" target="_top" xlink:title="Global application state shared across the GUI and worker threads.">
<polygon fill="white" stroke="#666666" points="235,-184 161,-184 161,-165 235,-165 235,-184"/>
<text text-anchor="middle" x="198" y="-172" font-family="Helvetica,sans-Serif" font-size="10.00">app_state.h</text>
</a>
</g>
</g>
<!-- Node1&#45;&gt;Node12 -->
<g id="edge23_Node000001_Node000012" class="edge">
<title>Node1&#45;&gt;Node12</title>
<g id="a_edge23_Node000001_Node000012"><a xlink:title=" ">
<path fill="none" stroke="#63b8ff" d="M406.81,-274.84C367.03,-255.92 272.13,-210.77 225.21,-188.45"/>
<polygon fill="#63b8ff" stroke="#63b8ff" points="226.5,-185.18 215.96,-184.05 223.49,-191.5 226.5,-185.18"/>
</a>
</g>
</g>
<!-- Node16 -->
<g id="Node000016" class="node">
<title>Node16</title>
<g id="a_Node000016"><a xlink:href="socketcan_8h.html" target="_top" xlink:title="SocketCAN back&#45;end interface (Linux PF_CAN / SOCK_RAW).">
<polygon fill="white" stroke="#666666" points="365.5,-184 264.5,-184 264.5,-165 365.5,-165 365.5,-184"/>
<text text-anchor="middle" x="315" y="-172" font-family="Helvetica,sans-Serif" font-size="10.00">../inc/socketcan.h</text>
</a>
</g>
</g>
<!-- Node1&#45;&gt;Node16 -->
<g id="edge24_Node000001_Node000016" class="edge">
<title>Node1&#45;&gt;Node16</title>
<g id="a_edge24_Node000001_Node000016"><a xlink:title=" ">
<path fill="none" stroke="#63b8ff" d="M405.52,-274.95C389.67,-267.28 367.48,-254.79 352,-239 339.05,-225.79 328.89,-207.16 322.53,-193.5"/>
<polygon fill="#63b8ff" stroke="#63b8ff" points="325.66,-191.92 318.41,-184.19 319.25,-194.75 325.66,-191.92"/>
</a>
</g>
</g>
<!-- Node7&#45;&gt;Node6 -->
<g id="edge8_Node000007_Node000006" class="edge">
<title>Node7&#45;&gt;Node6</title>
<g id="a_edge8_Node000007_Node000006"><a xlink:title=" ">
<path fill="none" stroke="#63b8ff" d="M419.39,-219.98C445.8,-211.13 487.35,-197.19 516.89,-187.28"/>
<polygon fill="#63b8ff" stroke="#63b8ff" points="518.05,-190.58 526.42,-184.08 515.82,-183.94 518.05,-190.58"/>
</a>
</g>
</g>
<!-- Node8 -->
<g id="Node000008" class="node">
<title>Node8</title>
<g id="a_Node000008"><a xlink:title=" ">
<polygon fill="#e0e0e0" stroke="#999999" points="521,-129 465,-129 465,-110 521,-110 521,-129"/>
<text text-anchor="middle" x="493" y="-117" font-family="Helvetica,sans-Serif" font-size="10.00">stddef.h</text>
</a>
</g>
</g>
<!-- Node7&#45;&gt;Node8 -->
<g id="edge7_Node000007_Node000008" class="edge">
<title>Node7&#45;&gt;Node8</title>
<g id="a_edge7_Node000007_Node000008"><a xlink:title=" ">
<path fill="none" stroke="#63b8ff" d="M420.97,-219.89C438.75,-212.9 461.21,-201.32 475,-184 485.15,-171.25 489.58,-153.08 491.51,-139.43"/>
<polygon fill="#63b8ff" stroke="#63b8ff" points="495.01,-139.58 492.61,-129.26 488.05,-138.82 495.01,-139.58"/>
</a>
</g>
</g>
<!-- Node9 -->
<g id="Node000009" class="node">
<title>Node9</title>
<g id="a_Node000009"><a xlink:href="can__message_8h.html" target="_top" xlink:title="Hardware&#45;independent CAN/CAN FD message and statistics data types.">
<polygon fill="white" stroke="#666666" points="356,-74 264,-74 264,-55 356,-55 356,-74"/>
<text text-anchor="middle" x="310" y="-62" font-family="Helvetica,sans-Serif" font-size="10.00">can_message.h</text>
</a>
</g>
</g>
<!-- Node7&#45;&gt;Node9 -->
<g id="edge9_Node000007_Node000009" class="edge">
<title>Node7&#45;&gt;Node9</title>
<g id="a_edge9_Node000007_Node000009"><a xlink:title=" ">
<path fill="none" stroke="#63b8ff" d="M392.19,-219.58C389.44,-207.02 383.63,-183.58 375,-165 360.52,-133.82 337.36,-101.08 322.94,-82.02"/>
<polygon fill="#63b8ff" stroke="#63b8ff" points="325.69,-79.85 316.83,-74.05 320.14,-84.11 325.69,-79.85"/>
</a>
</g>
</g>
<!-- Node7&#45;&gt;Node12 -->
<g id="edge12_Node000007_Node000012" class="edge">
<title>Node7&#45;&gt;Node12</title>
<g id="a_edge12_Node000007_Node000012"><a xlink:title=" ">
<path fill="none" stroke="#63b8ff" d="M362.51,-219.98C329.18,-210.97 276.4,-196.7 239.65,-186.76"/>
<polygon fill="#63b8ff" stroke="#63b8ff" points="240.3,-183.31 229.74,-184.08 238.48,-190.07 240.3,-183.31"/>
</a>
</g>
</g>
<!-- Node15 -->
<g id="Node000015" class="node">
<title>Node15</title>
<g id="a_Node000015"><a xlink:href="dbc_8h.html" target="_top" xlink:title="Minimal CAN database (DBC) model, parser, and signal decoder.">
<polygon fill="white" stroke="#666666" points="465.5,-184 422.5,-184 422.5,-165 465.5,-165 465.5,-184"/>
<text text-anchor="middle" x="444" y="-172" font-family="Helvetica,sans-Serif" font-size="10.00">dbc.h</text>
</a>
</g>
</g>
<!-- Node7&#45;&gt;Node15 -->
<g id="edge20_Node000007_Node000015" class="edge">
<title>Node7&#45;&gt;Node15</title>
<g id="a_edge20_Node000007_Node000015"><a xlink:title=" ">
<path fill="none" stroke="#63b8ff" d="M402.26,-219.75C409.46,-212.11 420.11,-200.82 428.85,-191.56"/>
<polygon fill="#63b8ff" stroke="#63b8ff" points="431.58,-193.76 435.9,-184.09 426.49,-188.96 431.58,-193.76"/>
</a>
</g>
</g>
<!-- Node10 -->
<g id="Node000010" class="node">
<title>Node10</title>
<g id="a_Node000010"><a xlink:title=" ">
<polygon fill="#e0e0e0" stroke="#999999" points="370.5,-19 317.5,-19 317.5,0 370.5,0 370.5,-19"/>
<text text-anchor="middle" x="344" y="-7" font-family="Helvetica,sans-Serif" font-size="10.00">stdint.h</text>
</a>
</g>
</g>
<!-- Node9&#45;&gt;Node10 -->
<g id="edge10_Node000009_Node000010" class="edge">
<title>Node9&#45;&gt;Node10</title>
<g id="a_edge10_Node000009_Node000010"><a xlink:title=" ">
<path fill="none" stroke="#63b8ff" d="M315.61,-54.75C320.32,-47.42 327.17,-36.73 332.97,-27.7"/>
<polygon fill="#63b8ff" stroke="#63b8ff" points="336.04,-29.4 338.49,-19.09 330.14,-25.62 336.04,-29.4"/>
</a>
</g>
</g>
<!-- Node11 -->
<g id="Node000011" class="node">
<title>Node11</title>
<g id="a_Node000011"><a xlink:title=" ">
<polygon fill="#e0e0e0" stroke="#999999" points="299,-19 251,-19 251,0 299,0 299,-19"/>
<text text-anchor="middle" x="275" y="-7" font-family="Helvetica,sans-Serif" font-size="10.00">time.h</text>
</a>
</g>
</g>
<!-- Node9&#45;&gt;Node11 -->
<g id="edge11_Node000009_Node000011" class="edge">
<title>Node9&#45;&gt;Node11</title>
<g id="a_edge11_Node000009_Node000011"><a xlink:title=" ">
<path fill="none" stroke="#63b8ff" d="M304.22,-54.75C299.38,-47.42 292.32,-36.73 286.36,-27.7"/>
<polygon fill="#63b8ff" stroke="#63b8ff" points="289.1,-25.5 280.67,-19.09 283.26,-29.36 289.1,-25.5"/>
</a>
</g>
</g>
<!-- Node12&#45;&gt;Node2 -->
<g id="edge15_Node000012_Node000002" class="edge">
<title>Node12&#45;&gt;Node2</title>
<g id="a_edge15_Node000012_Node000002"><a xlink:title=" ">
<path fill="none" stroke="#63b8ff" d="M170.2,-164.98C140.3,-155.82 92.66,-141.23 60.17,-131.27"/>
<polygon fill="#63b8ff" stroke="#63b8ff" points="60.78,-127.8 50.19,-128.22 58.73,-134.49 60.78,-127.8"/>
</a>
</g>
</g>
<!-- Node12&#45;&gt;Node9 -->
<g id="edge16_Node000012_Node000009" class="edge">
<title>Node12&#45;&gt;Node9</title>
<g id="a_edge16_Node000012_Node000009"><a xlink:title=" ">
<path fill="none" stroke="#63b8ff" d="M160.95,-165.28C123.93,-155.35 75.38,-136.6 97,-110 116.4,-86.13 197.32,-74.62 253.64,-69.4"/>
<polygon fill="#63b8ff" stroke="#63b8ff" points="254.19,-72.87 263.85,-68.5 253.58,-65.9 254.19,-72.87"/>
</a>
</g>
</g>
<!-- Node12&#45;&gt;Node10 -->
<g id="edge14_Node000012_Node000010" class="edge">
<title>Node12&#45;&gt;Node10</title>
<g id="a_edge14_Node000012_Node000010"><a xlink:title=" ">
<path fill="none" stroke="#63b8ff" d="M198.94,-164.99C201.77,-143.46 212.15,-86.3 245,-55 262.47,-38.36 287.23,-27.23 307.62,-20.26"/>
<polygon fill="#63b8ff" stroke="#63b8ff" points="308.78,-23.57 317.23,-17.17 306.64,-16.9 308.78,-23.57"/>
</a>
</g>
</g>
<!-- Node13 -->
<g id="Node000013" class="node">
<title>Node13</title>
<g id="a_Node000013"><a xlink:title=" ">
<polygon fill="#e0e0e0" stroke="#999999" points="169.5,-129 106.5,-129 106.5,-110 169.5,-110 169.5,-129"/>
<text text-anchor="middle" x="138" y="-117" font-family="Helvetica,sans-Serif" font-size="10.00">pthread.h</text>
</a>
</g>
</g>
<!-- Node12&#45;&gt;Node13 -->
<g id="edge13_Node000012_Node000013" class="edge">
<title>Node12&#45;&gt;Node13</title>
<g id="a_edge13_Node000012_Node000013"><a xlink:title=" ">
<path fill="none" stroke="#63b8ff" d="M188.36,-164.98C179.49,-157.15 166.13,-145.34 155.39,-135.86"/>
<polygon fill="#63b8ff" stroke="#63b8ff" points="157.63,-133.17 147.82,-129.17 152.99,-138.41 157.63,-133.17"/>
</a>
</g>
</g>
<!-- Node14 -->
<g id="Node000014" class="node">
<title>Node14</title>
<g id="a_Node000014"><a xlink:href="drv__can_8h.html" target="_top" xlink:title="Generic CAN driver abstraction (vtable) and thin wrapper API.">
<polygon fill="white" stroke="#666666" points="290,-129 226,-129 226,-110 290,-110 290,-129"/>
<text text-anchor="middle" x="258" y="-117" font-family="Helvetica,sans-Serif" font-size="10.00">drv_can.h</text>
</a>
</g>
</g>
<!-- Node12&#45;&gt;Node14 -->
<g id="edge17_Node000012_Node000014" class="edge">
<title>Node12&#45;&gt;Node14</title>
<g id="a_edge17_Node000012_Node000014"><a xlink:title=" ">
<path fill="none" stroke="#63b8ff" d="M207.64,-164.98C216.51,-157.15 229.87,-145.34 240.61,-135.86"/>
<polygon fill="#63b8ff" stroke="#63b8ff" points="243.01,-138.41 248.18,-129.17 238.37,-133.17 243.01,-138.41"/>
</a>
</g>
</g>
<!-- Node14&#45;&gt;Node9 -->
<g id="edge19_Node000014_Node000009" class="edge">
<title>Node14&#45;&gt;Node9</title>
<g id="a_edge19_Node000014_Node000009"><a xlink:title=" ">
<path fill="none" stroke="#63b8ff" d="M266.59,-109.75C274.16,-102.03 285.38,-90.6 294.51,-81.28"/>
<polygon fill="#63b8ff" stroke="#63b8ff" points="297.07,-83.68 301.57,-74.09 292.07,-78.78 297.07,-83.68"/>
</a>
</g>
</g>
<!-- Node14&#45;&gt;Node10 -->
<g id="edge18_Node000014_Node000010" class="edge">
<title>Node14&#45;&gt;Node10</title>
<g id="a_edge18_Node000014_Node000010"><a xlink:title=" ">
<path fill="none" stroke="#63b8ff" d="M254.75,-109.93C250.41,-96.97 244.44,-72.09 255,-55 261.48,-44.52 288.36,-31.91 310.9,-22.79"/>
<polygon fill="#63b8ff" stroke="#63b8ff" points="312.21,-26.03 320.23,-19.11 309.64,-19.52 312.21,-26.03"/>
</a>
</g>
</g>
<!-- Node15&#45;&gt;Node8 -->
<g id="edge21_Node000015_Node000008" class="edge">
<title>Node15&#45;&gt;Node8</title>
<g id="a_edge21_Node000015_Node000008"><a xlink:title=" ">
<path fill="none" stroke="#63b8ff" d="M452.09,-164.75C459.16,-157.11 469.59,-145.82 478.15,-136.56"/>
<polygon fill="#63b8ff" stroke="#63b8ff" points="480.84,-138.81 485.06,-129.09 475.7,-134.06 480.84,-138.81"/>
</a>
</g>
</g>
<!-- Node15&#45;&gt;Node10 -->
<g id="edge22_Node000015_Node000010" class="edge">
<title>Node15&#45;&gt;Node10</title>
<g id="a_edge22_Node000015_Node000010"><a xlink:title=" ">
<path fill="none" stroke="#63b8ff" d="M439.89,-164.89C430.25,-144.96 405.01,-94.34 379,-55 372.56,-45.26 364.57,-34.98 357.84,-26.76"/>
<polygon fill="#63b8ff" stroke="#63b8ff" points="360.51,-24.49 351.42,-19.05 355.13,-28.97 360.51,-24.49"/>
</a>
</g>
</g>
<!-- Node16&#45;&gt;Node9 -->
<g id="edge26_Node000016_Node000009" class="edge">
<title>Node16&#45;&gt;Node9</title>
<g id="a_edge26_Node000016_Node000009"><a xlink:title=" ">
<path fill="none" stroke="#63b8ff" d="M314.59,-164.66C313.78,-147.17 311.96,-107.8 310.87,-84.27"/>
<polygon fill="#63b8ff" stroke="#63b8ff" points="314.36,-83.99 310.4,-74.16 307.37,-84.31 314.36,-83.99"/>
</a>
</g>
</g>
<!-- Node16&#45;&gt;Node10 -->
<g id="edge25_Node000016_Node000010" class="edge">
<title>Node16&#45;&gt;Node10</title>
<g id="a_edge25_Node000016_Node000010"><a xlink:title=" ">
<path fill="none" stroke="#63b8ff" d="M321.03,-164.98C332.34,-148.42 356.39,-110.31 365,-74 368.72,-58.31 362.22,-40.96 355.5,-28.36"/>
<polygon fill="#63b8ff" stroke="#63b8ff" points="358.33,-26.26 350.25,-19.4 352.29,-29.8 358.33,-26.26"/>
</a>
</g>
</g>
<!-- Node16&#45;&gt;Node14 -->
<g id="edge27_Node000016_Node000014" class="edge">
<title>Node16&#45;&gt;Node14</title>
<g id="a_edge27_Node000016_Node000014"><a xlink:title=" ">
<path fill="none" stroke="#63b8ff" d="M305.84,-164.98C297.5,-157.23 284.97,-145.58 274.82,-136.14"/>
<polygon fill="#63b8ff" stroke="#63b8ff" points="277.03,-133.42 267.32,-129.17 272.26,-138.54 277.03,-133.42"/>
</a>
</g>
</g>
</g>
</svg>
