<?xml version="1.0" encoding="UTF-8" standalone="no"?>
<!DOCTYPE svg PUBLIC "-//W3C//DTD SVG 1.1//EN"
 "http://www.w3.org/Graphics/SVG/1.1/DTD/svg11.dtd">
<!-- Generated by graphviz version 2.43.0 (0)
 -->
<!-- Title: gui/settings_dialog.c Pages: 1 -->
<svg width="645pt" height="302pt"
 viewBox="0.00 0.00 645.00 302.00" xmlns="http://www.w3.org/2000/svg" xmlns:xlink="http://www.w3.org/1999/xlink">
<g id="graph0" class="graph" transform="scale(1 1) rotate(0) translate(4 298)">
<title>gui/settings_dialog.c</title>
<!-- Node1 -->
<g id="Node000001" class="node">
<title>Node1</title>
<g id="a_Node000001"><a xlink:title="Modal CAN connection&#45;settings dialog.">
<polygon fill="#999999" stroke="#666666" points="439.5,-294 322.5,-294 322.5,-275 439.5,-275 439.5,-294"/>
<text text-anchor="middle" x="381" y="-282" font-family="Helvetica,sans-Serif" font-size="10.00">gui/settings_dialog.c</text>
</a>
</g>
</g>
<!-- Node2 -->
<g id="Node000002" class="node">
<title>Node2</title>
<g id="a_Node000002"><a xlink:title=" ">
<polygon fill="#e0e0e0" stroke="#999999" points="50,-129 0,-129 0,-110 50,-110 50,-129"/>
<text text-anchor="middle" x="25" y="-117" font-family="Helvetica,sans-Serif" font-size="10.00">stdio.h</text>
</a>
</g>
</g>
<!-- Node1&#45;&gt;Node2 -->
<g id="edge1_Node000001_Node000002" class="edge">
<title>Node1&#45;&gt;Node2</title>
<g id="a_edge1_Node000001_Node000002"><a xlink:title=" ">
<path fill="none" stroke="#63b8ff" d="M353.65,-274.99C305.92,-259.68 204.88,-225.21 125,-184 96.15,-169.12 64.87,-148.45 45.11,-134.79"/>
<polygon fill="#63b8ff" stroke="#63b8ff" points="47.1,-131.91 36.9,-129.05 43.09,-137.64 47.1,-131.91"/>
</a>
</g>
</g>
<!-- Node3 -->
<g id="Node000003" class="node">
<title>Node3</title>
<g id="a_Node000003"><a xlink:title=" ">
<polygon fill="#e0e0e0" stroke="#999999" points="493.5,-239 440.5,-239 440.5,-220 493.5,-220 493.5,-239"/>
<text text-anchor="middle" x="467" y="-227" font-family="Helvetica,sans-Serif" font-size="10.00">stdlib.h</text>
</a>
</g>
</g>
<!-- Node1&#45;&gt;Node3 -->
<g id="edge2_Node000001_Node000003" class="edge">
<title>Node1&#45;&gt;Node3</title>
<g id="a_edge2_Node000001_Node000003"><a xlink:title=" ">
<path fill="none" stroke="#63b8ff" d="M394.82,-274.98C408.15,-266.77 428.58,-254.18 444.31,-244.49"/>
<polygon fill="#63b8ff" stroke="#63b8ff" points="446.25,-247.4 452.93,-239.17 442.58,-241.44 446.25,-247.4"/>
</a>
</g>
</g>
<!-- Node4 -->
<g id="Node000004" class="node">
<title>Node4</title>
<g id="a_Node000004"><a xlink:title=" ">
<polygon fill="#e0e0e0" stroke="#999999" points="564.5,-239 511.5,-239 511.5,-220 564.5,-220 564.5,-239"/>
<text text-anchor="middle" x="538" y="-227" font-family="Helvetica,sans-Serif" font-size="10.00">string.h</text>
</a>
</g>
</g>
<!-- Node1&#45;&gt;Node4 -->
<g id="edge3_Node000001_Node000004" class="edge">
<title>Node1&#45;&gt;Node4</title>
<g id="a_edge3_Node000001_Node000004"><a xlink:title=" ">
<path fill="none" stroke="#63b8ff" d="M406.22,-274.98C432.36,-266.16 473.4,-252.31 502.73,-242.41"/>
<polygon fill="#63b8ff" stroke="#63b8ff" points="504.22,-245.6 512.58,-239.08 501.98,-238.96 504.22,-245.6"/>
</a>
</g>
</g>
<!-- Node5 -->
<g id="Node000005" class="node">
<title>Node5</title>
<g id="a_Node000005"><a xlink:title=" ">
<polygon fill="#e0e0e0" stroke="#999999" points="637,-239 583,-239 583,-220 637,-220 637,-239"/>
<text text-anchor="middle" x="610" y="-227" font-family="Helvetica,sans-Serif" font-size="10.00">dirent.h</text>
</a>
</g>
</g>
<!-- Node1&#45;&gt;Node5 -->
<g id="edge4_Node000001_Node000005" class="edge">
<title>Node1&#45;&gt;Node5</title>
<g id="a_edge4_Node000001_Node000005"><a xlink:title=" ">
<path fill="none" stroke="#63b8ff" d="M418.37,-274.94C455.21,-266.5 513.38,-253.12 572.92,-239.24"/>
<polygon fill="#63b8ff" stroke="#63b8ff" points="573.93,-242.6 582.88,-236.92 572.34,-235.78 573.93,-242.6"/>
</a>
</g>
</g>
<!-- Node6 -->
<g id="Node000006" class="node">
<title>Node6</title>
<g id="a_Node000006"><a xlink:title=" ">
<polygon fill="#e0e0e0" stroke="#999999" points="505,-184 445,-184 445,-165 505,-165 505,-184"/>
<text text-anchor="middle" x="475" y="-172" font-family="Helvetica,sans-Serif" font-size="10.00">gtk/gtk.h</text>
</a>
</g>
</g>
<!-- Node1&#45;&gt;Node6 -->
<g id="edge5_Node000001_Node000006" class="edge">
<title>Node1&#45;&gt;Node6</title>
<g id="a_edge5_Node000001_Node000006"><a xlink:title=" ">
<path fill="none" stroke="#63b8ff" d="M387.68,-274.67C397.2,-262.21 415.36,-238.88 432,-220 440.61,-210.23 450.71,-199.73 458.96,-191.39"/>
<polygon fill="#63b8ff" stroke="#63b8ff" points="461.6,-193.69 466.19,-184.14 456.65,-188.75 461.6,-193.69"/>
</a>
</g>
</g>
<!-- Node7 -->
<g id="Node000007" class="node">
<title>Node7</title>
<g id="a_Node000007"><a xlink:href="gui_8h.html" target="_top" xlink:title="GTK GUI widget registry and the application&#39;s GUI/thread API.">
<polygon fill="white" stroke="#666666" points="383.5,-239 316.5,-239 316.5,-220 383.5,-220 383.5,-239"/>
<text text-anchor="middle" x="350" y="-227" font-family="Helvetica,sans-Serif" font-size="10.00">../inc/gui.h</text>
</a>
</g>
</g>
<!-- Node1&#45;&gt;Node7 -->
<g id="edge6_Node000001_Node000007" class="edge">
<title>Node1&#45;&gt;Node7</title>
<g id="a_edge6_Node000001_Node000007"><a xlink:title=" ">
<path fill="none" stroke="#63b8ff" d="M375.88,-274.75C371.64,-267.49 365.47,-256.95 360.22,-247.98"/>
<polygon fill="#63b8ff" stroke="#63b8ff" points="363.09,-245.95 355.02,-239.09 357.05,-249.49 363.09,-245.95"/>
</a>
</g>
</g>
<!-- Node11 -->
<g id="Node000011" class="node">
<title>Node11</title>
<g id="a_Node000011"><a xlink:href="app__state_8h.html" target="_top" xlink:title="Global application state shared across the GUI and worker threads.">
<polygon fill="white" stroke="#666666" points="208,-184 134,-184 134,-165 208,-165 208,-184"/>
<text text-anchor="middle" x="171" y="-172" font-family="Helvetica,sans-Serif" font-size="10.00">app_state.h</text>
</a>
</g>
</g>
<!-- Node1&#45;&gt;Node11 -->
<g id="edge22_Node000001_Node000011" class="edge">
<title>Node1&#45;&gt;Node11</title>
<g id="a_edge22_Node000001_Node000011"><a xlink:title=" ">
<path fill="none" stroke="#63b8ff" d="M364.17,-274.84C327.52,-256 240.31,-211.14 196.72,-188.73"/>
<polygon fill="#63b8ff" stroke="#63b8ff" points="198.11,-185.51 187.62,-184.05 194.91,-191.73 198.11,-185.51"/>
</a>
</g>
</g>
<!-- Node16 -->
<g id="Node000016" class="node">
<title>Node16</title>
<g id="a_Node000016"><a xlink:href="socketcan_8h.html" target="_top" xlink:title="SocketCAN back&#45;end interface (Linux PF_CAN / SOCK_RAW).">
<polygon fill="white" stroke="#666666" points="365.5,-184 264.5,-184 264.5,-165 365.5,-165 365.5,-184"/>
<text text-anchor="middle" x="315" y="-172" font-family="Helvetica,sans-Serif" font-size="10.00">../inc/socketcan.h</text>
</a>
</g>
</g>
<!-- Node1&#45;&gt;Node16 -->
<g id="edge23_Node000001_Node000016" class="edge">
<title>Node1&#45;&gt;Node16</title>
<g id="a_edge23_Node000001_Node000016"><a xlink:title=" ">
<path fill="none" stroke="#63b8ff" d="M354.43,-274.94C337.87,-268.06 317.88,-256.6 308,-239 300.29,-225.26 303.29,-207.22 307.49,-193.88"/>
<polygon fill="#63b8ff" stroke="#63b8ff" points="310.82,-194.96 310.93,-184.36 304.24,-192.58 310.82,-194.96"/>
</a>
</g>
</g>
<!-- Node7&#45;&gt;Node6 -->
<g id="edge7_Node000007_Node000006" class="edge">
<title>Node7&#45;&gt;Node6</title>
<g id="a_edge7_Node000007_Node000006"><a xlink:title=" ">
<path fill="none" stroke="#63b8ff" d="M370.08,-219.98C390.37,-211.38 421.96,-197.99 445.17,-188.15"/>
<polygon fill="#63b8ff" stroke="#63b8ff" points="446.71,-191.3 454.55,-184.17 443.98,-184.85 446.71,-191.3"/>
</a>
</g>
</g>
<!-- Node8 -->
<g id="Node000008" class="node">
<title>Node8</title>
<g id="a_Node000008"><a xlink:href="can__message_8h.html" target="_top" xlink:title="Hardware&#45;independent CAN/CAN FD message and statistics data types.">
<polygon fill="white" stroke="#666666" points="313,-74 221,-74 221,-55 313,-55 313,-74"/>
<text text-anchor="middle" x="267" y="-62" font-family="Helvetica,sans-Serif" font-size="10.00">can_message.h</text>
</a>
</g>
</g>
<!-- Node7&#45;&gt;Node8 -->
<g id="edge8_Node000007_Node000008" class="edge">
<title>Node7&#45;&gt;Node8</title>
<g id="a_edge8_Node000007_Node000008"><a xlink:title=" ">
<path fill="none" stroke="#63b8ff" d="M316.18,-222.24C294.65,-216.32 268.39,-205.06 255,-184 235.29,-153.01 248.71,-107.97 258.77,-83.3"/>
<polygon fill="#63b8ff" stroke="#63b8ff" points="262.01,-84.65 262.77,-74.08 255.58,-81.86 262.01,-84.65"/>
</a>
</g>
</g>
<!-- Node7&#45;&gt;Node11 -->
<g id="edge11_Node000007_Node000011" class="edge">
<title>Node7&#45;&gt;Node11</title>
<g id="a_edge11_Node000007_Node000011"><a xlink:title=" ">
<path fill="none" stroke="#63b8ff" d="M321.24,-219.98C291.06,-211.05 243.43,-196.94 209.9,-187.02"/>
<polygon fill="#63b8ff" stroke="#63b8ff" points="210.57,-183.57 199.98,-184.08 208.58,-190.28 210.57,-183.57"/>
</a>
</g>
</g>
<!-- Node14 -->
<g id="Node000014" class="node">
<title>Node14</title>
<g id="a_Node000014"><a xlink:href="dbc_8h.html" target="_top" xlink:title="Minimal CAN database (DBC) model, parser, and signal decoder.">
<polygon fill="white" stroke="#666666" points="426.5,-184 383.5,-184 383.5,-165 426.5,-165 426.5,-184"/>
<text text-anchor="middle" x="405" y="-172" font-family="Helvetica,sans-Serif" font-size="10.00">dbc.h</text>
</a>
</g>
</g>
<!-- Node7&#45;&gt;Node14 -->
<g id="edge19_Node000007_Node000014" class="edge">
<title>Node7&#45;&gt;Node14</title>
<g id="a_edge19_Node000007_Node000014"><a xlink:title=" ">
<path fill="none" stroke="#63b8ff" d="M359.08,-219.75C367.09,-212.03 378.96,-200.6 388.62,-191.28"/>
<polygon fill="#63b8ff" stroke="#63b8ff" points="391.31,-193.55 396.09,-184.09 386.46,-188.51 391.31,-193.55"/>
</a>
</g>
</g>
<!-- Node9 -->
<g id="Node000009" class="node">
<title>Node9</title>
<g id="a_Node000009"><a xlink:title=" ">
<polygon fill="#e0e0e0" stroke="#999999" points="367.5,-19 314.5,-19 314.5,0 367.5,0 367.5,-19"/>
<text text-anchor="middle" x="341" y="-7" font-family="Helvetica,sans-Serif" font-size="10.00">stdint.h</text>
</a>
</g>
</g>
<!-- Node8&#45;&gt;Node9 -->
<g id="edge9_Node000008_Node000009" class="edge">
<title>Node8&#45;&gt;Node9</title>
<g id="a_edge9_Node000008_Node000009"><a xlink:title=" ">
<path fill="none" stroke="#63b8ff" d="M278.89,-54.98C290.15,-46.92 307.29,-34.65 320.71,-25.03"/>
<polygon fill="#63b8ff" stroke="#63b8ff" points="322.8,-27.84 328.89,-19.17 318.73,-22.15 322.8,-27.84"/>
</a>
</g>
</g>
<!-- Node10 -->
<g id="Node000010" class="node">
<title>Node10</title>
<g id="a_Node000010"><a xlink:title=" ">
<polygon fill="#e0e0e0" stroke="#999999" points="291,-19 243,-19 243,0 291,0 291,-19"/>
<text text-anchor="middle" x="267" y="-7" font-family="Helvetica,sans-Serif" font-size="10.00">time.h</text>
</a>
</g>
</g>
<!-- Node8&#45;&gt;Node10 -->
<g id="edge10_Node000008_Node000010" class="edge">
<title>Node8&#45;&gt;Node10</title>
<g id="a_edge10_Node000008_Node000010"><a xlink:title=" ">
<path fill="none" stroke="#63b8ff" d="M267,-54.75C267,-47.8 267,-37.85 267,-29.13"/>
<polygon fill="#63b8ff" stroke="#63b8ff" points="270.5,-29.09 267,-19.09 263.5,-29.09 270.5,-29.09"/>
</a>
</g>
</g>
<!-- Node11&#45;&gt;Node2 -->
<g id="edge14_Node000011_Node000002" class="edge">
<title>Node11&#45;&gt;Node2</title>
<g id="a_edge14_Node000011_Node000002"><a xlink:title=" ">
<path fill="none" stroke="#63b8ff" d="M147.54,-164.98C123.42,-156.23 85.63,-142.51 58.4,-132.62"/>
<polygon fill="#63b8ff" stroke="#63b8ff" points="59.48,-129.29 48.88,-129.17 57.09,-135.87 59.48,-129.29"/>
</a>
</g>
</g>
<!-- Node11&#45;&gt;Node8 -->
<g id="edge15_Node000011_Node000008" class="edge">
<title>Node11&#45;&gt;Node8</title>
<g id="a_edge15_Node000011_Node000008"><a xlink:title=" ">
<path fill="none" stroke="#63b8ff" d="M177.62,-164.61C187.07,-152.09 205.14,-128.69 222,-110 231.01,-100 241.71,-89.39 250.4,-81.03"/>
<polygon fill="#63b8ff" stroke="#63b8ff" points="252.89,-83.5 257.73,-74.07 248.07,-78.42 252.89,-83.5"/>
</a>
</g>
</g>
<!-- Node11&#45;&gt;Node9 -->
<g id="edge13_Node000011_Node000009" class="edge">
<title>Node11&#45;&gt;Node9</title>
<g id="a_edge13_Node000011_Node000009"><a xlink:title=" ">
<path fill="none" stroke="#63b8ff" d="M171.5,-164.7C173.2,-143 180.58,-86.39 212,-55 225.21,-41.8 271.09,-27.98 304.38,-19.31"/>
<polygon fill="#63b8ff" stroke="#63b8ff" points="305.44,-22.65 314.26,-16.79 303.71,-15.87 305.44,-22.65"/>
</a>
</g>
</g>
<!-- Node12 -->
<g id="Node000012" class="node">
<title>Node12</title>
<g id="a_Node000012"><a xlink:title=" ">
<polygon fill="#e0e0e0" stroke="#999999" points="131.5,-129 68.5,-129 68.5,-110 131.5,-110 131.5,-129"/>
<text text-anchor="middle" x="100" y="-117" font-family="Helvetica,sans-Serif" font-size="10.00">pthread.h</text>
</a>
</g>
</g>
<!-- Node11&#45;&gt;Node12 -->
<g id="edge12_Node000011_Node000012" class="edge">
<title>Node11&#45;&gt;Node12</title>
<g id="a_edge12_Node000011_Node000012"><a xlink:title=" ">
<path fill="none" stroke="#63b8ff" d="M159.59,-164.98C148.89,-157 132.66,-144.88 119.84,-135.31"/>
<polygon fill="#63b8ff" stroke="#63b8ff" points="121.72,-132.35 111.61,-129.17 117.53,-137.96 121.72,-132.35"/>
</a>
</g>
</g>
<!-- Node13 -->
<g id="Node000013" class="node">
<title>Node13</title>
<g id="a_Node000013"><a xlink:href="drv__can_8h.html" target="_top" xlink:title="Generic CAN driver abstraction (vtable) and thin wrapper API.">
<polygon fill="white" stroke="#666666" points="366,-129 302,-129 302,-110 366,-110 366,-129"/>
<text text-anchor="middle" x="334" y="-117" font-family="Helvetica,sans-Serif" font-size="10.00">drv_can.h</text>
</a>
</g>
</g>
<!-- Node11&#45;&gt;Node13 -->
<g id="edge16_Node000011_Node000013" class="edge">
<title>Node11&#45;&gt;Node13</title>
<g id="a_edge16_Node000011_Node000013"><a xlink:title=" ">
<path fill="none" stroke="#63b8ff" d="M197.19,-164.98C224.44,-156.13 267.3,-142.19 297.78,-132.28"/>
<polygon fill="#63b8ff" stroke="#63b8ff" points="299.18,-135.5 307.61,-129.08 297.01,-128.85 299.18,-135.5"/>
</a>
</g>
</g>
<!-- Node13&#45;&gt;Node8 -->
<g id="edge18_Node000013_Node000008" class="edge">
<title>Node13&#45;&gt;Node8</title>
<g id="a_edge18_Node000013_Node000008"><a xlink:title=" ">
<path fill="none" stroke="#63b8ff" d="M323.24,-109.98C313.23,-102.07 298.11,-90.11 286.07,-80.58"/>
<polygon fill="#63b8ff" stroke="#63b8ff" points="287.97,-77.63 277.96,-74.17 283.63,-83.12 287.97,-77.63"/>
</a>
</g>
</g>
<!-- Node13&#45;&gt;Node9 -->
<g id="edge17_Node000013_Node000009" class="edge">
<title>Node13&#45;&gt;Node9</title>
<g id="a_edge17_Node000013_Node000009"><a xlink:title=" ">
<path fill="none" stroke="#63b8ff" d="M334.57,-109.66C335.71,-92.17 338.26,-52.8 339.78,-29.27"/>
<polygon fill="#63b8ff" stroke="#63b8ff" points="343.28,-29.36 340.44,-19.16 336.3,-28.91 343.28,-29.36"/>
</a>
</g>
</g>
<!-- Node14&#45;&gt;Node9 -->
<g id="edge21_Node000014_Node000009" class="edge">
<title>Node14&#45;&gt;Node9</title>
<g id="a_edge21_Node000014_Node000009"><a xlink:title=" ">
<path fill="none" stroke="#63b8ff" d="M426.88,-167.45C455.97,-158.19 502.06,-138.49 487,-110 463.61,-65.75 410.73,-37.49 375.45,-22.81"/>
<polygon fill="#63b8ff" stroke="#63b8ff" points="376.59,-19.5 366,-19.03 373.99,-25.99 376.59,-19.5"/>
</a>
</g>
</g>
<!-- Node15 -->
<g id="Node000015" class="node">
<title>Node15</title>
<g id="a_Node000015"><a xlink:title=" ">
<polygon fill="#e0e0e0" stroke="#999999" points="478,-129 422,-129 422,-110 478,-110 478,-129"/>
<text text-anchor="middle" x="450" y="-117" font-family="Helvetica,sans-Serif" font-size="10.00">stddef.h</text>
</a>
</g>
</g>
<!-- Node14&#45;&gt;Node15 -->
<g id="edge20_Node000014_Node000015" class="edge">
<title>Node14&#45;&gt;Node15</title>
<g id="a_edge20_Node000014_Node000015"><a xlink:title=" ">
<path fill="none" stroke="#63b8ff" d="M412.43,-164.75C418.85,-157.18 428.31,-146.05 436.12,-136.84"/>
<polygon fill="#63b8ff" stroke="#63b8ff" points="438.9,-138.98 442.71,-129.09 433.57,-134.45 438.9,-138.98"/>
</a>
</g>
</g>
<!-- Node16&#45;&gt;Node8 -->
<g id="edge25_Node000016_Node000008" class="edge">
<title>Node16&#45;&gt;Node8</title>
<g id="a_edge25_Node000016_Node000008"><a xlink:title=" ">
<path fill="none" stroke="#63b8ff" d="M310.43,-164.72C305.85,-155.81 298.67,-141.57 293,-129 286.19,-113.9 279.1,-96.47 274.05,-83.69"/>
<polygon fill="#63b8ff" stroke="#63b8ff" points="277.25,-82.25 270.34,-74.21 270.73,-84.8 277.25,-82.25"/>
</a>
</g>
</g>
<!-- Node16&#45;&gt;Node9 -->
<g id="edge24_Node000016_Node000009" class="edge">
<title>Node16&#45;&gt;Node9</title>
<g id="a_edge24_Node000016_Node000009"><a xlink:title=" ">
<path fill="none" stroke="#63b8ff" d="M334.58,-164.98C348.67,-157.68 366.6,-145.68 375,-129 392.08,-95.08 369.14,-51.25 353.46,-27.54"/>
<polygon fill="#63b8ff" stroke="#63b8ff" points="356.28,-25.47 347.71,-19.24 350.53,-29.45 356.28,-25.47"/>
</a>
</g>
</g>
<!-- Node16&#45;&gt;Node13 -->
<g id="edge26_Node000016_Node000013" class="edge">
<title>Node16&#45;&gt;Node13</title>
<g id="a_edge26_Node000016_Node000013"><a xlink:title=" ">
<path fill="none" stroke="#63b8ff" d="M318.14,-164.75C320.68,-157.65 324.36,-147.4 327.53,-138.56"/>
<polygon fill="#63b8ff" stroke="#63b8ff" points="330.84,-139.68 330.92,-129.09 324.25,-137.32 330.84,-139.68"/>
</a>
</g>
</g>
</g>
</svg>
