<?xml version="1.0" encoding="UTF-8" standalone="no"?>
<!DOCTYPE svg PUBLIC "-//W3C//DTD SVG 1.1//EN"
 "http://www.w3.org/Graphics/SVG/1.1/DTD/svg11.dtd">
<!-- Generated by graphviz version 2.43.0 (0)
 -->
<!-- Title: gui/signal_view.c Pages: 1 -->
<svg width="488pt" height="302pt"
 viewBox="0.00 0.00 487.54 302.00" xmlns="http://www.w3.org/2000/svg" xmlns:xlink="http://www.w3.org/1999/xlink">
<g id="graph0" class="graph" transform="scale(1 1) rotate(0) translate(4 298)">
<title>gui/signal_view.c</title>
<!-- Node1 -->
<g id="Node000001" class="node">
<title>Node1</title>
<g id="a_Node000001"><a xlink:title="Signal Analysis tab — live DBC&#45;decoded individual&#45;signal table.">
<polygon fill="#999999" stroke="#666666" points="304.54,-294 204.54,-294 204.54,-275 304.54,-275 304.54,-294"/>
<text text-anchor="middle" x="254.54" y="-282" font-family="Helvetica,sans-Serif" font-size="10.00">gui/signal_view.c</text>
</a>
</g>
</g>
<!-- Node2 -->
<g id="Node000002" class="node">
<title>Node2</title>
<g id="a_Node000002"><a xlink:title=" ">
<polygon fill="#e0e0e0" stroke="#999999" points="62.54,-129 12.54,-129 12.54,-110 62.54,-110 62.54,-129"/>
<text text-anchor="middle" x="37.54" y="-117" font-family="Helvetica,sans-Serif" font-size="10.00">stdio.h</text>
</a>
</g>
</g>
<!-- Node1&#45;&gt;Node2 -->
<g id="edge1_Node000001_Node000002" class="edge">
<title>Node1&#45;&gt;Node2</title>
<g id="a_edge1_Node000001_Node000002"><a xlink:title=" ">
<path fill="none" stroke="#63b8ff" d="M232.84,-274.96C213.63,-266.94 185.19,-253.97 162.54,-239 117.02,-208.91 72.88,-161.5 51.28,-136.76"/>
<polygon fill="#63b8ff" stroke="#63b8ff" points="53.8,-134.31 44.62,-129.02 48.49,-138.88 53.8,-134.31"/>
</a>
</g>
</g>
<!-- Node3 -->
<g id="Node000003" class="node">
<title>Node3</title>
<g id="a_Node000003"><a xlink:title=" ">
<polygon fill="#e0e0e0" stroke="#999999" points="405.04,-239 352.04,-239 352.04,-220 405.04,-220 405.04,-239"/>
<text text-anchor="middle" x="378.54" y="-227" font-family="Helvetica,sans-Serif" font-size="10.00">string.h</text>
</a>
</g>
</g>
<!-- Node1&#45;&gt;Node3 -->
<g id="edge2_Node000001_Node000003" class="edge">
<title>Node1&#45;&gt;Node3</title>
<g id="a_edge2_Node000001_Node000003"><a xlink:title=" ">
<path fill="none" stroke="#63b8ff" d="M274.46,-274.98C294.59,-266.38 325.92,-252.99 348.95,-243.15"/>
<polygon fill="#63b8ff" stroke="#63b8ff" points="350.44,-246.32 358.26,-239.17 347.69,-239.88 350.44,-246.32"/>
</a>
</g>
</g>
<!-- Node4 -->
<g id="Node000004" class="node">
<title>Node4</title>
<g id="a_Node000004"><a xlink:title=" ">
<polygon fill="#e0e0e0" stroke="#999999" points="479.54,-239 423.54,-239 423.54,-220 479.54,-220 479.54,-239"/>
<text text-anchor="middle" x="451.54" y="-227" font-family="Helvetica,sans-Serif" font-size="10.00">unistd.h</text>
</a>
</g>
</g>
<!-- Node1&#45;&gt;Node4 -->
<g id="edge3_Node000001_Node000004" class="edge">
<title>Node1&#45;&gt;Node4</title>
<g id="a_edge3_Node000001_Node000004"><a xlink:title=" ">
<path fill="none" stroke="#63b8ff" d="M286.19,-274.98C320.89,-265.65 376.54,-250.68 413.56,-240.72"/>
<polygon fill="#63b8ff" stroke="#63b8ff" points="414.73,-244.03 423.48,-238.05 412.91,-237.27 414.73,-244.03"/>
</a>
</g>
</g>
<!-- Node5 -->
<g id="Node000005" class="node">
<title>Node5</title>
<g id="a_Node000005"><a xlink:title=" ">
<polygon fill="#e0e0e0" stroke="#999999" points="398.54,-184 338.54,-184 338.54,-165 398.54,-165 398.54,-184"/>
<text text-anchor="middle" x="368.54" y="-172" font-family="Helvetica,sans-Serif" font-size="10.00">gtk/gtk.h</text>
</a>
</g>
</g>
<!-- Node1&#45;&gt;Node5 -->
<g id="edge4_Node000001_Node000005" class="edge">
<title>Node1&#45;&gt;Node5</title>
<g id="a_edge4_Node000001_Node000005"><a xlink:title=" ">
<path fill="none" stroke="#63b8ff" d="M263.87,-274.66C283.17,-256.38 327.71,-214.18 352.01,-191.17"/>
<polygon fill="#63b8ff" stroke="#63b8ff" points="354.55,-193.58 359.4,-184.16 349.74,-188.5 354.55,-193.58"/>
</a>
</g>
</g>
<!-- Node6 -->
<g id="Node000006" class="node">
<title>Node6</title>
<g id="a_Node000006"><a xlink:href="gui_8h.html" target="_top" xlink:title="GTK GUI widget registry and the application&#39;s GUI/thread API.">
<polygon fill="white" stroke="#666666" points="257.04,-239 190.04,-239 190.04,-220 257.04,-220 257.04,-239"/>
<text text-anchor="middle" x="223.54" y="-227" font-family="Helvetica,sans-Serif" font-size="10.00">../inc/gui.h</text>
</a>
</g>
</g>
<!-- Node1&#45;&gt;Node6 -->
<g id="edge5_Node000001_Node000006" class="edge">
<title>Node1&#45;&gt;Node6</title>
<g id="a_edge5_Node000001_Node000006"><a xlink:title=" ">
<path fill="none" stroke="#63b8ff" d="M249.42,-274.75C245.18,-267.49 239.01,-256.95 233.77,-247.98"/>
<polygon fill="#63b8ff" stroke="#63b8ff" points="236.64,-245.95 228.57,-239.09 230.59,-249.49 236.64,-245.95"/>
</a>
</g>
</g>
<!-- Node8 -->
<g id="Node000008" class="node">
<title>Node8</title>
<g id="a_Node000008"><a xlink:href="can__message_8h.html" target="_top" xlink:title="Hardware&#45;independent CAN/CAN FD message and statistics data types.">
<polygon fill="white" stroke="#666666" points="256.54,-74 164.54,-74 164.54,-55 256.54,-55 256.54,-74"/>
<text text-anchor="middle" x="210.54" y="-62" font-family="Helvetica,sans-Serif" font-size="10.00">can_message.h</text>
</a>
</g>
</g>
<!-- Node1&#45;&gt;Node8 -->
<g id="edge23_Node000001_Node000008" class="edge">
<title>Node1&#45;&gt;Node8</title>
<g id="a_edge23_Node000001_Node000008"><a xlink:title=" ">
<path fill="none" stroke="#63b8ff" d="M218.92,-274.93C159.79,-258.46 43.91,-216.04 3.54,-129 -0.01,-121.34 -1.77,-116.57 3.54,-110 22.15,-86.97 99.33,-75.3 153.98,-69.81"/>
<polygon fill="#63b8ff" stroke="#63b8ff" points="154.63,-73.27 164.25,-68.83 153.96,-66.3 154.63,-73.27"/>
</a>
</g>
</g>
<!-- Node11 -->
<g id="Node000011" class="node">
<title>Node11</title>
<g id="a_Node000011"><a xlink:href="app__state_8h.html" target="_top" xlink:title="Global application state shared across the GUI and worker threads.">
<polygon fill="white" stroke="#666666" points="182.54,-184 108.54,-184 108.54,-165 182.54,-165 182.54,-184"/>
<text text-anchor="middle" x="145.54" y="-172" font-family="Helvetica,sans-Serif" font-size="10.00">app_state.h</text>
</a>
</g>
</g>
<!-- Node1&#45;&gt;Node11 -->
<g id="edge22_Node000001_Node000011" class="edge">
<title>Node1&#45;&gt;Node11</title>
<g id="a_edge22_Node000001_Node000011"><a xlink:title=" ">
<path fill="none" stroke="#63b8ff" d="M234.69,-274.85C218.84,-267.19 196.83,-254.78 181.54,-239 168.75,-225.8 158.9,-207.18 152.76,-193.51"/>
<polygon fill="#63b8ff" stroke="#63b8ff" points="155.94,-192.03 148.8,-184.2 149.49,-194.77 155.94,-192.03"/>
</a>
</g>
</g>
<!-- Node14 -->
<g id="Node000014" class="node">
<title>Node14</title>
<g id="a_Node000014"><a xlink:href="dbc_8h.html" target="_top" xlink:title="Minimal CAN database (DBC) model, parser, and signal decoder.">
<polygon fill="white" stroke="#666666" points="320.04,-184 277.04,-184 277.04,-165 320.04,-165 320.04,-184"/>
<text text-anchor="middle" x="298.54" y="-172" font-family="Helvetica,sans-Serif" font-size="10.00">dbc.h</text>
</a>
</g>
</g>
<!-- Node1&#45;&gt;Node14 -->
<g id="edge24_Node000001_Node000014" class="edge">
<title>Node1&#45;&gt;Node14</title>
<g id="a_edge24_Node000001_Node000014"><a xlink:title=" ">
<path fill="none" stroke="#63b8ff" d="M258.14,-274.66C265.33,-257.01 281.6,-217.09 291.15,-193.64"/>
<polygon fill="#63b8ff" stroke="#63b8ff" points="294.48,-194.74 295.01,-184.16 288,-192.1 294.48,-194.74"/>
</a>
</g>
</g>
<!-- Node6&#45;&gt;Node5 -->
<g id="edge7_Node000006_Node000005" class="edge">
<title>Node6&#45;&gt;Node5</title>
<g id="a_edge7_Node000006_Node000005"><a xlink:title=" ">
<path fill="none" stroke="#63b8ff" d="M246.84,-219.98C270.79,-211.23 308.32,-197.51 335.37,-187.62"/>
<polygon fill="#63b8ff" stroke="#63b8ff" points="336.63,-190.89 344.82,-184.17 334.23,-184.32 336.63,-190.89"/>
</a>
</g>
</g>
<!-- Node7 -->
<g id="Node000007" class="node">
<title>Node7</title>
<g id="a_Node000007"><a xlink:title=" ">
<polygon fill="#e0e0e0" stroke="#999999" points="414.54,-129 358.54,-129 358.54,-110 414.54,-110 414.54,-129"/>
<text text-anchor="middle" x="386.54" y="-117" font-family="Helvetica,sans-Serif" font-size="10.00">stddef.h</text>
</a>
</g>
</g>
<!-- Node6&#45;&gt;Node7 -->
<g id="edge6_Node000006_Node000007" class="edge">
<title>Node6&#45;&gt;Node7</title>
<g id="a_edge6_Node000006_Node000007"><a xlink:title=" ">
<path fill="none" stroke="#63b8ff" d="M227.55,-219.86C234.22,-206.35 248.86,-180.19 268.54,-165 292.15,-146.77 324.05,-135.34 348.73,-128.64"/>
<polygon fill="#63b8ff" stroke="#63b8ff" points="349.66,-132.01 358.48,-126.13 347.92,-125.23 349.66,-132.01"/>
</a>
</g>
</g>
<!-- Node6&#45;&gt;Node8 -->
<g id="edge8_Node000006_Node000008" class="edge">
<title>Node6&#45;&gt;Node8</title>
<g id="a_edge8_Node000006_Node000008"><a xlink:title=" ">
<path fill="none" stroke="#63b8ff" d="M222.84,-219.74C220.81,-194.31 214.89,-120.08 212.07,-84.69"/>
<polygon fill="#63b8ff" stroke="#63b8ff" points="215.53,-84 211.24,-74.31 208.55,-84.55 215.53,-84"/>
</a>
</g>
</g>
<!-- Node6&#45;&gt;Node11 -->
<g id="edge11_Node000006_Node000011" class="edge">
<title>Node6&#45;&gt;Node11</title>
<g id="a_edge11_Node000006_Node000011"><a xlink:title=" ">
<path fill="none" stroke="#63b8ff" d="M211.01,-219.98C199.14,-211.92 181.08,-199.65 166.93,-190.03"/>
<polygon fill="#63b8ff" stroke="#63b8ff" points="168.54,-186.9 158.3,-184.17 164.61,-192.69 168.54,-186.9"/>
</a>
</g>
</g>
<!-- Node6&#45;&gt;Node14 -->
<g id="edge19_Node000006_Node000014" class="edge">
<title>Node6&#45;&gt;Node14</title>
<g id="a_edge19_Node000006_Node000014"><a xlink:title=" ">
<path fill="none" stroke="#63b8ff" d="M235.59,-219.98C247,-211.92 264.37,-199.65 277.98,-190.03"/>
<polygon fill="#63b8ff" stroke="#63b8ff" points="280.13,-192.8 286.27,-184.17 276.09,-187.08 280.13,-192.8"/>
</a>
</g>
</g>
<!-- Node9 -->
<g id="Node000009" class="node">
<title>Node9</title>
<g id="a_Node000009"><a xlink:title=" ">
<polygon fill="#e0e0e0" stroke="#999999" points="336.04,-19 283.04,-19 283.04,0 336.04,0 336.04,-19"/>
<text text-anchor="middle" x="309.54" y="-7" font-family="Helvetica,sans-Serif" font-size="10.00">stdint.h</text>
</a>
</g>
</g>
<!-- Node8&#45;&gt;Node9 -->
<g id="edge9_Node000008_Node000009" class="edge">
<title>Node8&#45;&gt;Node9</title>
<g id="a_edge9_Node000008_Node000009"><a xlink:title=" ">
<path fill="none" stroke="#63b8ff" d="M226.45,-54.98C242.09,-46.61 266.2,-33.7 284.43,-23.95"/>
<polygon fill="#63b8ff" stroke="#63b8ff" points="286.18,-26.98 293.35,-19.17 282.88,-20.8 286.18,-26.98"/>
</a>
</g>
</g>
<!-- Node10 -->
<g id="Node000010" class="node">
<title>Node10</title>
<g id="a_Node000010"><a xlink:title=" ">
<polygon fill="#e0e0e0" stroke="#999999" points="234.54,-19 186.54,-19 186.54,0 234.54,0 234.54,-19"/>
<text text-anchor="middle" x="210.54" y="-7" font-family="Helvetica,sans-Serif" font-size="10.00">time.h</text>
</a>
</g>
</g>
<!-- Node8&#45;&gt;Node10 -->
<g id="edge10_Node000008_Node000010" class="edge">
<title>Node8&#45;&gt;Node10</title>
<g id="a_edge10_Node000008_Node000010"><a xlink:title=" ">
<path fill="none" stroke="#63b8ff" d="M210.54,-54.75C210.54,-47.8 210.54,-37.85 210.54,-29.13"/>
<polygon fill="#63b8ff" stroke="#63b8ff" points="214.04,-29.09 210.54,-19.09 207.04,-29.09 214.04,-29.09"/>
</a>
</g>
</g>
<!-- Node11&#45;&gt;Node2 -->
<g id="edge14_Node000011_Node000002" class="edge">
<title>Node11&#45;&gt;Node2</title>
<g id="a_edge14_Node000011_Node000002"><a xlink:title=" ">
<path fill="none" stroke="#63b8ff" d="M128.19,-164.98C110.97,-156.54 84.34,-143.47 64.4,-133.68"/>
<polygon fill="#63b8ff" stroke="#63b8ff" points="65.73,-130.43 55.21,-129.17 62.64,-136.72 65.73,-130.43"/>
</a>
</g>
</g>
<!-- Node11&#45;&gt;Node8 -->
<g id="edge15_Node000011_Node000008" class="edge">
<title>Node11&#45;&gt;Node8</title>
<g id="a_edge15_Node000011_Node000008"><a xlink:title=" ">
<path fill="none" stroke="#63b8ff" d="M134.37,-164.64C120.03,-152.15 98.34,-128.79 110.54,-110 120.8,-94.2 138.12,-83.97 155.48,-77.35"/>
<polygon fill="#63b8ff" stroke="#63b8ff" points="156.77,-80.61 165.08,-74.04 154.49,-73.99 156.77,-80.61"/>
</a>
</g>
</g>
<!-- Node11&#45;&gt;Node9 -->
<g id="edge13_Node000011_Node000009" class="edge">
<title>Node11&#45;&gt;Node9</title>
<g id="a_edge13_Node000011_Node000009"><a xlink:title=" ">
<path fill="none" stroke="#63b8ff" d="M182.77,-168.79C226.76,-162.37 295.97,-149.3 311.54,-129 333.8,-99.99 324.19,-54.16 316.23,-28.83"/>
<polygon fill="#63b8ff" stroke="#63b8ff" points="319.45,-27.4 312.92,-19.06 312.82,-29.65 319.45,-27.4"/>
</a>
</g>
</g>
<!-- Node12 -->
<g id="Node000012" class="node">
<title>Node12</title>
<g id="a_Node000012"><a xlink:title=" ">
<polygon fill="#e0e0e0" stroke="#999999" points="182.04,-129 119.04,-129 119.04,-110 182.04,-110 182.04,-129"/>
<text text-anchor="middle" x="150.54" y="-117" font-family="Helvetica,sans-Serif" font-size="10.00">pthread.h</text>
</a>
</g>
</g>
<!-- Node11&#45;&gt;Node12 -->
<g id="edge12_Node000011_Node000012" class="edge">
<title>Node11&#45;&gt;Node12</title>
<g id="a_edge12_Node000011_Node000012"><a xlink:title=" ">
<path fill="none" stroke="#63b8ff" d="M146.37,-164.75C147.02,-157.8 147.96,-147.85 148.78,-139.13"/>
<polygon fill="#63b8ff" stroke="#63b8ff" points="152.28,-139.37 149.73,-129.09 145.31,-138.72 152.28,-139.37"/>
</a>
</g>
</g>
<!-- Node13 -->
<g id="Node000013" class="node">
<title>Node13</title>
<g id="a_Node000013"><a xlink:href="drv__can_8h.html" target="_top" xlink:title="Generic CAN driver abstraction (vtable) and thin wrapper API.">
<polygon fill="white" stroke="#666666" points="302.54,-129 238.54,-129 238.54,-110 302.54,-110 302.54,-129"/>
<text text-anchor="middle" x="270.54" y="-117" font-family="Helvetica,sans-Serif" font-size="10.00">drv_can.h</text>
</a>
</g>
</g>
<!-- Node11&#45;&gt;Node13 -->
<g id="edge16_Node000011_Node000013" class="edge">
<title>Node11&#45;&gt;Node13</title>
<g id="a_edge16_Node000011_Node000013"><a xlink:title=" ">
<path fill="none" stroke="#63b8ff" d="M165.62,-164.98C185.91,-156.38 217.5,-142.99 240.71,-133.15"/>
<polygon fill="#63b8ff" stroke="#63b8ff" points="242.25,-136.3 250.09,-129.17 239.52,-129.85 242.25,-136.3"/>
</a>
</g>
</g>
<!-- Node13&#45;&gt;Node8 -->
<g id="edge18_Node000013_Node000008" class="edge">
<title>Node13&#45;&gt;Node8</title>
<g id="a_edge18_Node000013_Node000008"><a xlink:title=" ">
<path fill="none" stroke="#63b8ff" d="M260.9,-109.98C252.03,-102.15 238.67,-90.34 227.93,-80.86"/>
<polygon fill="#63b8ff" stroke="#63b8ff" points="230.17,-78.17 220.36,-74.17 225.53,-83.41 230.17,-78.17"/>
</a>
</g>
</g>
<!-- Node13&#45;&gt;Node9 -->
<g id="edge17_Node000013_Node000009" class="edge">
<title>Node13&#45;&gt;Node9</title>
<g id="a_edge17_Node000013_Node000009"><a xlink:title=" ">
<path fill="none" stroke="#63b8ff" d="M273.73,-109.66C280.11,-92.01 294.52,-52.09 302.99,-28.64"/>
<polygon fill="#63b8ff" stroke="#63b8ff" points="306.31,-29.75 306.41,-19.16 299.73,-27.38 306.31,-29.75"/>
</a>
</g>
</g>
<!-- Node14&#45;&gt;Node7 -->
<g id="edge20_Node000014_Node000007" class="edge">
<title>Node14&#45;&gt;Node7</title>
<g id="a_edge20_Node000014_Node000007"><a xlink:title=" ">
<path fill="none" stroke="#63b8ff" d="M312.68,-164.98C326.33,-156.77 347.23,-144.18 363.32,-134.49"/>
<polygon fill="#63b8ff" stroke="#63b8ff" points="365.39,-137.33 372.15,-129.17 361.77,-131.33 365.39,-137.33"/>
</a>
</g>
</g>
<!-- Node14&#45;&gt;Node9 -->
<g id="edge21_Node000014_Node000009" class="edge">
<title>Node14&#45;&gt;Node9</title>
<g id="a_edge21_Node000014_Node000009"><a xlink:title=" ">
<path fill="none" stroke="#63b8ff" d="M320.08,-167.3C354.18,-157.28 417.37,-137.75 423.54,-129 453.76,-86.17 381.98,-43.82 338.98,-23.29"/>
<polygon fill="#63b8ff" stroke="#63b8ff" points="340.32,-20.05 329.77,-19.02 337.37,-26.4 340.32,-20.05"/>
</a>
</g>
</g>
</g>
</svg>
