<?xml version="1.0" encoding="UTF-8" standalone="no"?>
<!DOCTYPE svg PUBLIC "-//W3C//DTD SVG 1.1//EN"
 "http://www.w3.org/Graphics/SVG/1.1/DTD/svg11.dtd">
<!-- Generated by graphviz version 2.43.0 (0)
 -->
<!-- Title: ba_session_t Pages: 1 -->
<svg width="404pt" height="93pt"
 viewBox="0.00 0.00 404.00 93.00" xmlns="http://www.w3.org/2000/svg" xmlns:xlink="http://www.w3.org/1999/xlink">
<g id="graph0" class="graph" transform="scale(1 1) rotate(0) translate(4 89)">
<title>ba_session_t</title>
<!-- Node1 -->
<g id="Node000001" class="node">
<title>Node1</title>
<g id="a_Node000001"><a xlink:title=" ">
<polygon fill="#999999" stroke="#666666" points="232.5,-19 152.5,-19 152.5,0 232.5,0 232.5,-19"/>
<text text-anchor="middle" x="192.5" y="-7" font-family="Helvetica,sans-Serif" font-size="10.00">ba_session_t</text>
</a>
</g>
</g>
<!-- Node2 -->
<g id="Node000002" class="node">
<title>Node2</title>
<g id="a_Node000002"><a xlink:href="structba__sample__t.html" target="_top" xlink:title=" ">
<polygon fill="white" stroke="#666666" points="79,-85 0,-85 0,-66 79,-66 79,-85"/>
<text text-anchor="middle" x="39.5" y="-73" font-family="Helvetica,sans-Serif" font-size="10.00">ba_sample_t</text>
</a>
</g>
</g>
<!-- Node2&#45;&gt;Node1 -->
<g id="edge1_Node000001_Node000002" class="edge">
<title>Node2&#45;&gt;Node1</title>
<g id="a_edge1_Node000001_Node000002"><a xlink:title=" ">
<path fill="none" stroke="#9a32cd" stroke-dasharray="5,2" d="M63.53,-60.96C77.56,-53.37 95.74,-44.03 112.5,-37 128.96,-30.09 147.9,-23.75 163.22,-19.01"/>
<polygon fill="#9a32cd" stroke="#9a32cd" points="61.63,-58.01 54.55,-65.9 65,-64.15 61.63,-58.01"/>
</a>
</g>
<text text-anchor="middle" x="135" y="-40" font-family="Helvetica,sans-Serif" font-size="10.00" fill="grey"> samples</text>
</g>
<!-- Node3 -->
<g id="Node000003" class="node">
<title>Node3</title>
<g id="a_Node000003"><a xlink:href="structba__segment__t.html" target="_top" xlink:title=" ">
<polygon fill="white" stroke="#666666" points="183.5,-85 97.5,-85 97.5,-66 183.5,-66 183.5,-85"/>
<text text-anchor="middle" x="140.5" y="-73" font-family="Helvetica,sans-Serif" font-size="10.00">ba_segment_t</text>
</a>
</g>
</g>
<!-- Node3&#45;&gt;Node1 -->
<g id="edge2_Node000001_Node000003" class="edge">
<title>Node3&#45;&gt;Node1</title>
<g id="a_edge2_Node000001_Node000003"><a xlink:title=" ">
<path fill="none" stroke="#9a32cd" stroke-dasharray="5,2" d="M153.8,-57.74C158.99,-51.24 165,-43.75 170.5,-37 175.34,-31.07 180.84,-24.44 185.13,-19.3"/>
<polygon fill="#9a32cd" stroke="#9a32cd" points="150.86,-55.82 147.37,-65.83 156.33,-60.18 150.86,-55.82"/>
</a>
</g>
<text text-anchor="middle" x="196.5" y="-40" font-family="Helvetica,sans-Serif" font-size="10.00" fill="grey"> segments</text>
</g>
<!-- Node4 -->
<g id="Node000004" class="node">
<title>Node4</title>
<g id="a_Node000004"><a xlink:href="structba__bit__stats__t.html" target="_top" xlink:title=" ">
<polygon fill="white" stroke="#666666" points="287,-85 202,-85 202,-66 287,-66 287,-85"/>
<text text-anchor="middle" x="244.5" y="-73" font-family="Helvetica,sans-Serif" font-size="10.00">ba_bit_stats_t</text>
</a>
</g>
</g>
<!-- Node4&#45;&gt;Node1 -->
<g id="edge3_Node000001_Node000004" class="edge">
<title>Node4&#45;&gt;Node1</title>
<g id="a_edge3_Node000001_Node000004"><a xlink:title=" ">
<path fill="none" stroke="#9a32cd" stroke-dasharray="5,2" d="M235.81,-57.1C232.13,-50.5 227.53,-43.11 222.5,-37 217.02,-30.35 209.81,-23.92 203.83,-19.07"/>
<polygon fill="#9a32cd" stroke="#9a32cd" points="232.72,-58.75 240.48,-65.97 238.91,-55.49 232.72,-58.75"/>
</a>
</g>
<text text-anchor="middle" x="252.5" y="-40" font-family="Helvetica,sans-Serif" font-size="10.00" fill="grey"> bit_stats</text>
</g>
<!-- Node5 -->
<g id="Node000005" class="node">
<title>Node5</title>
<g id="a_Node000005"><a xlink:href="structba__candidate__t.html" target="_top" xlink:title=" ">
<polygon fill="white" stroke="#666666" points="396,-85 305,-85 305,-66 396,-66 396,-85"/>
<text text-anchor="middle" x="350.5" y="-73" font-family="Helvetica,sans-Serif" font-size="10.00">ba_candidate_t</text>
</a>
</g>
</g>
<!-- Node5&#45;&gt;Node1 -->
<g id="edge4_Node000001_Node000005" class="edge">
<title>Node5&#45;&gt;Node1</title>
<g id="a_edge4_Node000001_Node000005"><a xlink:title=" ">
<path fill="none" stroke="#9a32cd" stroke-dasharray="5,2" d="M327.49,-60.92C313.85,-53.23 296.05,-43.82 279.5,-37 262.27,-29.9 242.44,-23.72 226.07,-19.11"/>
<polygon fill="#9a32cd" stroke="#9a32cd" points="325.79,-63.97 336.21,-65.91 329.27,-57.9 325.79,-63.97"/>
</a>
</g>
<text text-anchor="middle" x="330" y="-40" font-family="Helvetica,sans-Serif" font-size="10.00" fill="grey"> candidates</text>
</g>
</g>
</svg>
