<?xml version="1.0" encoding="UTF-8" standalone="no"?>
<!DOCTYPE svg PUBLIC "-//W3C//DTD SVG 1.1//EN"
 "http://www.w3.org/Graphics/SVG/1.1/DTD/svg11.dtd">
<!-- Generated by graphviz version 2.43.0 (0)
 -->
<!-- Title: analysis_work_t Pages: 1 -->
<svg width="404pt" height="159pt"
 viewBox="0.00 0.00 404.00 159.00" xmlns="http://www.w3.org/2000/svg" xmlns:xlink="http://www.w3.org/1999/xlink">
<g id="graph0" class="graph" transform="scale(1 1) rotate(0) translate(4 155)">
<title>analysis_work_t</title>
<!-- Node1 -->
<g id="Node000001" class="node">
<title>Node1</title>
<g id="a_Node000001"><a xlink:title=" ">
<polygon fill="#999999" stroke="#666666" points="240,-19 145,-19 145,0 240,0 240,-19"/>
<text text-anchor="middle" x="192.5" y="-7" font-family="Helvetica,sans-Serif" font-size="10.00">analysis_work_t</text>
</a>
</g>
</g>
<!-- Node2 -->
<g id="Node000002" class="node">
<title>Node2</title>
<g id="a_Node000002"><a xlink:href="structba__session__t.html" target="_top" xlink:title=" ">
<polygon fill="white" stroke="#666666" points="232.5,-85 152.5,-85 152.5,-66 232.5,-66 232.5,-85"/>
<text text-anchor="middle" x="192.5" y="-73" font-family="Helvetica,sans-Serif" font-size="10.00">ba_session_t</text>
</a>
</g>
</g>
<!-- Node2&#45;&gt;Node1 -->
<g id="edge1_Node000001_Node000002" class="edge">
<title>Node2&#45;&gt;Node1</title>
<g id="a_edge1_Node000001_Node000002"><a xlink:title=" ">
<path fill="none" stroke="#9a32cd" stroke-dasharray="5,2" d="M192.5,-55.58C192.5,-43.63 192.5,-28.72 192.5,-19.41"/>
<polygon fill="#9a32cd" stroke="#9a32cd" points="189,-55.87 192.5,-65.87 196,-55.87 189,-55.87"/>
</a>
</g>
<text text-anchor="middle" x="227.5" y="-40" font-family="Helvetica,sans-Serif" font-size="10.00" fill="grey"> work_session</text>
</g>
<!-- Node3 -->
<g id="Node000003" class="node">
<title>Node3</title>
<g id="a_Node000003"><a xlink:href="structba__sample__t.html" target="_top" xlink:title=" ">
<polygon fill="white" stroke="#666666" points="79,-151 0,-151 0,-132 79,-132 79,-151"/>
<text text-anchor="middle" x="39.5" y="-139" font-family="Helvetica,sans-Serif" font-size="10.00">ba_sample_t</text>
</a>
</g>
</g>
<!-- Node3&#45;&gt;Node2 -->
<g id="edge2_Node000002_Node000003" class="edge">
<title>Node3&#45;&gt;Node2</title>
<g id="a_edge2_Node000002_Node000003"><a xlink:title=" ">
<path fill="none" stroke="#9a32cd" stroke-dasharray="5,2" d="M63.53,-126.96C77.56,-119.37 95.74,-110.03 112.5,-103 128.96,-96.09 147.9,-89.75 163.22,-85.01"/>
<polygon fill="#9a32cd" stroke="#9a32cd" points="61.63,-124.01 54.55,-131.9 65,-130.15 61.63,-124.01"/>
</a>
</g>
<text text-anchor="middle" x="135" y="-106" font-family="Helvetica,sans-Serif" font-size="10.00" fill="grey"> samples</text>
</g>
<!-- Node4 -->
<g id="Node000004" class="node">
<title>Node4</title>
<g id="a_Node000004"><a xlink:href="structba__segment__t.html" target="_top" xlink:title=" ">
<polygon fill="white" stroke="#666666" points="183.5,-151 97.5,-151 97.5,-132 183.5,-132 183.5,-151"/>
<text text-anchor="middle" x="140.5" y="-139" font-family="Helvetica,sans-Serif" font-size="10.00">ba_segment_t</text>
</a>
</g>
</g>
<!-- Node4&#45;&gt;Node2 -->
<g id="edge3_Node000002_Node000004" class="edge">
<title>Node4&#45;&gt;Node2</title>
<g id="a_edge3_Node000002_Node000004"><a xlink:title=" ">
<path fill="none" stroke="#9a32cd" stroke-dasharray="5,2" d="M153.8,-123.74C158.99,-117.24 165,-109.75 170.5,-103 175.34,-97.07 180.84,-90.44 185.13,-85.3"/>
<polygon fill="#9a32cd" stroke="#9a32cd" points="150.86,-121.82 147.37,-131.83 156.33,-126.18 150.86,-121.82"/>
</a>
</g>
<text text-anchor="middle" x="196.5" y="-106" font-family="Helvetica,sans-Serif" font-size="10.00" fill="grey"> segments</text>
</g>
<!-- Node5 -->
<g id="Node000005" class="node">
<title>Node5</title>
<g id="a_Node000005"><a xlink:href="structba__bit__stats__t.html" target="_top" xlink:title=" ">
<polygon fill="white" stroke="#666666" points="287,-151 202,-151 202,-132 287,-132 287,-151"/>
<text text-anchor="middle" x="244.5" y="-139" font-family="Helvetica,sans-Serif" font-size="10.00">ba_bit_stats_t</text>
</a>
</g>
</g>
<!-- Node5&#45;&gt;Node2 -->
<g id="edge4_Node000002_Node000005" class="edge">
<title>Node5&#45;&gt;Node2</title>
<g id="a_edge4_Node000002_Node000005"><a xlink:title=" ">
<path fill="none" stroke="#9a32cd" stroke-dasharray="5,2" d="M235.81,-123.1C232.13,-116.5 227.53,-109.11 222.5,-103 217.02,-96.35 209.81,-89.92 203.83,-85.07"/>
<polygon fill="#9a32cd" stroke="#9a32cd" points="232.72,-124.75 240.48,-131.97 238.91,-121.49 232.72,-124.75"/>
</a>
</g>
<text text-anchor="middle" x="252.5" y="-106" font-family="Helvetica,sans-Serif" font-size="10.00" fill="grey"> bit_stats</text>
</g>
<!-- Node6 -->
<g id="Node000006" class="node">
<title>Node6</title>
<g id="a_Node000006"><a xlink:href="structba__candidate__t.html" target="_top" xlink:title=" ">
<polygon fill="white" stroke="#666666" points="396,-151 305,-151 305,-132 396,-132 396,-151"/>
<text text-anchor="middle" x="350.5" y="-139" font-family="Helvetica,sans-Serif" font-size="10.00">ba_candidate_t</text>
</a>
</g>
</g>
<!-- Node6&#45;&gt;Node2 -->
<g id="edge5_Node000002_Node000006" class="edge">
<title>Node6&#45;&gt;Node2</title>
<g id="a_edge5_Node000002_Node000006"><a xlink:title=" ">
<path fill="none" stroke="#9a32cd" stroke-dasharray="5,2" d="M327.49,-126.92C313.85,-119.23 296.05,-109.82 279.5,-103 262.27,-95.9 242.44,-89.72 226.07,-85.11"/>
<polygon fill="#9a32cd" stroke="#9a32cd" points="325.79,-129.97 336.21,-131.91 329.27,-123.9 325.79,-129.97"/>
</a>
</g>
<text text-anchor="middle" x="330" y="-106" font-family="Helvetica,sans-Serif" font-size="10.00" fill="grey"> candidates</text>
</g>
</g>
</svg>
