<?xml version="1.0" encoding="UTF-8" standalone="no"?>
<!DOCTYPE svg PUBLIC "-//W3C//DTD SVG 1.1//EN"
 "http://www.w3.org/Graphics/SVG/1.1/DTD/svg11.dtd">
<!-- Generated by graphviz version 2.43.0 (0)
 -->
<!-- Title: bit_ui_t Pages: 1 -->
<svg width="404pt" height="159pt"
 viewBox="0.00 0.00 404.00 159.00" xmlns="http://www.w3.org/2000/svg" xmlns:xlink="http://www.w3.org/1999/xlink">

<svg id="main" version="1.1" xmlns="http://www.w3.org/2000/svg" xmlns:xlink="http://www.w3.org/1999/xlink" xml:space="preserve" onload="init(evt)">
<style type="text/css"><![CDATA[
.node, .edge {opacity: 0.7;}
.node.selected, .edge.selected {opacity: 1;}
.edge:hover path { stroke: red; }
.edge:hover polygon { stroke: red; fill: red; }
]]></style>
<script type="application/ecmascript" xlink:href="svg.min.js"/>
<svg id="graph" class="graph">
<g id="graph0" class="graph" transform="scale(1 1) rotate(0) translate(4 155)">
<title>bit_ui_t</title>
<!-- Node1 -->
<g id="Node000001" class="node">
<title>Node1</title>
<g id="a_Node000001"><a xlink:title=" ">
<polygon fill="#999999" stroke="#666666" points="273,-19 220,-19 220,0 273,0 273,-19"/>
<text text-anchor="middle" x="246.5" y="-7" font-family="Helvetica,sans-Serif" font-size="10.00">bit_ui_t</text>
</a>
</g>
</g>
<!-- Node2 -->
<g id="Node000002" class="node">
<title>Node2</title>
<g id="a_Node000002"><a xlink:href="structba__session__t.html" target="_top" xlink:title=" ">
<polygon fill="white" stroke="#666666" points="232.5,-85 152.5,-85 152.5,-66 232.5,-66 232.5,-85"/>
<text text-anchor="middle" x="192.5" y="-73" font-family="Helvetica,sans-Serif" font-size="10.00">ba_session_t</text>
</a>
</g>
</g>
<!-- Node2&#45;&gt;Node1 -->
<g id="edge1_Node000001_Node000002" class="edge">
<title>Node2&#45;&gt;Node1</title>
<g id="a_edge1_Node000001_Node000002"><a xlink:title=" ">
<path fill="none" stroke="#9a32cd" stroke-dasharray="5,2" d="M206.32,-58.12C216.71,-45.81 230.56,-29.39 238.99,-19.41"/>
<polygon fill="#9a32cd" stroke="#9a32cd" points="203.56,-55.97 199.78,-65.87 208.91,-60.48 203.56,-55.97"/>
</a>
</g>
<text text-anchor="middle" x="243.5" y="-40" font-family="Helvetica,sans-Serif" font-size="10.00" fill="grey"> session</text>
</g>
<!-- Node3 -->
<g id="Node000003" class="node">
<title>Node3</title>
<g id="a_Node000003"><a xlink:href="structba__sample__t.html" target="_top" xlink:title=" ">
<polygon fill="white" stroke="#666666" points="79,-151 0,-151 0,-132 79,-132 79,-151"/>
<text text-anchor="middle" x="39.5" y="-139" font-family="Helvetica,sans-Serif" font-size="10.00">ba_sample_t</text>
</a>
</g>
</g>
<!-- Node3&#45;&gt;Node2 -->
<g id="edge2_Node000002_Node000003" class="edge">
<title>Node3&#45;&gt;Node2</title>
<g id="a_edge2_Node000002_Node000003"><a xlink:title=" ">
<path fill="none" stroke="#9a32cd" stroke-dasharray="5,2" d="M63.89,-127.01C78.12,-119.43 96.55,-110.09 113.5,-103 129.78,-96.19 148.49,-89.85 163.61,-85.08"/>
<polygon fill="#9a32cd" stroke="#9a32cd" points="61.92,-124.1 54.78,-131.93 65.24,-130.26 61.92,-124.1"/>
</a>
</g>
<text text-anchor="middle" x="136" y="-106" font-family="Helvetica,sans-Serif" font-size="10.00" fill="grey"> samples</text>
</g>
<!-- Node4 -->
<g id="Node000004" class="node">
<title>Node4</title>
<g id="a_Node000004"><a xlink:href="structba__segment__t.html" target="_top" xlink:title=" ">
<polygon fill="white" stroke="#666666" points="183.5,-151 97.5,-151 97.5,-132 183.5,-132 183.5,-151"/>
<text text-anchor="middle" x="140.5" y="-139" font-family="Helvetica,sans-Serif" font-size="10.00">ba_segment_t</text>
</a>
</g>
</g>
<!-- Node4&#45;&gt;Node2 -->
<g id="edge3_Node000002_Node000004" class="edge">
<title>Node4&#45;&gt;Node2</title>
<g id="a_edge3_Node000002_Node000004"><a xlink:title=" ">
<path fill="none" stroke="#9a32cd" stroke-dasharray="5,2" d="M153.8,-123.74C158.99,-117.24 165,-109.75 170.5,-103 175.34,-97.07 180.84,-90.44 185.13,-85.3"/>
<polygon fill="#9a32cd" stroke="#9a32cd" points="150.86,-121.82 147.37,-131.83 156.33,-126.18 150.86,-121.82"/>
</a>
</g>
<text text-anchor="middle" x="196.5" y="-106" font-family="Helvetica,sans-Serif" font-size="10.00" fill="grey"> segments</text>
</g>
<!-- Node5 -->
<g id="Node000005" class="node">
<title>Node5</title>
<g id="a_Node000005"><a xlink:href="structba__bit__stats__t.html" target="_top" xlink:title=" ">
<polygon fill="white" stroke="#666666" points="287,-151 202,-151 202,-132 287,-132 287,-151"/>
<text text-anchor="middle" x="244.5" y="-139" font-family="Helvetica,sans-Serif" font-size="10.00">ba_bit_stats_t</text>
</a>
</g>
</g>
<!-- Node5&#45;&gt;Node2 -->
<g id="edge4_Node000002_Node000005" class="edge">
<title>Node5&#45;&gt;Node2</title>
<g id="a_edge4_Node000002_Node000005"><a xlink:title=" ">
<path fill="none" stroke="#9a32cd" stroke-dasharray="5,2" d="M235.81,-123.1C232.13,-116.5 227.53,-109.11 222.5,-103 217.02,-96.35 209.81,-89.92 203.83,-85.07"/>
<polygon fill="#9a32cd" stroke="#9a32cd" points="232.72,-124.75 240.48,-131.97 238.91,-121.49 232.72,-124.75"/>
</a>
</g>
<text text-anchor="middle" x="253.5" y="-106" font-family="Helvetica,sans-Serif" font-size="10.00" fill="grey"> bit_stats</text>
</g>
<!-- Node6 -->
<g id="Node000006" class="node">
<title>Node6</title>
<g id="a_Node000006"><a xlink:href="structba__candidate__t.html" target="_top" xlink:title=" ">
<polygon fill="white" stroke="#666666" points="396,-151 305,-151 305,-132 396,-132 396,-151"/>
<text text-anchor="middle" x="350.5" y="-139" font-family="Helvetica,sans-Serif" font-size="10.00">ba_candidate_t</text>
</a>
</g>
</g>
<!-- Node6&#45;&gt;Node2 -->
<g id="edge5_Node000002_Node000006" class="edge">
<title>Node6&#45;&gt;Node2</title>
<g id="a_edge5_Node000002_Node000006"><a xlink:title=" ">
<path fill="none" stroke="#9a32cd" stroke-dasharray="5,2" d="M327.46,-126.65C314.07,-118.99 296.7,-109.7 280.5,-103 263.1,-95.8 243.05,-89.61 226.48,-85.03"/>
<polygon fill="#9a32cd" stroke="#9a32cd" points="326.03,-129.87 336.43,-131.88 329.55,-123.82 326.03,-129.87"/>
</a>
</g>
<text text-anchor="middle" x="330" y="-106" font-family="Helvetica,sans-Serif" font-size="10.00" fill="grey"> candidates</text>
</g>
<!-- Node7 -->
<g id="Node000007" class="node">
<title>Node7</title>
<g id="a_Node000007"><a xlink:href="structba__survey__row__t.html" target="_top" xlink:title=" ">
<polygon fill="white" stroke="#666666" points="350,-85 251,-85 251,-66 350,-66 350,-85"/>
<text text-anchor="middle" x="300.5" y="-73" font-family="Helvetica,sans-Serif" font-size="10.00">ba_survey_row_t</text>
</a>
</g>
</g>
<!-- Node7&#45;&gt;Node1 -->
<g id="edge6_Node000001_Node000007" class="edge">
<title>Node7&#45;&gt;Node1</title>
<g id="a_edge6_Node000001_Node000007"><a xlink:title=" ">
<path fill="none" stroke="#9a32cd" stroke-dasharray="5,2" d="M286.68,-58.12C276.29,-45.81 262.44,-29.39 254.01,-19.41"/>
<polygon fill="#9a32cd" stroke="#9a32cd" points="284.09,-60.48 293.22,-65.87 289.44,-55.97 284.09,-60.48"/>
</a>
</g>
<text text-anchor="middle" x="295" y="-40" font-family="Helvetica,sans-Serif" font-size="10.00" fill="grey"> survey</text>
</g>
</g>
</svg>
</svg>

<style type='text/css'>
<![CDATA[
[data-mouse-over-selected='false'] { opacity: 0.7; }
[data-mouse-over-selected='true']  { opacity: 1.0; }
]]>
</style>
<script type="application/ecmascript"><![CDATA[
document.addEventListener('DOMContentLoaded', (event) => {
  highlightEdges();
  highlightAdjacentNodes();
});
]]></script>
</svg>
