<?xml version="1.0" encoding="UTF-8" standalone="no"?>
<!DOCTYPE svg PUBLIC "-//W3C//DTD SVG 1.1//EN"
 "http://www.w3.org/Graphics/SVG/1.1/DTD/svg11.dtd">
<!-- Generated by graphviz version 2.43.0 (0)
 -->
<!-- Title: tests/test_bit_analysis.c Pages: 1 -->
<svg width="598pt" height="192pt"
 viewBox="0.00 0.00 598.00 192.00" xmlns="http://www.w3.org/2000/svg" xmlns:xlink="http://www.w3.org/1999/xlink">
<g id="graph0" class="graph" transform="scale(1 1) rotate(0) translate(4 188)">
<title>tests/test_bit_analysis.c</title>
<!-- Node1 -->
<g id="Node000001" class="node">
<title>Node1</title>
<g id="a_Node000001"><a xlink:title="Focused regression tests for the Bit Analysis engine and DBC promotion.">
<polygon fill="#999999" stroke="#666666" points="329.5,-184 195.5,-184 195.5,-165 329.5,-165 329.5,-184"/>
<text text-anchor="middle" x="262.5" y="-172" font-family="Helvetica,sans-Serif" font-size="10.00">tests/test_bit_analysis.c</text>
</a>
</g>
</g>
<!-- Node2 -->
<g id="Node000002" class="node">
<title>Node2</title>
<g id="a_Node000002"><a xlink:title=" ">
<polygon fill="#e0e0e0" stroke="#999999" points="51,-129 0,-129 0,-110 51,-110 51,-129"/>
<text text-anchor="middle" x="25.5" y="-117" font-family="Helvetica,sans-Serif" font-size="10.00">math.h</text>
</a>
</g>
</g>
<!-- Node1&#45;&gt;Node2 -->
<g id="edge1_Node000001_Node000002" class="edge">
<title>Node1&#45;&gt;Node2</title>
<g id="a_edge1_Node000001_Node000002"><a xlink:title=" ">
<path fill="none" stroke="#63b8ff" d="M222.58,-164.97C183.87,-156.64 123.2,-143.43 61.08,-129.09"/>
<polygon fill="#63b8ff" stroke="#63b8ff" points="61.63,-125.63 51.1,-126.78 60.05,-132.45 61.63,-125.63"/>
</a>
</g>
</g>
<!-- Node3 -->
<g id="Node000003" class="node">
<title>Node3</title>
<g id="a_Node000003"><a xlink:title=" ">
<polygon fill="#e0e0e0" stroke="#999999" points="119.5,-129 69.5,-129 69.5,-110 119.5,-110 119.5,-129"/>
<text text-anchor="middle" x="94.5" y="-117" font-family="Helvetica,sans-Serif" font-size="10.00">stdio.h</text>
</a>
</g>
</g>
<!-- Node1&#45;&gt;Node3 -->
<g id="edge2_Node000001_Node000003" class="edge">
<title>Node1&#45;&gt;Node3</title>
<g id="a_edge2_Node000001_Node000003"><a xlink:title=" ">
<path fill="none" stroke="#63b8ff" d="M235.51,-164.98C206.63,-155.88 160.74,-141.4 129.2,-131.45"/>
<polygon fill="#63b8ff" stroke="#63b8ff" points="130.1,-128.06 119.51,-128.39 127.99,-134.74 130.1,-128.06"/>
</a>
</g>
</g>
<!-- Node4 -->
<g id="Node000004" class="node">
<title>Node4</title>
<g id="a_Node000004"><a xlink:title=" ">
<polygon fill="#e0e0e0" stroke="#999999" points="191,-129 138,-129 138,-110 191,-110 191,-129"/>
<text text-anchor="middle" x="164.5" y="-117" font-family="Helvetica,sans-Serif" font-size="10.00">stdlib.h</text>
</a>
</g>
</g>
<!-- Node1&#45;&gt;Node4 -->
<g id="edge3_Node000001_Node000004" class="edge">
<title>Node1&#45;&gt;Node4</title>
<g id="a_edge3_Node000001_Node000004"><a xlink:title=" ">
<path fill="none" stroke="#63b8ff" d="M246.75,-164.98C231.27,-156.61 207.41,-143.7 189.36,-133.95"/>
<polygon fill="#63b8ff" stroke="#63b8ff" points="190.99,-130.85 180.53,-129.17 187.66,-137.01 190.99,-130.85"/>
</a>
</g>
</g>
<!-- Node5 -->
<g id="Node000005" class="node">
<title>Node5</title>
<g id="a_Node000005"><a xlink:title=" ">
<polygon fill="#e0e0e0" stroke="#999999" points="262,-129 209,-129 209,-110 262,-110 262,-129"/>
<text text-anchor="middle" x="235.5" y="-117" font-family="Helvetica,sans-Serif" font-size="10.00">string.h</text>
</a>
</g>
</g>
<!-- Node1&#45;&gt;Node5 -->
<g id="edge4_Node000001_Node000005" class="edge">
<title>Node1&#45;&gt;Node5</title>
<g id="a_edge4_Node000001_Node000005"><a xlink:title=" ">
<path fill="none" stroke="#63b8ff" d="M258.04,-164.75C254.38,-157.57 249.09,-147.18 244.55,-138.27"/>
<polygon fill="#63b8ff" stroke="#63b8ff" points="247.53,-136.41 239.88,-129.09 241.3,-139.59 247.53,-136.41"/>
</a>
</g>
</g>
<!-- Node6 -->
<g id="Node000006" class="node">
<title>Node6</title>
<g id="a_Node000006"><a xlink:title=" ">
<polygon fill="#e0e0e0" stroke="#999999" points="352.5,-19 304.5,-19 304.5,0 352.5,0 352.5,-19"/>
<text text-anchor="middle" x="328.5" y="-7" font-family="Helvetica,sans-Serif" font-size="10.00">time.h</text>
</a>
</g>
</g>
<!-- Node1&#45;&gt;Node6 -->
<g id="edge5_Node000001_Node000006" class="edge">
<title>Node1&#45;&gt;Node6</title>
<g id="a_edge5_Node000001_Node000006"><a xlink:title=" ">
<path fill="none" stroke="#63b8ff" d="M266.05,-164.74C276.43,-139.09 306.93,-63.78 321.1,-28.78"/>
<polygon fill="#63b8ff" stroke="#63b8ff" points="324.43,-29.89 324.93,-19.31 317.94,-27.26 324.43,-29.89"/>
</a>
</g>
</g>
<!-- Node7 -->
<g id="Node000007" class="node">
<title>Node7</title>
<g id="a_Node000007"><a xlink:title=" ">
<polygon fill="#e0e0e0" stroke="#999999" points="374.5,-129 318.5,-129 318.5,-110 374.5,-110 374.5,-129"/>
<text text-anchor="middle" x="346.5" y="-117" font-family="Helvetica,sans-Serif" font-size="10.00">unistd.h</text>
</a>
</g>
</g>
<!-- Node1&#45;&gt;Node7 -->
<g id="edge6_Node000001_Node000007" class="edge">
<title>Node1&#45;&gt;Node7</title>
<g id="a_edge6_Node000001_Node000007"><a xlink:title=" ">
<path fill="none" stroke="#63b8ff" d="M276,-164.98C288.9,-156.84 308.6,-144.41 323.9,-134.76"/>
<polygon fill="#63b8ff" stroke="#63b8ff" points="326.17,-137.47 332.76,-129.17 322.43,-131.55 326.17,-137.47"/>
</a>
</g>
</g>
<!-- Node8 -->
<g id="Node000008" class="node">
<title>Node8</title>
<g id="a_Node000008"><a xlink:href="bit__analysis_8h.html" target="_top" xlink:title="GTK&#45;independent engine for CAN payload bit analysis.">
<polygon fill="white" stroke="#666666" points="502.5,-129 392.5,-129 392.5,-110 502.5,-110 502.5,-129"/>
<text text-anchor="middle" x="447.5" y="-117" font-family="Helvetica,sans-Serif" font-size="10.00">../inc/bit_analysis.h</text>
</a>
</g>
</g>
<!-- Node1&#45;&gt;Node8 -->
<g id="edge7_Node000001_Node000008" class="edge">
<title>Node1&#45;&gt;Node8</title>
<g id="a_edge7_Node000001_Node000008"><a xlink:title=" ">
<path fill="none" stroke="#63b8ff" d="M292.22,-164.98C323.55,-156.01 373.07,-141.82 407.74,-131.89"/>
<polygon fill="#63b8ff" stroke="#63b8ff" points="408.89,-135.2 417.54,-129.08 406.97,-128.47 408.89,-135.2"/>
</a>
</g>
</g>
<!-- Node12 -->
<g id="Node000012" class="node">
<title>Node12</title>
<g id="a_Node000012"><a xlink:href="dbc_8h.html" target="_top" xlink:title="Minimal CAN database (DBC) model, parser, and signal decoder.">
<polygon fill="white" stroke="#666666" points="590,-129 521,-129 521,-110 590,-110 590,-129"/>
<text text-anchor="middle" x="555.5" y="-117" font-family="Helvetica,sans-Serif" font-size="10.00">../inc/dbc.h</text>
</a>
</g>
</g>
<!-- Node1&#45;&gt;Node12 -->
<g id="edge14_Node000001_Node000012" class="edge">
<title>Node1&#45;&gt;Node12</title>
<g id="a_edge14_Node000001_Node000012"><a xlink:title=" ">
<path fill="none" stroke="#63b8ff" d="M311.67,-164.92C359.77,-156.48 435.36,-143.1 510.77,-129.11"/>
<polygon fill="#63b8ff" stroke="#63b8ff" points="511.73,-132.5 520.92,-127.23 510.45,-125.61 511.73,-132.5"/>
</a>
</g>
</g>
<!-- Node8&#45;&gt;Node6 -->
<g id="edge10_Node000008_Node000006" class="edge">
<title>Node8&#45;&gt;Node6</title>
<g id="a_edge10_Node000008_Node000006"><a xlink:title=" ">
<path fill="none" stroke="#63b8ff" d="M409.55,-109.95C388.56,-103.39 363.56,-92.26 347.5,-74 336.69,-61.71 332.03,-43.49 330.02,-29.71"/>
<polygon fill="#63b8ff" stroke="#63b8ff" points="333.46,-28.96 328.88,-19.41 326.5,-29.73 333.46,-28.96"/>
</a>
</g>
</g>
<!-- Node9 -->
<g id="Node000009" class="node">
<title>Node9</title>
<g id="a_Node000009"><a xlink:title=" ">
<polygon fill="#e0e0e0" stroke="#999999" points="560.5,-74 504.5,-74 504.5,-55 560.5,-55 560.5,-74"/>
<text text-anchor="middle" x="532.5" y="-62" font-family="Helvetica,sans-Serif" font-size="10.00">stddef.h</text>
</a>
</g>
</g>
<!-- Node8&#45;&gt;Node9 -->
<g id="edge8_Node000008_Node000009" class="edge">
<title>Node8&#45;&gt;Node9</title>
<g id="a_edge8_Node000008_Node000009"><a xlink:title=" ">
<path fill="none" stroke="#63b8ff" d="M461.16,-109.98C474.34,-101.77 494.53,-89.18 510.07,-79.49"/>
<polygon fill="#63b8ff" stroke="#63b8ff" points="511.96,-82.43 518.59,-74.17 508.26,-76.49 511.96,-82.43"/>
</a>
</g>
</g>
<!-- Node10 -->
<g id="Node000010" class="node">
<title>Node10</title>
<g id="a_Node000010"><a xlink:title=" ">
<polygon fill="#e0e0e0" stroke="#999999" points="503,-19 450,-19 450,0 503,0 503,-19"/>
<text text-anchor="middle" x="476.5" y="-7" font-family="Helvetica,sans-Serif" font-size="10.00">stdint.h</text>
</a>
</g>
</g>
<!-- Node8&#45;&gt;Node10 -->
<g id="edge9_Node000008_Node000010" class="edge">
<title>Node8&#45;&gt;Node10</title>
<g id="a_edge9_Node000008_Node000010"><a xlink:title=" ">
<path fill="none" stroke="#63b8ff" d="M449.87,-109.66C454.59,-92.09 465.24,-52.45 471.54,-28.95"/>
<polygon fill="#63b8ff" stroke="#63b8ff" points="474.96,-29.72 474.18,-19.16 468.2,-27.91 474.96,-29.72"/>
</a>
</g>
</g>
<!-- Node11 -->
<g id="Node000011" class="node">
<title>Node11</title>
<g id="a_Node000011"><a xlink:href="can__message_8h.html" target="_top" xlink:title="Hardware&#45;independent CAN/CAN FD message and statistics data types.">
<polygon fill="white" stroke="#666666" points="448.5,-74 356.5,-74 356.5,-55 448.5,-55 448.5,-74"/>
<text text-anchor="middle" x="402.5" y="-62" font-family="Helvetica,sans-Serif" font-size="10.00">can_message.h</text>
</a>
</g>
</g>
<!-- Node8&#45;&gt;Node11 -->
<g id="edge11_Node000008_Node000011" class="edge">
<title>Node8&#45;&gt;Node11</title>
<g id="a_edge11_Node000008_Node000011"><a xlink:title=" ">
<path fill="none" stroke="#63b8ff" d="M440.07,-109.75C433.65,-102.18 424.19,-91.05 416.38,-81.84"/>
<polygon fill="#63b8ff" stroke="#63b8ff" points="418.93,-79.45 409.79,-74.09 413.6,-83.98 418.93,-79.45"/>
</a>
</g>
</g>
<!-- Node11&#45;&gt;Node6 -->
<g id="edge13_Node000011_Node000006" class="edge">
<title>Node11&#45;&gt;Node6</title>
<g id="a_edge13_Node000011_Node000006"><a xlink:title=" ">
<path fill="none" stroke="#63b8ff" d="M390.61,-54.98C379.35,-46.92 362.21,-34.65 348.79,-25.03"/>
<polygon fill="#63b8ff" stroke="#63b8ff" points="350.77,-22.15 340.61,-19.17 346.7,-27.84 350.77,-22.15"/>
</a>
</g>
</g>
<!-- Node11&#45;&gt;Node10 -->
<g id="edge12_Node000011_Node000010" class="edge">
<title>Node11&#45;&gt;Node10</title>
<g id="a_edge12_Node000011_Node000010"><a xlink:title=" ">
<path fill="none" stroke="#63b8ff" d="M414.39,-54.98C425.65,-46.92 442.79,-34.65 456.21,-25.03"/>
<polygon fill="#63b8ff" stroke="#63b8ff" points="458.3,-27.84 464.39,-19.17 454.23,-22.15 458.3,-27.84"/>
</a>
</g>
</g>
<!-- Node12&#45;&gt;Node9 -->
<g id="edge15_Node000012_Node000009" class="edge">
<title>Node12&#45;&gt;Node9</title>
<g id="a_edge15_Node000012_Node000009"><a xlink:title=" ">
<path fill="none" stroke="#63b8ff" d="M551.7,-109.75C548.59,-102.57 544.08,-92.18 540.21,-83.27"/>
<polygon fill="#63b8ff" stroke="#63b8ff" points="543.42,-81.87 536.23,-74.09 537,-84.66 543.42,-81.87"/>
</a>
</g>
</g>
<!-- Node12&#45;&gt;Node10 -->
<g id="edge16_Node000012_Node000010" class="edge">
<title>Node12&#45;&gt;Node10</title>
<g id="a_edge16_Node000012_Node000010"><a xlink:title=" ">
<path fill="none" stroke="#63b8ff" d="M561.33,-109.58C569.01,-96.6 580.33,-72.19 569.5,-55 557.12,-35.35 533.39,-24.19 513.01,-17.96"/>
<polygon fill="#63b8ff" stroke="#63b8ff" points="513.9,-14.57 503.33,-15.28 512.03,-21.32 513.9,-14.57"/>
</a>
</g>
</g>
</g>
</svg>
