<?xml version="1.0" encoding="UTF-8" standalone="no"?>
<!DOCTYPE svg PUBLIC "-//W3C//DTD SVG 1.1//EN"
 "http://www.w3.org/Graphics/SVG/1.1/DTD/svg11.dtd">
<!-- Generated by graphviz version 2.43.0 (0)
 -->
<!-- Title: gui/threads.c Pages: 1 -->
<svg width="783pt" height="302pt"
 viewBox="0.00 0.00 783.00 302.00" xmlns="http://www.w3.org/2000/svg" xmlns:xlink="http://www.w3.org/1999/xlink">
<g id="graph0" class="graph" transform="scale(1 1) rotate(0) translate(4 298)">
<title>gui/threads.c</title>
<!-- Node1 -->
<g id="Node000001" class="node">
<title>Node1</title>
<g id="a_Node000001"><a xlink:title="Background worker threads, global state, and connect/disconnect logic.">
<polygon fill="#999999" stroke="#666666" points="504,-294 424,-294 424,-275 504,-275 504,-294"/>
<text text-anchor="middle" x="464" y="-282" font-family="Helvetica,sans-Serif" font-size="10.00">gui/threads.c</text>
</a>
</g>
</g>
<!-- Node2 -->
<g id="Node000002" class="node">
<title>Node2</title>
<g id="a_Node000002"><a xlink:title=" ">
<polygon fill="#e0e0e0" stroke="#999999" points="50,-129 0,-129 0,-110 50,-110 50,-129"/>
<text text-anchor="middle" x="25" y="-117" font-family="Helvetica,sans-Serif" font-size="10.00">stdio.h</text>
</a>
</g>
</g>
<!-- Node1&#45;&gt;Node2 -->
<g id="edge1_Node000001_Node000002" class="edge">
<title>Node1&#45;&gt;Node2</title>
<g id="a_edge1_Node000001_Node000002"><a xlink:title=" ">
<path fill="none" stroke="#63b8ff" d="M423.93,-283.89C365.91,-283.05 256.24,-276.1 172,-239 116.24,-214.44 63.95,-163.07 39.49,-136.77"/>
<polygon fill="#63b8ff" stroke="#63b8ff" points="41.89,-134.21 32.56,-129.18 36.72,-138.93 41.89,-134.21"/>
</a>
</g>
</g>
<!-- Node3 -->
<g id="Node000003" class="node">
<title>Node3</title>
<g id="a_Node000003"><a xlink:title=" ">
<polygon fill="#e0e0e0" stroke="#999999" points="641.5,-239 588.5,-239 588.5,-220 641.5,-220 641.5,-239"/>
<text text-anchor="middle" x="615" y="-227" font-family="Helvetica,sans-Serif" font-size="10.00">stdlib.h</text>
</a>
</g>
</g>
<!-- Node1&#45;&gt;Node3 -->
<g id="edge2_Node000001_Node000003" class="edge">
<title>Node1&#45;&gt;Node3</title>
<g id="a_edge2_Node000001_Node000003"><a xlink:title=" ">
<path fill="none" stroke="#63b8ff" d="M488.26,-274.98C513.32,-266.19 552.63,-252.39 580.83,-242.49"/>
<polygon fill="#63b8ff" stroke="#63b8ff" points="582.02,-245.78 590.3,-239.17 579.7,-239.18 582.02,-245.78"/>
</a>
</g>
</g>
<!-- Node4 -->
<g id="Node000004" class="node">
<title>Node4</title>
<g id="a_Node000004"><a xlink:title=" ">
<polygon fill="#e0e0e0" stroke="#999999" points="712.5,-239 659.5,-239 659.5,-220 712.5,-220 712.5,-239"/>
<text text-anchor="middle" x="686" y="-227" font-family="Helvetica,sans-Serif" font-size="10.00">string.h</text>
</a>
</g>
</g>
<!-- Node1&#45;&gt;Node4 -->
<g id="edge3_Node000001_Node000004" class="edge">
<title>Node1&#45;&gt;Node4</title>
<g id="a_edge3_Node000001_Node000004"><a xlink:title=" ">
<path fill="none" stroke="#63b8ff" d="M500.21,-274.94C535.83,-266.5 592.03,-253.16 649.3,-239.4"/>
<polygon fill="#63b8ff" stroke="#63b8ff" points="650.34,-242.75 659.25,-237.01 648.71,-235.94 650.34,-242.75"/>
</a>
</g>
</g>
<!-- Node5 -->
<g id="Node000005" class="node">
<title>Node5</title>
<g id="a_Node000005"><a xlink:title=" ">
<polygon fill="#e0e0e0" stroke="#999999" points="341,-19 293,-19 293,0 341,0 341,-19"/>
<text text-anchor="middle" x="317" y="-7" font-family="Helvetica,sans-Serif" font-size="10.00">time.h</text>
</a>
</g>
</g>
<!-- Node1&#45;&gt;Node5 -->
<g id="edge4_Node000001_Node000005" class="edge">
<title>Node1&#45;&gt;Node5</title>
<g id="a_edge4_Node000001_Node000005"><a xlink:title=" ">
<path fill="none" stroke="#63b8ff" d="M480.29,-274.92C507.67,-259.18 560,-222.91 560,-175.5 560,-175.5 560,-175.5 560,-118.5 560,-28.23 418.23,-12.85 351.26,-10.62"/>
<polygon fill="#63b8ff" stroke="#63b8ff" points="351.27,-7.12 341.19,-10.37 351.1,-14.12 351.27,-7.12"/>
</a>
</g>
</g>
<!-- Node6 -->
<g id="Node000006" class="node">
<title>Node6</title>
<g id="a_Node000006"><a xlink:title=" ">
<polygon fill="#e0e0e0" stroke="#999999" points="131.5,-129 68.5,-129 68.5,-110 131.5,-110 131.5,-129"/>
<text text-anchor="middle" x="100" y="-117" font-family="Helvetica,sans-Serif" font-size="10.00">pthread.h</text>
</a>
</g>
</g>
<!-- Node1&#45;&gt;Node6 -->
<g id="edge5_Node000001_Node000006" class="edge">
<title>Node1&#45;&gt;Node6</title>
<g id="a_edge5_Node000001_Node000006"><a xlink:title=" ">
<path fill="none" stroke="#63b8ff" d="M423.78,-280.37C375.16,-275.62 291.46,-264.29 224,-239 179.04,-222.14 163.57,-219.29 131,-184 119.05,-171.05 110.75,-152.65 105.77,-138.99"/>
<polygon fill="#63b8ff" stroke="#63b8ff" points="108.99,-137.59 102.48,-129.24 102.36,-139.83 108.99,-137.59"/>
</a>
</g>
</g>
<!-- Node7 -->
<g id="Node000007" class="node">
<title>Node7</title>
<g id="a_Node000007"><a xlink:title=" ">
<polygon fill="#e0e0e0" stroke="#999999" points="775,-239 731,-239 731,-220 775,-220 775,-239"/>
<text text-anchor="middle" x="753" y="-227" font-family="Helvetica,sans-Serif" font-size="10.00">glib.h</text>
</a>
</g>
</g>
<!-- Node1&#45;&gt;Node7 -->
<g id="edge6_Node000001_Node000007" class="edge">
<title>Node1&#45;&gt;Node7</title>
<g id="a_edge6_Node000001_Node000007"><a xlink:title=" ">
<path fill="none" stroke="#63b8ff" d="M504.01,-277.83C552.94,-270.62 638.46,-257.16 720.7,-239.11"/>
<polygon fill="#63b8ff" stroke="#63b8ff" points="721.71,-242.47 730.71,-236.89 720.19,-235.64 721.71,-242.47"/>
</a>
</g>
</g>
<!-- Node8 -->
<g id="Node000008" class="node">
<title>Node8</title>
<g id="a_Node000008"><a xlink:title=" ">
<polygon fill="#e0e0e0" stroke="#999999" points="494,-184 434,-184 434,-165 494,-165 494,-184"/>
<text text-anchor="middle" x="464" y="-172" font-family="Helvetica,sans-Serif" font-size="10.00">gtk/gtk.h</text>
</a>
</g>
</g>
<!-- Node1&#45;&gt;Node8 -->
<g id="edge7_Node000001_Node000008" class="edge">
<title>Node1&#45;&gt;Node8</title>
<g id="a_edge7_Node000001_Node000008"><a xlink:title=" ">
<path fill="none" stroke="#63b8ff" d="M464,-274.66C464,-257.17 464,-217.8 464,-194.27"/>
<polygon fill="#63b8ff" stroke="#63b8ff" points="467.5,-194.16 464,-184.16 460.5,-194.16 467.5,-194.16"/>
</a>
</g>
</g>
<!-- Node9 -->
<g id="Node000009" class="node">
<title>Node9</title>
<g id="a_Node000009"><a xlink:href="app__state_8h.html" target="_top" xlink:title="Global application state shared across the GUI and worker threads.">
<polygon fill="white" stroke="#666666" points="240,-184 140,-184 140,-165 240,-165 240,-184"/>
<text text-anchor="middle" x="190" y="-172" font-family="Helvetica,sans-Serif" font-size="10.00">../inc/app_state.h</text>
</a>
</g>
</g>
<!-- Node1&#45;&gt;Node9 -->
<g id="edge8_Node000001_Node000009" class="edge">
<title>Node1&#45;&gt;Node9</title>
<g id="a_edge8_Node000001_Node000009"><a xlink:title=" ">
<path fill="none" stroke="#63b8ff" d="M423.77,-281.7C379.7,-278.26 308.11,-268.22 254,-239 232.79,-227.54 213.93,-206.89 202.28,-192.25"/>
<polygon fill="#63b8ff" stroke="#63b8ff" points="204.85,-189.85 195.99,-184.04 199.3,-194.11 204.85,-189.85"/>
</a>
</g>
</g>
<!-- Node11 -->
<g id="Node000011" class="node">
<title>Node11</title>
<g id="a_Node000011"><a xlink:href="can__message_8h.html" target="_top" xlink:title="Hardware&#45;independent CAN/CAN FD message and statistics data types.">
<polygon fill="white" stroke="#666666" points="328,-74 236,-74 236,-55 328,-55 328,-74"/>
<text text-anchor="middle" x="282" y="-62" font-family="Helvetica,sans-Serif" font-size="10.00">can_message.h</text>
</a>
</g>
</g>
<!-- Node1&#45;&gt;Node11 -->
<g id="edge27_Node000001_Node000011" class="edge">
<title>Node1&#45;&gt;Node11</title>
<g id="a_edge27_Node000001_Node000011"><a xlink:title=" ">
<path fill="none" stroke="#63b8ff" d="M471.14,-274.73C486.37,-254.87 519.39,-205.1 503,-165 477.14,-101.75 395.16,-78.71 338.66,-70.31"/>
<polygon fill="#63b8ff" stroke="#63b8ff" points="338.81,-66.8 328.43,-68.91 337.86,-73.73 338.81,-66.8"/>
</a>
</g>
</g>
<!-- Node12 -->
<g id="Node000012" class="node">
<title>Node12</title>
<g id="a_Node000012"><a xlink:href="drv__can_8h.html" target="_top" xlink:title="Generic CAN driver abstraction (vtable) and thin wrapper API.">
<polygon fill="white" stroke="#666666" points="290,-129 226,-129 226,-110 290,-110 290,-129"/>
<text text-anchor="middle" x="258" y="-117" font-family="Helvetica,sans-Serif" font-size="10.00">drv_can.h</text>
</a>
</g>
</g>
<!-- Node1&#45;&gt;Node12 -->
<g id="edge18_Node000001_Node000012" class="edge">
<title>Node1&#45;&gt;Node12</title>
<g id="a_edge18_Node000001_Node000012"><a xlink:title=" ">
<path fill="none" stroke="#63b8ff" d="M423.87,-276.38C397.13,-270.07 362.38,-258.69 337,-239 301.8,-211.69 277.02,-164.12 265.42,-138.34"/>
<polygon fill="#63b8ff" stroke="#63b8ff" points="268.58,-136.82 261.39,-129.04 262.16,-139.6 268.58,-136.82"/>
</a>
</g>
</g>
<!-- Node13 -->
<g id="Node000013" class="node">
<title>Node13</title>
<g id="a_Node000013"><a xlink:href="gui_8h.html" target="_top" xlink:title="GTK GUI widget registry and the application&#39;s GUI/thread API.">
<polygon fill="white" stroke="#666666" points="412.5,-239 345.5,-239 345.5,-220 412.5,-220 412.5,-239"/>
<text text-anchor="middle" x="379" y="-227" font-family="Helvetica,sans-Serif" font-size="10.00">../inc/gui.h</text>
</a>
</g>
</g>
<!-- Node1&#45;&gt;Node13 -->
<g id="edge19_Node000001_Node000013" class="edge">
<title>Node1&#45;&gt;Node13</title>
<g id="a_edge19_Node000001_Node000013"><a xlink:title=" ">
<path fill="none" stroke="#63b8ff" d="M450.34,-274.98C437.16,-266.77 416.97,-254.18 401.43,-244.49"/>
<polygon fill="#63b8ff" stroke="#63b8ff" points="403.24,-241.49 392.91,-239.17 399.54,-247.43 403.24,-241.49"/>
</a>
</g>
</g>
<!-- Node9&#45;&gt;Node2 -->
<g id="edge11_Node000009_Node000002" class="edge">
<title>Node9&#45;&gt;Node2</title>
<g id="a_edge11_Node000009_Node000002"><a xlink:title=" ">
<path fill="none" stroke="#63b8ff" d="M163.49,-164.98C135.3,-155.93 90.58,-141.57 59.62,-131.62"/>
<polygon fill="#63b8ff" stroke="#63b8ff" points="60.68,-128.29 50.09,-128.56 58.54,-134.95 60.68,-128.29"/>
</a>
</g>
</g>
<!-- Node9&#45;&gt;Node6 -->
<g id="edge9_Node000009_Node000006" class="edge">
<title>Node9&#45;&gt;Node6</title>
<g id="a_edge9_Node000009_Node000006"><a xlink:title=" ">
<path fill="none" stroke="#63b8ff" d="M175.54,-164.98C161.58,-156.77 140.21,-144.18 123.75,-134.49"/>
<polygon fill="#63b8ff" stroke="#63b8ff" points="125.12,-131.23 114.72,-129.17 121.56,-137.26 125.12,-131.23"/>
</a>
</g>
</g>
<!-- Node10 -->
<g id="Node000010" class="node">
<title>Node10</title>
<g id="a_Node000010"><a xlink:title=" ">
<polygon fill="#e0e0e0" stroke="#999999" points="272.5,-19 219.5,-19 219.5,0 272.5,0 272.5,-19"/>
<text text-anchor="middle" x="246" y="-7" font-family="Helvetica,sans-Serif" font-size="10.00">stdint.h</text>
</a>
</g>
</g>
<!-- Node9&#45;&gt;Node10 -->
<g id="edge10_Node000009_Node000010" class="edge">
<title>Node9&#45;&gt;Node10</title>
<g id="a_edge10_Node000009_Node000010"><a xlink:title=" ">
<path fill="none" stroke="#63b8ff" d="M191.01,-164.77C192.56,-152.43 195.88,-129.25 201,-110 207.69,-84.86 210.15,-78.64 221,-55 225.2,-45.84 230.61,-36.03 235.32,-27.96"/>
<polygon fill="#63b8ff" stroke="#63b8ff" points="238.46,-29.52 240.59,-19.14 232.45,-25.93 238.46,-29.52"/>
</a>
</g>
</g>
<!-- Node9&#45;&gt;Node11 -->
<g id="edge12_Node000009_Node000011" class="edge">
<title>Node9&#45;&gt;Node11</title>
<g id="a_edge12_Node000009_Node000011"><a xlink:title=" ">
<path fill="none" stroke="#63b8ff" d="M192,-164.88C195.37,-151.85 203.18,-126.87 217,-110 227.39,-97.31 242.31,-86.75 255.23,-79.1"/>
<polygon fill="#63b8ff" stroke="#63b8ff" points="257.19,-82.01 264.19,-74.06 253.76,-75.91 257.19,-82.01"/>
</a>
</g>
</g>
<!-- Node9&#45;&gt;Node12 -->
<g id="edge15_Node000009_Node000012" class="edge">
<title>Node9&#45;&gt;Node12</title>
<g id="a_edge15_Node000009_Node000012"><a xlink:title=" ">
<path fill="none" stroke="#63b8ff" d="M200.93,-164.98C211.08,-157.07 226.42,-145.11 238.65,-135.58"/>
<polygon fill="#63b8ff" stroke="#63b8ff" points="241.14,-138.08 246.88,-129.17 236.84,-132.56 241.14,-138.08"/>
</a>
</g>
</g>
<!-- Node11&#45;&gt;Node5 -->
<g id="edge14_Node000011_Node000005" class="edge">
<title>Node11&#45;&gt;Node5</title>
<g id="a_edge14_Node000011_Node000005"><a xlink:title=" ">
<path fill="none" stroke="#63b8ff" d="M287.78,-54.75C292.62,-47.42 299.68,-36.73 305.64,-27.7"/>
<polygon fill="#63b8ff" stroke="#63b8ff" points="308.74,-29.36 311.33,-19.09 302.9,-25.5 308.74,-29.36"/>
</a>
</g>
</g>
<!-- Node11&#45;&gt;Node10 -->
<g id="edge13_Node000011_Node000010" class="edge">
<title>Node11&#45;&gt;Node10</title>
<g id="a_edge13_Node000011_Node000010"><a xlink:title=" ">
<path fill="none" stroke="#63b8ff" d="M276.06,-54.75C271.02,-47.34 263.66,-36.5 257.49,-27.41"/>
<polygon fill="#63b8ff" stroke="#63b8ff" points="260.35,-25.39 251.83,-19.09 254.56,-29.33 260.35,-25.39"/>
</a>
</g>
</g>
<!-- Node12&#45;&gt;Node10 -->
<g id="edge16_Node000012_Node000010" class="edge">
<title>Node12&#45;&gt;Node10</title>
<g id="a_edge16_Node000012_Node000010"><a xlink:title=" ">
<path fill="none" stroke="#63b8ff" d="M249.52,-109.85C241.95,-101.47 231.4,-88.01 227,-74 222.16,-58.58 228.35,-40.97 234.92,-28.21"/>
<polygon fill="#63b8ff" stroke="#63b8ff" points="238.17,-29.57 240.07,-19.15 232.09,-26.11 238.17,-29.57"/>
</a>
</g>
</g>
<!-- Node12&#45;&gt;Node11 -->
<g id="edge17_Node000012_Node000011" class="edge">
<title>Node12&#45;&gt;Node11</title>
<g id="a_edge17_Node000012_Node000011"><a xlink:title=" ">
<path fill="none" stroke="#63b8ff" d="M261.96,-109.75C265.21,-102.57 269.92,-92.18 273.95,-83.27"/>
<polygon fill="#63b8ff" stroke="#63b8ff" points="277.17,-84.64 278.11,-74.09 270.8,-81.75 277.17,-84.64"/>
</a>
</g>
</g>
<!-- Node13&#45;&gt;Node8 -->
<g id="edge21_Node000013_Node000008" class="edge">
<title>Node13&#45;&gt;Node8</title>
<g id="a_edge21_Node000013_Node000008"><a xlink:title=" ">
<path fill="none" stroke="#63b8ff" d="M392.66,-219.98C405.84,-211.77 426.03,-199.18 441.57,-189.49"/>
<polygon fill="#63b8ff" stroke="#63b8ff" points="443.46,-192.43 450.09,-184.17 439.76,-186.49 443.46,-192.43"/>
</a>
</g>
</g>
<!-- Node13&#45;&gt;Node9 -->
<g id="edge23_Node000013_Node000009" class="edge">
<title>Node13&#45;&gt;Node9</title>
<g id="a_edge23_Node000013_Node000009"><a xlink:title=" ">
<path fill="none" stroke="#63b8ff" d="M348.63,-219.98C316.63,-211.01 266.04,-196.82 230.62,-186.89"/>
<polygon fill="#63b8ff" stroke="#63b8ff" points="231.18,-183.41 220.6,-184.08 229.29,-190.15 231.18,-183.41"/>
</a>
</g>
</g>
<!-- Node13&#45;&gt;Node11 -->
<g id="edge22_Node000013_Node000011" class="edge">
<title>Node13&#45;&gt;Node11</title>
<g id="a_edge22_Node000013_Node000011"><a xlink:title=" ">
<path fill="none" stroke="#63b8ff" d="M365.05,-219.84C353.2,-211.84 336.48,-198.96 326,-184 305.91,-155.33 311.25,-142.8 299,-110 295.74,-101.27 292.06,-91.61 288.96,-83.53"/>
<polygon fill="#63b8ff" stroke="#63b8ff" points="292.16,-82.09 285.3,-74.02 285.62,-84.61 292.16,-82.09"/>
</a>
</g>
</g>
<!-- Node14 -->
<g id="Node000014" class="node">
<title>Node14</title>
<g id="a_Node000014"><a xlink:title=" ">
<polygon fill="#e0e0e0" stroke="#999999" points="440,-129 384,-129 384,-110 440,-110 440,-129"/>
<text text-anchor="middle" x="412" y="-117" font-family="Helvetica,sans-Serif" font-size="10.00">stddef.h</text>
</a>
</g>
</g>
<!-- Node13&#45;&gt;Node14 -->
<g id="edge20_Node000013_Node000014" class="edge">
<title>Node13&#45;&gt;Node14</title>
<g id="a_edge20_Node000013_Node000014"><a xlink:title=" ">
<path fill="none" stroke="#63b8ff" d="M381.7,-219.66C387.07,-202.09 399.18,-162.45 406.36,-138.95"/>
<polygon fill="#63b8ff" stroke="#63b8ff" points="409.78,-139.74 409.35,-129.16 403.08,-137.7 409.78,-139.74"/>
</a>
</g>
</g>
<!-- Node15 -->
<g id="Node000015" class="node">
<title>Node15</title>
<g id="a_Node000015"><a xlink:href="dbc_8h.html" target="_top" xlink:title="Minimal CAN database (DBC) model, parser, and signal decoder.">
<polygon fill="white" stroke="#666666" points="377.5,-184 334.5,-184 334.5,-165 377.5,-165 377.5,-184"/>
<text text-anchor="middle" x="356" y="-172" font-family="Helvetica,sans-Serif" font-size="10.00">dbc.h</text>
</a>
</g>
</g>
<!-- Node13&#45;&gt;Node15 -->
<g id="edge24_Node000013_Node000015" class="edge">
<title>Node13&#45;&gt;Node15</title>
<g id="a_edge24_Node000013_Node000015"><a xlink:title=" ">
<path fill="none" stroke="#63b8ff" d="M375.2,-219.75C372.09,-212.57 367.58,-202.18 363.71,-193.27"/>
<polygon fill="#63b8ff" stroke="#63b8ff" points="366.92,-191.87 359.73,-184.09 360.5,-194.66 366.92,-191.87"/>
</a>
</g>
</g>
<!-- Node15&#45;&gt;Node10 -->
<g id="edge26_Node000015_Node000010" class="edge">
<title>Node15&#45;&gt;Node10</title>
<g id="a_edge26_Node000015_Node000010"><a xlink:title=" ">
<path fill="none" stroke="#63b8ff" d="M357.13,-164.74C359.37,-143.59 362.17,-88.99 337,-55 323.81,-37.19 301.55,-26.13 282.35,-19.49"/>
<polygon fill="#63b8ff" stroke="#63b8ff" points="283.24,-16.1 272.65,-16.41 281.12,-22.77 283.24,-16.1"/>
</a>
</g>
</g>
<!-- Node15&#45;&gt;Node14 -->
<g id="edge25_Node000015_Node000014" class="edge">
<title>Node15&#45;&gt;Node14</title>
<g id="a_edge25_Node000015_Node000014"><a xlink:title=" ">
<path fill="none" stroke="#63b8ff" d="M365,-164.98C373.19,-157.23 385.51,-145.58 395.47,-136.14"/>
<polygon fill="#63b8ff" stroke="#63b8ff" points="397.98,-138.59 402.84,-129.17 393.17,-133.5 397.98,-138.59"/>
</a>
</g>
</g>
</g>
</svg>
