<?xml version="1.0" encoding="UTF-8" standalone="no"?>
<!DOCTYPE svg PUBLIC "-//W3C//DTD SVG 1.1//EN"
 "http://www.w3.org/Graphics/SVG/1.1/DTD/svg11.dtd">
<!-- Generated by graphviz version 2.43.0 (0)
 -->
<!-- Title: gui/transmit_dialog.c Pages: 1 -->
<svg width="573pt" height="302pt"
 viewBox="0.00 0.00 573.01 302.00" xmlns="http://www.w3.org/2000/svg" xmlns:xlink="http://www.w3.org/1999/xlink">
<g id="graph0" class="graph" transform="scale(1 1) rotate(0) translate(4 298)">
<title>gui/transmit_dialog.c</title>
<!-- Node1 -->
<g id="Node000001" class="node">
<title>Node1</title>
<g id="a_Node000001"><a xlink:title="Advanced (&quot;Transmit...&quot;) CAN/CAN FD message composer window.">
<polygon fill="#999999" stroke="#666666" points="332.01,-294 213.01,-294 213.01,-275 332.01,-275 332.01,-294"/>
<text text-anchor="middle" x="272.51" y="-282" font-family="Helvetica,sans-Serif" font-size="10.00">gui/transmit_dialog.c</text>
</a>
</g>
</g>
<!-- Node2 -->
<g id="Node000002" class="node">
<title>Node2</title>
<g id="a_Node000002"><a xlink:title=" ">
<polygon fill="#e0e0e0" stroke="#999999" points="62.51,-129 12.51,-129 12.51,-110 62.51,-110 62.51,-129"/>
<text text-anchor="middle" x="37.51" y="-117" font-family="Helvetica,sans-Serif" font-size="10.00">stdio.h</text>
</a>
</g>
</g>
<!-- Node1&#45;&gt;Node2 -->
<g id="edge1_Node000001_Node000002" class="edge">
<title>Node1&#45;&gt;Node2</title>
<g id="a_edge1_Node000001_Node000002"><a xlink:title=" ">
<path fill="none" stroke="#63b8ff" d="M237.5,-274.99C212.49,-267.87 178.75,-256.11 152.51,-239 108.88,-210.55 69.25,-162.8 49.92,-137.47"/>
<polygon fill="#63b8ff" stroke="#63b8ff" points="52.55,-135.13 43.75,-129.23 46.94,-139.33 52.55,-135.13"/>
</a>
</g>
</g>
<!-- Node3 -->
<g id="Node000003" class="node">
<title>Node3</title>
<g id="a_Node000003"><a xlink:title=" ">
<polygon fill="#e0e0e0" stroke="#999999" points="354.01,-239 301.01,-239 301.01,-220 354.01,-220 354.01,-239"/>
<text text-anchor="middle" x="327.51" y="-227" font-family="Helvetica,sans-Serif" font-size="10.00">stdlib.h</text>
</a>
</g>
</g>
<!-- Node1&#45;&gt;Node3 -->
<g id="edge2_Node000001_Node000003" class="edge">
<title>Node1&#45;&gt;Node3</title>
<g id="a_edge2_Node000001_Node000003"><a xlink:title=" ">
<path fill="none" stroke="#63b8ff" d="M281.59,-274.75C289.6,-267.03 301.47,-255.6 311.13,-246.28"/>
<polygon fill="#63b8ff" stroke="#63b8ff" points="313.82,-248.55 318.59,-239.09 308.96,-243.51 313.82,-248.55"/>
</a>
</g>
</g>
<!-- Node4 -->
<g id="Node000004" class="node">
<title>Node4</title>
<g id="a_Node000004"><a xlink:title=" ">
<polygon fill="#e0e0e0" stroke="#999999" points="425.01,-239 372.01,-239 372.01,-220 425.01,-220 425.01,-239"/>
<text text-anchor="middle" x="398.51" y="-227" font-family="Helvetica,sans-Serif" font-size="10.00">string.h</text>
</a>
</g>
</g>
<!-- Node1&#45;&gt;Node4 -->
<g id="edge3_Node000001_Node000004" class="edge">
<title>Node1&#45;&gt;Node4</title>
<g id="a_edge3_Node000001_Node000004"><a xlink:title=" ">
<path fill="none" stroke="#63b8ff" d="M292.75,-274.98C313.2,-266.38 345.04,-252.99 368.44,-243.15"/>
<polygon fill="#63b8ff" stroke="#63b8ff" points="370.03,-246.27 377.89,-239.17 367.32,-239.82 370.03,-246.27"/>
</a>
</g>
</g>
<!-- Node5 -->
<g id="Node000005" class="node">
<title>Node5</title>
<g id="a_Node000005"><a xlink:title=" ">
<polygon fill="#e0e0e0" stroke="#999999" points="496.01,-239 443.01,-239 443.01,-220 496.01,-220 496.01,-239"/>
<text text-anchor="middle" x="469.51" y="-227" font-family="Helvetica,sans-Serif" font-size="10.00">ctype.h</text>
</a>
</g>
</g>
<!-- Node1&#45;&gt;Node5 -->
<g id="edge4_Node000001_Node000005" class="edge">
<title>Node1&#45;&gt;Node5</title>
<g id="a_edge4_Node000001_Node000005"><a xlink:title=" ">
<path fill="none" stroke="#63b8ff" d="M304.16,-274.98C339.35,-265.52 396.1,-250.25 433.11,-240.29"/>
<polygon fill="#63b8ff" stroke="#63b8ff" points="434.24,-243.61 442.99,-237.63 432.42,-236.85 434.24,-243.61"/>
</a>
</g>
</g>
<!-- Node6 -->
<g id="Node000006" class="node">
<title>Node6</title>
<g id="a_Node000006"><a xlink:title=" ">
<polygon fill="#e0e0e0" stroke="#999999" points="565.01,-239 514.01,-239 514.01,-220 565.01,-220 565.01,-239"/>
<text text-anchor="middle" x="539.51" y="-227" font-family="Helvetica,sans-Serif" font-size="10.00">errno.h</text>
</a>
</g>
</g>
<!-- Node1&#45;&gt;Node6 -->
<g id="edge5_Node000001_Node000006" class="edge">
<title>Node1&#45;&gt;Node6</title>
<g id="a_edge5_Node000001_Node000006"><a xlink:title=" ">
<path fill="none" stroke="#63b8ff" d="M321.76,-274.92C366.82,-266.89 435.55,-254.17 503.85,-239.27"/>
<polygon fill="#63b8ff" stroke="#63b8ff" points="504.91,-242.62 513.92,-237.06 503.41,-235.79 504.91,-242.62"/>
</a>
</g>
</g>
<!-- Node7 -->
<g id="Node000007" class="node">
<title>Node7</title>
<g id="a_Node000007"><a xlink:title=" ">
<polygon fill="#e0e0e0" stroke="#999999" points="398.51,-184 338.51,-184 338.51,-165 398.51,-165 398.51,-184"/>
<text text-anchor="middle" x="368.51" y="-172" font-family="Helvetica,sans-Serif" font-size="10.00">gtk/gtk.h</text>
</a>
</g>
</g>
<!-- Node1&#45;&gt;Node7 -->
<g id="edge6_Node000001_Node000007" class="edge">
<title>Node1&#45;&gt;Node7</title>
<g id="a_edge6_Node000001_Node000007"><a xlink:title=" ">
<path fill="none" stroke="#63b8ff" d="M273.27,-274.77C274.82,-261.6 279.39,-236.45 292.51,-220 303.61,-206.07 320.34,-195.61 335.29,-188.34"/>
<polygon fill="#63b8ff" stroke="#63b8ff" points="337.12,-191.35 344.77,-184.01 334.22,-184.98 337.12,-191.35"/>
</a>
</g>
</g>
<!-- Node8 -->
<g id="Node000008" class="node">
<title>Node8</title>
<g id="a_Node000008"><a xlink:href="gui_8h.html" target="_top" xlink:title="GTK GUI widget registry and the application&#39;s GUI/thread API.">
<polygon fill="white" stroke="#666666" points="244.01,-239 177.01,-239 177.01,-220 244.01,-220 244.01,-239"/>
<text text-anchor="middle" x="210.51" y="-227" font-family="Helvetica,sans-Serif" font-size="10.00">../inc/gui.h</text>
</a>
</g>
</g>
<!-- Node1&#45;&gt;Node8 -->
<g id="edge7_Node000001_Node000008" class="edge">
<title>Node1&#45;&gt;Node8</title>
<g id="a_edge7_Node000001_Node000008"><a xlink:title=" ">
<path fill="none" stroke="#63b8ff" d="M262.55,-274.98C253.38,-267.15 239.57,-255.34 228.48,-245.86"/>
<polygon fill="#63b8ff" stroke="#63b8ff" points="230.53,-243.01 220.65,-239.17 225.98,-248.33 230.53,-243.01"/>
</a>
</g>
</g>
<!-- Node10 -->
<g id="Node000010" class="node">
<title>Node10</title>
<g id="a_Node000010"><a xlink:href="can__message_8h.html" target="_top" xlink:title="Hardware&#45;independent CAN/CAN FD message and statistics data types.">
<polygon fill="white" stroke="#666666" points="256.51,-74 164.51,-74 164.51,-55 256.51,-55 256.51,-74"/>
<text text-anchor="middle" x="210.51" y="-62" font-family="Helvetica,sans-Serif" font-size="10.00">can_message.h</text>
</a>
</g>
</g>
<!-- Node1&#45;&gt;Node10 -->
<g id="edge25_Node000001_Node000010" class="edge">
<title>Node1&#45;&gt;Node10</title>
<g id="a_edge25_Node000001_Node000010"><a xlink:title=" ">
<path fill="none" stroke="#63b8ff" d="M225.36,-274.95C195.17,-268.15 155.91,-256.77 124.51,-239 61.25,-203.21 32.91,-195.47 3.51,-129 0.09,-121.28 -1.8,-116.57 3.51,-110 22.12,-86.97 99.29,-75.3 153.95,-69.81"/>
<polygon fill="#63b8ff" stroke="#63b8ff" points="154.59,-73.27 164.21,-68.83 153.92,-66.3 154.59,-73.27"/>
</a>
</g>
</g>
<!-- Node13 -->
<g id="Node000013" class="node">
<title>Node13</title>
<g id="a_Node000013"><a xlink:href="app__state_8h.html" target="_top" xlink:title="Global application state shared across the GUI and worker threads.">
<polygon fill="white" stroke="#666666" points="182.51,-184 108.51,-184 108.51,-165 182.51,-165 182.51,-184"/>
<text text-anchor="middle" x="145.51" y="-172" font-family="Helvetica,sans-Serif" font-size="10.00">app_state.h</text>
</a>
</g>
</g>
<!-- Node1&#45;&gt;Node13 -->
<g id="edge24_Node000001_Node000013" class="edge">
<title>Node1&#45;&gt;Node13</title>
<g id="a_edge24_Node000001_Node000013"><a xlink:title=" ">
<path fill="none" stroke="#63b8ff" d="M233.45,-274.95C211.77,-268.4 185.77,-257.27 168.51,-239 156.82,-226.63 150.99,-207.86 148.13,-193.94"/>
<polygon fill="#63b8ff" stroke="#63b8ff" points="151.57,-193.28 146.43,-184.02 144.67,-194.47 151.57,-193.28"/>
</a>
</g>
</g>
<!-- Node8&#45;&gt;Node7 -->
<g id="edge9_Node000008_Node000007" class="edge">
<title>Node8&#45;&gt;Node7</title>
<g id="a_edge9_Node000008_Node000007"><a xlink:title=" ">
<path fill="none" stroke="#63b8ff" d="M235.89,-219.98C262.3,-211.13 303.85,-197.19 333.4,-187.28"/>
<polygon fill="#63b8ff" stroke="#63b8ff" points="334.56,-190.58 342.92,-184.08 332.33,-183.94 334.56,-190.58"/>
</a>
</g>
</g>
<!-- Node9 -->
<g id="Node000009" class="node">
<title>Node9</title>
<g id="a_Node000009"><a xlink:title=" ">
<polygon fill="#e0e0e0" stroke="#999999" points="414.51,-129 358.51,-129 358.51,-110 414.51,-110 414.51,-129"/>
<text text-anchor="middle" x="386.51" y="-117" font-family="Helvetica,sans-Serif" font-size="10.00">stddef.h</text>
</a>
</g>
</g>
<!-- Node8&#45;&gt;Node9 -->
<g id="edge8_Node000008_Node000009" class="edge">
<title>Node8&#45;&gt;Node9</title>
<g id="a_edge8_Node000008_Node000009"><a xlink:title=" ">
<path fill="none" stroke="#63b8ff" d="M216.29,-219.91C225.75,-206.47 245.77,-180.41 268.51,-165 292.77,-148.56 323.93,-137.14 348.13,-129.99"/>
<polygon fill="#63b8ff" stroke="#63b8ff" points="349.37,-133.28 358.04,-127.19 347.46,-126.54 349.37,-133.28"/>
</a>
</g>
</g>
<!-- Node8&#45;&gt;Node10 -->
<g id="edge10_Node000008_Node000010" class="edge">
<title>Node8&#45;&gt;Node10</title>
<g id="a_edge10_Node000008_Node000010"><a xlink:title=" ">
<path fill="none" stroke="#63b8ff" d="M210.51,-219.74C210.51,-194.31 210.51,-120.08 210.51,-84.69"/>
<polygon fill="#63b8ff" stroke="#63b8ff" points="214.01,-84.31 210.51,-74.31 207.01,-84.31 214.01,-84.31"/>
</a>
</g>
</g>
<!-- Node8&#45;&gt;Node13 -->
<g id="edge13_Node000008_Node000013" class="edge">
<title>Node8&#45;&gt;Node13</title>
<g id="a_edge13_Node000008_Node000013"><a xlink:title=" ">
<path fill="none" stroke="#63b8ff" d="M200.06,-219.98C190.36,-212.07 175.69,-200.11 164.01,-190.58"/>
<polygon fill="#63b8ff" stroke="#63b8ff" points="166.1,-187.78 156.14,-184.17 161.68,-193.2 166.1,-187.78"/>
</a>
</g>
</g>
<!-- Node16 -->
<g id="Node000016" class="node">
<title>Node16</title>
<g id="a_Node000016"><a xlink:href="dbc_8h.html" target="_top" xlink:title="Minimal CAN database (DBC) model, parser, and signal decoder.">
<polygon fill="white" stroke="#666666" points="320.01,-184 277.01,-184 277.01,-165 320.01,-165 320.01,-184"/>
<text text-anchor="middle" x="298.51" y="-172" font-family="Helvetica,sans-Serif" font-size="10.00">dbc.h</text>
</a>
</g>
</g>
<!-- Node8&#45;&gt;Node16 -->
<g id="edge21_Node000008_Node000016" class="edge">
<title>Node8&#45;&gt;Node16</title>
<g id="a_edge21_Node000008_Node000016"><a xlink:title=" ">
<path fill="none" stroke="#63b8ff" d="M224.65,-219.98C238.29,-211.77 259.19,-199.18 275.28,-189.49"/>
<polygon fill="#63b8ff" stroke="#63b8ff" points="277.35,-192.33 284.11,-184.17 273.74,-186.33 277.35,-192.33"/>
</a>
</g>
</g>
<!-- Node11 -->
<g id="Node000011" class="node">
<title>Node11</title>
<g id="a_Node000011"><a xlink:title=" ">
<polygon fill="#e0e0e0" stroke="#999999" points="336.01,-19 283.01,-19 283.01,0 336.01,0 336.01,-19"/>
<text text-anchor="middle" x="309.51" y="-7" font-family="Helvetica,sans-Serif" font-size="10.00">stdint.h</text>
</a>
</g>
</g>
<!-- Node10&#45;&gt;Node11 -->
<g id="edge11_Node000010_Node000011" class="edge">
<title>Node10&#45;&gt;Node11</title>
<g id="a_edge11_Node000010_Node000011"><a xlink:title=" ">
<path fill="none" stroke="#63b8ff" d="M226.41,-54.98C242.05,-46.61 266.16,-33.7 284.39,-23.95"/>
<polygon fill="#63b8ff" stroke="#63b8ff" points="286.15,-26.98 293.31,-19.17 282.84,-20.8 286.15,-26.98"/>
</a>
</g>
</g>
<!-- Node12 -->
<g id="Node000012" class="node">
<title>Node12</title>
<g id="a_Node000012"><a xlink:title=" ">
<polygon fill="#e0e0e0" stroke="#999999" points="234.51,-19 186.51,-19 186.51,0 234.51,0 234.51,-19"/>
<text text-anchor="middle" x="210.51" y="-7" font-family="Helvetica,sans-Serif" font-size="10.00">time.h</text>
</a>
</g>
</g>
<!-- Node10&#45;&gt;Node12 -->
<g id="edge12_Node000010_Node000012" class="edge">
<title>Node10&#45;&gt;Node12</title>
<g id="a_edge12_Node000010_Node000012"><a xlink:title=" ">
<path fill="none" stroke="#63b8ff" d="M210.51,-54.75C210.51,-47.8 210.51,-37.85 210.51,-29.13"/>
<polygon fill="#63b8ff" stroke="#63b8ff" points="214.01,-29.09 210.51,-19.09 207.01,-29.09 214.01,-29.09"/>
</a>
</g>
</g>
<!-- Node13&#45;&gt;Node2 -->
<g id="edge16_Node000013_Node000002" class="edge">
<title>Node13&#45;&gt;Node2</title>
<g id="a_edge16_Node000013_Node000002"><a xlink:title=" ">
<path fill="none" stroke="#63b8ff" d="M128.16,-164.98C110.94,-156.54 84.31,-143.47 64.36,-133.68"/>
<polygon fill="#63b8ff" stroke="#63b8ff" points="65.69,-130.43 55.18,-129.17 62.61,-136.72 65.69,-130.43"/>
</a>
</g>
</g>
<!-- Node13&#45;&gt;Node10 -->
<g id="edge17_Node000013_Node000010" class="edge">
<title>Node13&#45;&gt;Node10</title>
<g id="a_edge17_Node000013_Node000010"><a xlink:title=" ">
<path fill="none" stroke="#63b8ff" d="M134.34,-164.64C119.99,-152.15 98.3,-128.79 110.51,-110 120.77,-94.2 138.08,-83.97 155.44,-77.35"/>
<polygon fill="#63b8ff" stroke="#63b8ff" points="156.74,-80.61 165.05,-74.04 154.45,-73.99 156.74,-80.61"/>
</a>
</g>
</g>
<!-- Node13&#45;&gt;Node11 -->
<g id="edge15_Node000013_Node000011" class="edge">
<title>Node13&#45;&gt;Node11</title>
<g id="a_edge15_Node000013_Node000011"><a xlink:title=" ">
<path fill="none" stroke="#63b8ff" d="M182.74,-168.79C226.73,-162.37 295.93,-149.3 311.51,-129 333.76,-99.99 324.16,-54.16 316.2,-28.83"/>
<polygon fill="#63b8ff" stroke="#63b8ff" points="319.41,-27.4 312.88,-19.06 312.78,-29.65 319.41,-27.4"/>
</a>
</g>
</g>
<!-- Node14 -->
<g id="Node000014" class="node">
<title>Node14</title>
<g id="a_Node000014"><a xlink:title=" ">
<polygon fill="#e0e0e0" stroke="#999999" points="182.01,-129 119.01,-129 119.01,-110 182.01,-110 182.01,-129"/>
<text text-anchor="middle" x="150.51" y="-117" font-family="Helvetica,sans-Serif" font-size="10.00">pthread.h</text>
</a>
</g>
</g>
<!-- Node13&#45;&gt;Node14 -->
<g id="edge14_Node000013_Node000014" class="edge">
<title>Node13&#45;&gt;Node14</title>
<g id="a_edge14_Node000013_Node000014"><a xlink:title=" ">
<path fill="none" stroke="#63b8ff" d="M146.33,-164.75C146.99,-157.8 147.93,-147.85 148.75,-139.13"/>
<polygon fill="#63b8ff" stroke="#63b8ff" points="152.24,-139.37 149.7,-129.09 145.27,-138.72 152.24,-139.37"/>
</a>
</g>
</g>
<!-- Node15 -->
<g id="Node000015" class="node">
<title>Node15</title>
<g id="a_Node000015"><a xlink:href="drv__can_8h.html" target="_top" xlink:title="Generic CAN driver abstraction (vtable) and thin wrapper API.">
<polygon fill="white" stroke="#666666" points="302.51,-129 238.51,-129 238.51,-110 302.51,-110 302.51,-129"/>
<text text-anchor="middle" x="270.51" y="-117" font-family="Helvetica,sans-Serif" font-size="10.00">drv_can.h</text>
</a>
</g>
</g>
<!-- Node13&#45;&gt;Node15 -->
<g id="edge18_Node000013_Node000015" class="edge">
<title>Node13&#45;&gt;Node15</title>
<g id="a_edge18_Node000013_Node000015"><a xlink:title=" ">
<path fill="none" stroke="#63b8ff" d="M165.59,-164.98C185.88,-156.38 217.46,-142.99 240.68,-133.15"/>
<polygon fill="#63b8ff" stroke="#63b8ff" points="242.22,-136.3 250.06,-129.17 239.49,-129.85 242.22,-136.3"/>
</a>
</g>
</g>
<!-- Node15&#45;&gt;Node10 -->
<g id="edge20_Node000015_Node000010" class="edge">
<title>Node15&#45;&gt;Node10</title>
<g id="a_edge20_Node000015_Node000010"><a xlink:title=" ">
<path fill="none" stroke="#63b8ff" d="M260.87,-109.98C252,-102.15 238.63,-90.34 227.9,-80.86"/>
<polygon fill="#63b8ff" stroke="#63b8ff" points="230.13,-78.17 220.32,-74.17 225.5,-83.41 230.13,-78.17"/>
</a>
</g>
</g>
<!-- Node15&#45;&gt;Node11 -->
<g id="edge19_Node000015_Node000011" class="edge">
<title>Node15&#45;&gt;Node11</title>
<g id="a_edge19_Node000015_Node000011"><a xlink:title=" ">
<path fill="none" stroke="#63b8ff" d="M273.7,-109.66C280.07,-92.01 294.49,-52.09 302.96,-28.64"/>
<polygon fill="#63b8ff" stroke="#63b8ff" points="306.28,-29.75 306.38,-19.16 299.69,-27.38 306.28,-29.75"/>
</a>
</g>
</g>
<!-- Node16&#45;&gt;Node9 -->
<g id="edge22_Node000016_Node000009" class="edge">
<title>Node16&#45;&gt;Node9</title>
<g id="a_edge22_Node000016_Node000009"><a xlink:title=" ">
<path fill="none" stroke="#63b8ff" d="M312.65,-164.98C326.29,-156.77 347.19,-144.18 363.28,-134.49"/>
<polygon fill="#63b8ff" stroke="#63b8ff" points="365.35,-137.33 372.11,-129.17 361.74,-131.33 365.35,-137.33"/>
</a>
</g>
</g>
<!-- Node16&#45;&gt;Node11 -->
<g id="edge23_Node000016_Node000011" class="edge">
<title>Node16&#45;&gt;Node11</title>
<g id="a_edge23_Node000016_Node000011"><a xlink:title=" ">
<path fill="none" stroke="#63b8ff" d="M320.05,-167.3C354.14,-157.28 417.33,-137.75 423.51,-129 453.72,-86.17 381.95,-43.82 338.94,-23.29"/>
<polygon fill="#63b8ff" stroke="#63b8ff" points="340.28,-20.05 329.74,-19.02 337.33,-26.4 340.28,-20.05"/>
</a>
</g>
</g>
</g>
</svg>
